<svg xmlns="http://www.w3.org/2000/svg" viewBox="0 0 1024 1024">
  <path fill="currentColor" d="M 448 1007.359375 C 427.503906 1007.164062 409.675781 993.269531 404.480469 973.441406 L 273.28125 439.679688 L 235.519531 586.878906 C 230.324219 606.707031 212.496094 620.601562 192 620.800781 L 0 620.800781 L 0 531.199219 L 157.441406 531.199219 L 231.039062 245.121094 C 236.855469 225.441406 254.6875 211.746094 275.199219 211.199219 C 296.328125 210.320312 315.113281 224.546875 320 245.121094 L 448 776.320312 L 628.480469 53.121094 C 633.542969 33.738281 650.703125 19.960938 670.71875 19.199219 C 691.160156 17.328125 709.914062 30.644531 714.878906 50.558594 L 864.640625 531.199219 L 1024 531.199219 L 1024 620.800781 L 832 620.800781 C 812.382812 620.863281 795.003906 608.15625 789.121094 589.441406 L 677.121094 229.761719 L 491.519531 973.441406 C 486.324219 993.269531 468.496094 1007.164062 448 1007.359375 Z M 448 1007.359375 " />
</svg>