<svg xmlns="http://www.w3.org/2000/svg" viewBox="0 0 1024 1024"><path fill="currentColor" d="M 768 704 L 768 640 L 704 608 L 704 704 L 640 704 L 640 640 L 576 608 L 576 704 L 512 704 L 512 640 L 448 608 L 448 704 L 384 704 L 384 640 L 320 608 L 320 704 L 256 704 L 256 640 L 192 608 L 192 704 L 128 704 L 128 640 L 64 608 L 64 896 L 960 896 L 960 704 L 896 704 L 896 640 L 832 608 L 832 704 Z M 960 608 L 960 320 L 576 320 C 560.332031 244.441406 493.152344 190.699219 416 192 L 64 192 L 64 512 L 128 512 L 128 576 L 192 608 L 192 512 L 256 512 L 256 576 L 320 608 L 320 512 L 384 512 L 384 576 L 448 608 L 448 512 L 512 512 L 512 576 L 576 608 L 576 512 L 640 512 L 640 576 L 704 608 L 704 512 L 768 512 L 768 576 L 832 608 L 832 512 L 896 512 L 896 576 Z M 960 608 "/></svg>
