<svg xmlns="http://www.w3.org/2000/svg" viewBox="0 0 1024 1024"><path fill="currentColor" d="M 64 681.601562 L 64 789.761719 L 494.078125 960 C 505.828125 964.480469 518.8125 964.480469 530.558594 960 L 960 790.398438 L 960 682.238281 L 512 855.679688 Z M 64 458.238281 L 64 566.398438 L 494.71875 733.441406 C 506.46875 737.917969 519.453125 737.917969 531.199219 733.441406 L 960 567.039062 L 960 458.878906 L 512 632.320312 Z M 526.078125 64 C 517.300781 60.191406 507.335938 60.191406 498.558594 64 L 64 239.359375 L 64 347.519531 L 494.078125 512 C 505.828125 516.480469 518.8125 516.480469 530.558594 512 L 960 347.519531 L 960 239.359375 Z M 512 412.800781 L 172.800781 284.800781 L 512 143.359375 L 851.839844 280.960938 Z M 512 412.800781 "/></svg>
