<svg xmlns="http://www.w3.org/2000/svg" viewBox="0 0 1024 1024"><path fill="currentColor" d="M 832 602.238281 C 776.5 595.195312 722.101562 581.21875 670.078125 560.640625 C 634.171875 546.496094 599.125 530.253906 565.121094 512 C 599.324219 493.710938 634.585938 477.46875 670.71875 463.359375 C 722.375 442.464844 776.632812 428.683594 832 422.398438 C 857.765625 419.121094 880.980469 405.191406 896 384 C 925.335938 342.644531 915.59375 285.335938 874.238281 256 C 832.886719 226.664062 775.578125 236.40625 746.238281 277.761719 C 713.773438 323.734375 674.746094 364.703125 630.398438 399.359375 C 600.105469 422.527344 568.476562 443.898438 535.679688 463.359375 C 537.082031 424.78125 540.714844 386.316406 546.558594 348.160156 C 555.328125 294.457031 570.585938 242.023438 592 192 C 602.84375 168.21875 602.84375 140.902344 592 117.121094 C 571.1875 73.664062 519.910156 54.222656 475.519531 72.960938 C 431.628906 94.761719 413.164062 147.605469 433.921875 192 C 456.398438 243.417969 471.6875 297.6875 479.359375 353.28125 C 483.9375 391.511719 486.285156 429.976562 486.398438 468.480469 C 453.601562 449.015625 421.976562 427.648438 391.679688 404.480469 C 347.132812 368.414062 307.726562 326.425781 274.558594 279.679688 C 259.171875 259.210938 236.011719 246.007812 210.558594 243.199219 C 162.859375 241.121094 121.792969 276.566406 116.875 324.058594 C 111.957031 371.550781 144.882812 414.65625 192 422.398438 C 247.394531 428.914062 301.648438 442.90625 353.28125 464 C 389.65625 477.773438 425.140625 493.804688 459.519531 512 C 425.292969 530.058594 390.03125 546.085938 353.921875 560 C 301.917969 580.769531 247.523438 594.960938 192 602.238281 C 166.179688 604.886719 142.804688 618.679688 128 640 C 101.453125 679.1875 109.699219 732.230469 146.890625 761.507812 C 184.082031 790.789062 237.574219 786.359375 269.441406 751.359375 L 273.28125 745.601562 C 307.476562 700.625 347.261719 660.195312 391.679688 625.28125 C 421.757812 602.117188 453.171875 580.75 485.761719 561.28125 C 484.703125 599.878906 481.070312 638.367188 474.878906 676.480469 C 467.820312 729.835938 454.058594 782.089844 433.921875 832 C 418.269531 876.640625 439.75 925.792969 483.144531 944.628906 C 526.539062 963.46875 577.113281 945.597656 599.039062 903.679688 C 608.640625 880.75 608.640625 854.929688 599.039062 832 C 576.558594 780.628906 561.476562 726.328125 554.238281 670.71875 C 546.527344 632.710938 541.394531 594.222656 538.878906 555.519531 C 571.46875 574.988281 602.882812 596.359375 632.960938 619.519531 C 676.847656 654.121094 716.199219 694.117188 750.078125 738.558594 C 765.5 759.097656 788.597656 772.496094 814.078125 775.679688 C 861.988281 778.253906 903.535156 742.886719 908.644531 695.183594 C 913.753906 647.480469 880.644531 604.117188 833.28125 596.480469 Z M 832 602.238281 "/></svg>
