<svg xmlns="http://www.w3.org/2000/svg" viewBox="0 0 1024 1024"><path fill="currentColor" d="M 871.679688 516.480469 L 414.71875 64 L 350.71875 128 L 807.039062 580.480469 C 843.117188 614.027344 865.847656 659.488281 871.039062 708.480469 C 875.972656 754.117188 859.96875 799.53125 827.519531 832 C 795.339844 862.226562 751.828125 877.347656 707.839844 873.601562 C 657.519531 869.199219 610.585938 846.414062 576 809.601562 L 512 749.441406 L 172.800781 410.878906 C 150.035156 386.332031 150.035156 348.386719 172.800781 323.839844 C 197.523438 300.273438 236.398438 300.273438 261.121094 323.839844 L 693.761719 752.640625 L 757.761719 688.640625 L 320 262.398438 C 260.136719 204.195312 164.824219 204.195312 104.960938 262.398438 C 76.625 290.621094 60.699219 328.96875 60.699219 368.960938 C 60.699219 408.953125 76.625 447.296875 104.960938 475.519531 L 145.28125 512 L 512 872.320312 C 563.070312 924.121094 631.40625 955.332031 704 960 L 720.640625 960 C 787.484375 961.34375 851.75 934.214844 897.410156 885.378906 C 943.074219 836.542969 965.828125 770.601562 960 704 C 954.613281 632.761719 923.171875 566.003906 871.679688 516.480469 Z M 871.679688 516.480469 "/></svg>
