<svg xmlns="http://www.w3.org/2000/svg" viewBox="0 0 1024 1024">
  <path fill="currentColor" d="M 832 806.398438 L 832 506.878906 C 828.832031 349.914062 712.257812 218.429688 556.800781 196.480469 L 556.800781 0 L 467.199219 0 L 467.199219 196.480469 C 311.742188 218.429688 195.167969 349.914062 192 506.878906 L 192 806.398438 L 64 806.398438 L 64 896 L 384 896 C 384 966.691406 441.308594 1024 512 1024 C 582.691406 1024 640 966.691406 640 896 L 960 896 L 960 806.398438 Z M 281.601562 506.878906 C 281.601562 379.632812 384.753906 276.480469 512 276.480469 C 639.246094 276.480469 742.398438 379.632812 742.398438 506.878906 L 742.398438 806.398438 L 281.601562 806.398438 Z M 281.601562 506.878906 " />
</svg>