<svg xmlns="http://www.w3.org/2000/svg" viewBox="0 0 1024 1024">
  <path fill="currentColor" d="M 926.078125 256 C 926.144531 191.441406 878.121094 136.9375 814.066406 128.875 C 750.011719 120.808594 689.976562 161.710938 674.042969 224.273438 C 658.105469 286.835938 691.253906 351.476562 751.359375 375.039062 C 734.589844 581.515625 578.449219 749.566406 373.761719 781.441406 C 359.878906 749.417969 333.527344 724.449219 300.800781 712.320312 L 300.800781 375.679688 C 358.796875 354.011719 392.96875 293.9375 381.960938 233.011719 C 370.949219 172.085938 317.914062 127.777344 256 127.777344 C 194.085938 127.777344 141.050781 172.085938 130.039062 233.011719 C 119.03125 293.9375 153.203125 354.011719 211.199219 375.679688 L 211.199219 712.320312 C 154.753906 732.796875 120.128906 789.761719 127.941406 849.300781 C 135.753906 908.835938 183.902344 954.9375 243.722656 960.160156 C 303.539062 965.382812 358.949219 928.320312 376.960938 871.039062 C 629.144531 836.585938 822.722656 630.195312 840.960938 376.320312 C 891.894531 358.210938 925.960938 310.058594 926.078125 256 Z M 217.601562 832 C 217.601562 810.792969 234.792969 793.601562 256 793.601562 C 277.207031 793.601562 294.398438 810.792969 294.398438 832 C 294.398438 853.207031 277.207031 870.398438 256 870.398438 C 234.792969 870.398438 217.601562 853.207031 217.601562 832 Z M 836.480469 256 C 836.480469 277.207031 819.289062 294.398438 798.078125 294.398438 C 776.871094 294.398438 759.679688 277.207031 759.679688 256 C 759.679688 234.792969 776.871094 217.601562 798.078125 217.601562 C 819.289062 217.601562 836.480469 234.792969 836.480469 256 Z M 836.480469 256 " />
</svg>