<svg xmlns="http://www.w3.org/2000/svg" viewBox="0 0 1024 1024">
  <path fill="currentColor" d="M 928 691.199219 L 809.601562 691.199219 C 809.601562 680.960938 809.601562 671.359375 809.601562 660.480469 L 809.601562 524.800781 L 928 524.800781 C 944.226562 524.757812 959.160156 515.941406 967.039062 501.761719 L 1024 398.71875 L 945.921875 355.199219 L 901.121094 435.199219 L 811.519531 435.199219 L 811.519531 340.480469 C 811.519531 315.738281 791.460938 295.679688 766.71875 295.679688 L 704 295.679688 C 703.828125 275.09375 699.925781 254.710938 692.480469 235.519531 L 840.320312 87.039062 L 776.320312 23.039062 L 640 161.921875 C 610.625 139.46875 574.566406 127.523438 537.601562 128 L 486.398438 128 C 454.371094 128.15625 423.054688 137.484375 396.160156 154.878906 L 263.679688 22.398438 L 199.679688 86.398438 L 337.28125 222.078125 C 326.097656 244.558594 320.1875 269.292969 320 294.398438 L 256 294.398438 C 231.257812 294.398438 211.199219 314.457031 211.199219 339.199219 L 211.199219 435.199219 L 122.238281 435.199219 L 77.441406 355.199219 L 0 398.71875 L 56.320312 501.761719 C 64.300781 515.847656 79.171875 524.621094 95.359375 524.800781 L 211.199219 524.800781 L 211.199219 660.480469 C 211.597656 670.777344 212.667969 681.039062 214.398438 691.199219 L 95.359375 691.199219 C 79.171875 691.378906 64.300781 700.152344 56.320312 714.238281 L 0 817.28125 L 78.078125 860.800781 L 122.878906 780.800781 L 236.800781 780.800781 C 284.484375 890.308594 392.558594 961.121094 512 961.121094 C 631.441406 961.121094 739.515625 890.308594 787.199219 780.800781 L 901.761719 780.800781 L 946.558594 860.800781 L 1024 817.28125 L 966.398438 714.238281 C 958.632812 700.253906 943.996094 691.472656 928 691.199219 Z M 722.558594 660.480469 C 726.863281 738.59375 687.640625 812.6875 620.617188 853.039062 C 553.597656 893.390625 469.761719 893.390625 402.742188 853.039062 C 335.71875 812.6875 296.496094 738.59375 300.800781 660.480469 L 300.800781 384 L 722.558594 384 Z M 722.558594 660.480469 " />
</svg>