<svg xmlns="http://www.w3.org/2000/svg" viewBox="0 0 1024 1024">
  <path fill="currentColor" d="M 233.601562 116.480469 L 233.601562 350.078125 L 0 350.078125 L 0 907.519531 L 791.039062 907.519531 L 791.039062 673.921875 L 1024 673.921875 L 1024 116.480469 Z M 553.601562 206.078125 L 704 206.078125 L 704 350.078125 L 556.800781 350.078125 Z M 704 584.320312 L 556.800781 584.320312 L 556.800781 439.679688 L 704 439.679688 Z M 323.199219 439.679688 L 467.199219 439.679688 L 467.199219 584.320312 L 323.199219 584.320312 Z M 323.199219 206.078125 L 467.199219 206.078125 L 467.199219 350.078125 L 323.199219 350.078125 Z M 88.960938 439.679688 L 233.601562 439.679688 L 233.601562 584.320312 L 88.960938 584.320312 Z M 233.601562 817.921875 L 88.960938 817.921875 L 88.960938 673.921875 L 233.601562 673.921875 Z M 467.199219 817.921875 L 323.199219 817.921875 L 323.199219 673.921875 L 467.199219 673.921875 Z M 701.441406 817.921875 L 556.800781 817.921875 L 556.800781 673.921875 L 704 673.921875 Z M 935.039062 584.320312 L 791.039062 584.320312 L 791.039062 439.679688 L 935.039062 439.679688 Z M 791.039062 350.078125 L 791.039062 206.078125 L 935.039062 206.078125 L 935.039062 350.078125 Z M 791.039062 350.078125 " />
</svg>