<svg xmlns="http://www.w3.org/2000/svg" viewBox="0 0 1024 1024">
  <path fill="currentColor" d="M 404.480469 322.558594 C 469.121094 322.558594 535.039062 362.878906 542.71875 448 C 563.199219 422.398438 592.640625 411.519531 622.71875 411.519531 C 699.519531 411.519531 780.160156 484.480469 734.078125 576 L 743.039062 576 C 900.480469 576 910.078125 766.078125 734.078125 768 L 286.078125 768 C 113.921875 768 122.238281 513.28125 286.078125 512 C 239.359375 389.121094 320.640625 322.558594 404.480469 322.558594 M 404.480469 232.960938 C 328.320312 232.960938 258.558594 267.519531 218.878906 325.761719 C 193.921875 360.960938 182.398438 403.199219 183.039062 448 C 114.558594 484.480469 70.398438 556.800781 70.398438 643.839844 C 71.039062 750.078125 145.28125 857.601562 286.078125 857.601562 L 734.078125 857.601562 C 878.71875 856.320312 953.601562 762.238281 952.960938 670.078125 C 952.320312 604.160156 912 535.039062 835.839844 503.679688 C 833.28125 475.519531 823.679688 448.640625 808.320312 423.679688 C 769.921875 361.601562 696.960938 321.921875 622.078125 321.921875 C 611.199219 321.921875 599.679688 322.558594 589.441406 324.480469 C 549.761719 267.519531 483.199219 232.960938 404.480469 232.960938 Z M 404.480469 232.960938 " />
</svg>