<svg xmlns="http://www.w3.org/2000/svg" viewBox="0 0 1024 1024">
  <path fill="currentColor" d="M 846.71875 128 L 177.28125 128 C 114.71875 128 64 178.71875 64 241.28125 L 64 717.441406 C 63.65625 747.703125 75.441406 776.847656 96.722656 798.371094 C 118.003906 819.890625 147.011719 832 177.28125 832 L 192 832 L 192 1024 L 458.238281 832 L 846.078125 832 C 876.457031 832.171875 905.632812 820.140625 927.050781 798.597656 C 948.472656 777.058594 960.34375 747.816406 960 717.441406 L 960 241.28125 C 960 178.71875 909.28125 128 846.71875 128 Z M 870.398438 717.441406 C 870.0625 730.375 859.65625 740.785156 846.71875 741.121094 L 177.28125 741.121094 C 164.34375 740.785156 153.9375 730.375 153.601562 717.441406 L 153.601562 241.28125 C 153.9375 228.34375 164.34375 217.9375 177.28125 217.601562 L 846.71875 217.601562 C 859.65625 217.9375 870.0625 228.34375 870.398438 241.28125 Z M 870.398438 717.441406 " />
</svg>