<svg xmlns="http://www.w3.org/2000/svg" viewBox="0 0 1024 1024">
  <path fill="currentColor" d="M 426.878906 0 L 554.878906 0 L 554.878906 264.066406 C 665.292969 292.484375 746.878906 392.714844 746.878906 512 C 746.878906 631.285156 665.292969 731.511719 554.878906 759.9375 L 554.878906 1024 L 426.878906 1024 L 426.878906 759.9375 C 316.464844 731.511719 234.878906 631.285156 234.878906 512 C 234.878906 392.714844 316.464844 292.484375 426.878906 264.066406 Z M 490.878906 640 C 561.574219 640 618.878906 582.691406 618.878906 512 C 618.878906 441.308594 561.574219 384 490.878906 384 C 420.1875 384 362.878906 441.308594 362.878906 512 C 362.878906 582.691406 420.1875 640 490.878906 640 Z M 490.878906 640 " />
</svg>