<svg xmlns="http://www.w3.org/2000/svg" viewBox="0 0 1024 1024">
  <path fill="currentColor" d="M 320 256 C 284.652344 256 256 284.652344 256 320 C 256 355.347656 284.652344 384 320 384 C 355.347656 384 384 355.347656 384 320 C 384 284.652344 355.347656 256 320 256 Z M 704 640 C 668.652344 640 640 668.652344 640 704 C 640 739.347656 668.652344 768 704 768 C 739.347656 768 768 739.347656 768 704 C 768 668.652344 739.347656 640 704 640 Z M 512 448 C 476.652344 448 448 476.652344 448 512 C 448 547.347656 476.652344 576 512 576 C 547.347656 576 576 547.347656 576 512 C 576 476.652344 547.347656 448 512 448 Z M 791.039062 64 L 232.960938 64 C 139.644531 64 64 139.644531 64 232.960938 L 64 791.039062 C 64 884.355469 139.644531 960 232.960938 960 L 791.039062 960 C 884.355469 960 960 884.355469 960 791.039062 L 960 232.960938 C 960 139.644531 884.355469 64 791.039062 64 Z M 870.398438 791.039062 C 870.050781 834.722656 834.722656 870.050781 791.039062 870.398438 L 232.960938 870.398438 C 189.277344 870.050781 153.949219 834.722656 153.601562 791.039062 L 153.601562 232.960938 C 153.949219 189.277344 189.277344 153.949219 232.960938 153.601562 L 791.039062 153.601562 C 834.722656 153.949219 870.050781 189.277344 870.398438 232.960938 Z M 870.398438 791.039062 " />
</svg>