<svg xmlns="http://www.w3.org/2000/svg" viewBox="0 0 1024 1024">
  <path fill="currentColor" d="M 640.640625 511.359375 L 480 672 L 352 544 L 512 384 L 448 320 L 288 480 L 251.519531 443.519531 C 236.160156 428.160156 209.921875 430.078125 192 448 C 174.078125 465.921875 172.160156 492.160156 187.519531 507.519531 L 192 512 L 64 640 C 33.28125 670.71875 33.28125 737.28125 64 768 L 128 832 L 0 960 L 0 1024 L 64 1024 L 192 896 L 256 960 C 286.71875 990.71875 353.28125 990.71875 384 960 L 512 832 L 516.480469 836.480469 C 531.839844 851.839844 558.078125 849.921875 576 832 C 593.921875 814.078125 595.839844 787.839844 580.480469 772.480469 L 544 736 L 704.640625 575.359375 Z M 1024 0 L 960 0 L 832 128 L 768 64 C 737.28125 33.28125 670.71875 33.28125 640 64 L 576.640625 127.359375 L 571.519531 122.878906 C 556.800781 108.160156 529.921875 110.078125 512.640625 127.359375 C 494.71875 145.28125 492.800781 172.160156 507.519531 186.878906 L 512 191.359375 L 511.359375 192.640625 L 832 512 L 832.640625 511.359375 L 837.121094 515.839844 C 852.480469 531.199219 878.71875 528.640625 896.640625 511.359375 C 914.558594 493.441406 916.480469 467.199219 901.121094 451.839844 L 896.640625 447.359375 L 960 384 C 990.71875 353.28125 990.71875 286.71875 960 256 L 896 192 L 1024 64 Z M 1024 0 " />
</svg>