<svg xmlns="http://www.w3.org/2000/svg" viewBox="0 0 1024 1024">
  <path fill="currentColor" d="M 467.199219 171.519531 L 467.199219 448 L 556.800781 448 L 556.800781 171.519531 L 616.320312 231.039062 L 680.320312 167.039062 L 512 0 L 344.320312 167.679688 L 408.320312 231.679688 Z M 556.800781 851.839844 L 556.800781 576 L 467.199219 576 L 467.199219 851.199219 L 407.679688 792.320312 L 343.679688 856.320312 L 512 1024 L 679.679688 856.960938 L 615.679688 792.960938 Z M 856.320312 344.320312 L 792.320312 408.320312 L 851.839844 467.839844 L 576 467.839844 L 576 556.800781 L 851.199219 556.800781 L 792.320312 615.679688 L 856.320312 679.679688 L 1024 512 Z M 448 556.800781 L 448 467.199219 L 171.519531 467.199219 L 231.039062 407.679688 L 167.039062 343.679688 L 0 512 L 167.039062 679.039062 L 231.039062 615.039062 L 172.160156 556.800781 Z M 448 556.800781 " />
</svg>