<svg xmlns="http://www.w3.org/2000/svg" viewBox="0 0 1024 1024">
  <path fill="currentColor" d="M 512 416 C 458.980469 416 416 458.980469 416 512 C 416 565.019531 458.980469 608 512 608 C 565.019531 608 608 565.019531 608 512 C 608 458.980469 565.019531 416 512 416 Z M 512 736 C 458.980469 736 416 778.980469 416 832 C 416 885.019531 458.980469 928 512 928 C 565.019531 928 608 885.019531 608 832 C 608.515625 806.207031 598.628906 781.292969 580.570312 762.875 C 562.511719 744.453125 537.796875 734.074219 512 734.078125 Z M 512 289.921875 C 564.765625 289.910156 607.632812 247.3125 607.980469 194.546875 C 608.324219 141.78125 566.015625 98.628906 513.253906 97.929688 C 460.492188 97.226562 417.054688 139.242188 416 192 C 415.484375 217.792969 425.371094 242.707031 443.429688 261.125 C 461.488281 279.546875 486.203125 289.925781 512 289.921875 Z M 512 289.921875 " />
</svg>