<svg xmlns="http://www.w3.org/2000/svg" viewBox="0 0 1024 1024">
  <path fill="currentColor" d="M 512 709.761719 C 511.839844 693.746094 507.421875 678.0625 499.199219 664.320312 C 495.398438 659.695312 491.972656 654.773438 488.960938 649.601562 L 472.320312 625.28125 C 467.199219 617.601562 462.078125 608 455.679688 596.480469 C 450.425781 585.714844 445.9375 574.59375 442.238281 563.199219 C 440.96875 556.894531 435.214844 552.511719 428.800781 552.960938 C 422.152344 552.164062 416.011719 556.628906 414.71875 563.199219 C 411.023438 574.59375 406.53125 585.714844 401.28125 596.480469 C 396.027344 606.375 390.261719 615.988281 384 625.28125 L 367.359375 649.601562 C 361.601562 659.199219 357.761719 664.320312 357.761719 664.320312 C 349.070312 677.890625 344.410156 693.648438 344.320312 709.761719 C 344.152344 731.863281 352.921875 753.097656 368.640625 768.640625 C 384.417969 784.394531 405.863281 793.15625 428.160156 792.960938 C 450.335938 793.128906 471.664062 784.441406 487.40625 768.820312 C 503.148438 753.195312 512 731.9375 512 709.761719 Z M 846.078125 625.921875 C 847.667969 714.824219 812.195312 800.382812 748.160156 862.078125 C 686.464844 926.113281 600.90625 961.589844 512 960 C 423.09375 961.589844 337.535156 926.113281 275.839844 862.078125 C 211.804688 800.382812 176.332031 714.824219 177.921875 625.921875 C 178.457031 562.785156 196.875 501.09375 231.039062 448 L 271.359375 389.121094 C 296.320312 352 320 320 337.28125 289.28125 C 360.589844 251.574219 381.949219 212.695312 401.28125 172.800781 C 423.425781 130.757812 441.84375 86.859375 456.320312 41.601562 C 460.046875 29.097656 467.957031 18.253906 478.71875 10.878906 C 497.980469 -2.417969 523.460938 -2.417969 542.71875 10.878906 C 553.679688 18.050781 561.644531 28.972656 565.121094 41.601562 C 579.285156 86.984375 597.269531 131.089844 618.878906 173.441406 C 638.089844 213.191406 659.453125 251.859375 682.878906 289.28125 C 702.078125 319.359375 723.839844 353.28125 746.878906 387.839844 L 787.199219 446.71875 C 821.929688 500.03125 840.386719 562.296875 840.320312 625.921875 Z M 846.078125 625.921875 " />
</svg>