<svg xmlns="http://www.w3.org/2000/svg" viewBox="0 0 1024 1024">
  <path fill="currentColor" d="M 832 195.199219 C 656.578125 21.5625 373.753906 22.527344 199.515625 197.355469 C 25.28125 372.1875 25.28125 655.011719 199.515625 829.84375 C 373.753906 1004.671875 656.578125 1005.636719 832 832 C 917.007812 747.855469 964.839844 633.210938 964.839844 513.601562 C 964.839844 393.988281 917.007812 279.34375 832 195.199219 Z M 256 256 C 324.0625 188.789062 416.359375 151.871094 512 153.601562 C 526.804688 154.109375 541.554688 155.605469 556.160156 158.078125 L 556.160156 248.960938 C 556.332031 276.738281 545.414062 303.4375 525.832031 323.140625 C 506.25 342.84375 479.617188 353.921875 451.839844 353.921875 L 399.359375 353.921875 C 360.023438 350.839844 322.28125 370.085938 301.667969 403.730469 C 281.058594 437.378906 281.058594 479.742188 301.667969 513.386719 C 322.28125 547.035156 360.023438 566.277344 399.359375 563.199219 L 608.640625 563.199219 C 650.058594 562.679688 689.164062 582.234375 713.601562 615.679688 C 743.558594 649.445312 775.394531 681.496094 808.960938 711.679688 C 797.433594 731.914062 783.699219 750.800781 768 768 C 720.726562 815.21875 661.03125 848.0625 595.839844 862.71875 L 451.839844 707.839844 C 422.945312 682.117188 385.5625 667.988281 346.878906 668.160156 L 192 668.160156 C 122.960938 531.230469 148.6875 365.546875 256 256 Z M 256 256 " />
</svg>