<svg xmlns="http://www.w3.org/2000/svg" viewBox="0 0 1024 1024">
  <path fill="currentColor" d="M 851.417969 401.382812 C 891.355469 525.351562 863.707031 666.664062 765.464844 764.964844 C 697.816406 832.613281 607.769531 869.863281 512.027344 869.863281 C 416.28125 869.863281 326.296875 832.613281 258.585938 764.964844 C 118.875 625.125 118.875 397.796875 258.585938 258.085938 C 326.296875 190.308594 416.28125 153.0625 512.027344 153.0625 C 547.035156 153.0625 580.761719 159.71875 613.402344 169.320312 L 613.402344 75.558594 C 580.058594 67.8125 546.074219 63.527344 512.027344 63.527344 C 397.402344 63.527344 282.714844 107.238281 195.226562 194.726562 C 20.25 369.636719 20.25 653.351562 195.226562 828.261719 C 282.714844 915.6875 397.402344 959.527344 512.027344 959.527344 C 626.714844 959.527344 741.335938 915.6875 828.824219 828.261719 C 944.601562 712.550781 983.320312 549.351562 945.882812 401.382812 Z M 899.746094 124.117188 L 899.746094 0.0390625 L 827.851562 0.0390625 L 827.851562 124.117188 L 703.769531 124.117188 L 703.769531 196.195312 L 827.851562 196.195312 L 827.851562 320.039062 L 899.746094 320.039062 L 899.746094 196.195312 L 1023.769531 196.195312 L 1023.769531 124.117188 Z M 253.210938 573.992188 C 264.34375 620.261719 287.066406 664.230469 323.160156 700.390625 C 375.320312 752.488281 443.671875 778.597656 512.027344 778.597656 C 580.441406 778.597656 648.730469 752.488281 700.890625 700.390625 C 736.984375 664.230469 759.707031 620.261719 770.839844 573.992188 L 689.5625 573.992188 C 680.472656 599.910156 666.203125 624.359375 645.59375 645.09375 C 609.945312 680.742188 562.457031 700.390625 512.027344 700.390625 C 461.59375 700.390625 414.167969 680.742188 378.457031 645.09375 C 357.785156 624.359375 343.578125 599.910156 334.554688 573.992188 Z M 557.144531 381.992188 C 557.144531 417.382812 585.816406 445.992188 621.144531 445.992188 C 656.539062 445.992188 685.144531 417.382812 685.144531 381.992188 C 685.144531 346.664062 656.539062 317.992188 621.144531 317.992188 C 585.816406 317.992188 557.144531 346.664062 557.144531 381.992188 Z M 466.457031 381.992188 C 466.457031 346.664062 437.847656 317.992188 402.457031 317.992188 C 367.128906 317.992188 338.457031 346.664062 338.457031 381.992188 C 338.457031 417.382812 367.128906 445.992188 402.457031 445.992188 C 437.847656 445.992188 466.457031 417.382812 466.457031 381.992188 Z M 466.457031 381.992188 " />
</svg>