<svg xmlns="http://www.w3.org/2000/svg" viewBox="0 0 1024 1024">
  <path fill="currentColor" d="M 689.566406 574.523438 C 680.480469 600.378906 666.273438 624.890625 645.601562 645.496094 C 609.886719 681.210938 562.527344 700.921875 512.03125 700.921875 C 461.535156 700.921875 414.113281 681.210938 378.464844 645.496094 C 357.792969 624.890625 343.585938 600.378906 334.496094 574.523438 L 253.214844 574.523438 C 264.289062 620.792969 287.070312 664.761719 323.167969 700.921875 C 375.328125 752.953125 443.679688 779.066406 512.03125 779.066406 C 580.382812 779.066406 648.734375 752.953125 700.894531 700.921875 C 736.992188 664.761719 759.710938 620.792969 770.847656 574.523438 Z M 765.472656 765.433594 C 697.761719 833.144531 607.777344 870.394531 512.03125 870.394531 C 416.289062 870.394531 326.304688 833.144531 258.59375 765.433594 C 118.878906 625.65625 118.878906 398.328125 258.59375 258.554688 C 326.304688 190.839844 416.289062 153.59375 512.03125 153.59375 C 607.777344 153.59375 697.761719 190.839844 765.472656 258.554688 C 905.183594 398.328125 905.183594 625.65625 765.472656 765.433594 Z M 828.832031 195.195312 C 741.34375 107.769531 626.71875 63.992188 512.03125 63.992188 C 397.40625 63.992188 282.71875 107.769531 195.230469 195.195312 C 20.257812 370.167969 20.257812 653.816406 195.230469 828.792969 C 282.71875 916.21875 397.40625 959.992188 512.03125 959.992188 C 626.71875 959.992188 741.34375 916.21875 828.832031 828.792969 C 1003.808594 653.816406 1003.808594 370.167969 828.832031 195.195312 Z M 402.71875 446.523438 C 438.046875 446.523438 466.71875 417.914062 466.71875 382.523438 C 466.71875 347.128906 438.046875 318.523438 402.71875 318.523438 C 367.328125 318.523438 338.71875 347.128906 338.71875 382.523438 C 338.71875 417.914062 367.328125 446.523438 402.71875 446.523438 Z M 621.40625 446.523438 C 656.734375 446.523438 685.40625 417.914062 685.40625 382.523438 C 685.40625 347.128906 656.734375 318.523438 621.40625 318.523438 C 586.015625 318.523438 557.40625 347.128906 557.40625 382.523438 C 557.40625 417.914062 586.015625 446.523438 621.40625 446.523438 Z M 621.40625 446.523438 " />
</svg>