<svg xmlns="http://www.w3.org/2000/svg" viewBox="0 0 1024 1024">
  <path fill="currentColor" d="M 766.71875 19.199219 L 450.558594 19.199219 C 353.921875 19.199219 275.199219 97.921875 275.199219 194.558594 L 275.199219 320 L 364.800781 320 L 364.800781 194.558594 C 364.800781 147.199219 403.199219 108.800781 450.558594 108.800781 L 766.71875 108.800781 C 814.078125 108.800781 852.480469 147.199219 852.480469 194.558594 L 852.480469 828.800781 C 852.480469 876.160156 814.078125 914.558594 766.71875 914.558594 L 450.558594 914.558594 C 403.199219 914.558594 364.800781 876.160156 364.800781 828.800781 L 364.800781 704 L 275.199219 704 L 275.199219 829.441406 C 275.199219 926.078125 353.921875 1004.800781 450.558594 1004.800781 L 766.71875 1004.800781 C 863.359375 1004.800781 942.078125 926.078125 942.078125 829.441406 L 942.078125 194.558594 C 942.078125 97.921875 863.359375 19.199219 766.71875 19.199219 Z M 512 768 L 768 512 L 512 256 L 512 467.199219 L 64 467.199219 L 64 556.800781 L 512 556.800781 Z M 512 768 " />
</svg>