<svg xmlns="http://www.w3.org/2000/svg" viewBox="0 0 1024 1024">
  <path fill="currentColor" d="M 791.039062 64 L 232.960938 64 C 139.644531 64 64 139.644531 64 232.960938 L 64 791.039062 C 64 884.355469 139.644531 960 232.960938 960 L 791.039062 960 C 884.355469 960 960 884.355469 960 791.039062 L 960 232.960938 C 960 139.644531 884.355469 64 791.039062 64 Z M 870.398438 791.039062 C 870.050781 834.722656 834.722656 870.050781 791.039062 870.398438 L 232.960938 870.398438 C 189.277344 870.050781 153.949219 834.722656 153.601562 791.039062 L 153.601562 232.960938 C 153.949219 189.277344 189.277344 153.949219 232.960938 153.601562 L 791.039062 153.601562 C 834.722656 153.949219 870.050781 189.277344 870.398438 232.960938 Z M 556.800781 256 L 467.199219 256 L 467.199219 467.839844 L 256 467.839844 L 256 557.441406 L 467.199219 557.441406 L 467.199219 768 L 556.800781 768 L 556.800781 557.441406 L 768 557.441406 L 768 467.839844 L 556.800781 467.839844 Z M 556.800781 256 " />
</svg>