<svg xmlns="http://www.w3.org/2000/svg" viewBox="0 0 1024 1024">
  <path fill="currentColor" d="M 870.398438 406.527344 L 921.601562 355.328125 L 885.246094 318.976562 L 704.511719 138.753906 L 668.160156 102.398438 L 616.960938 153.601562 L 653.3125 189.953125 L 464.382812 378.367188 L 181.246094 435.199219 L 102.398438 451.070312 L 572.929688 921.601562 L 645.632812 559.617188 L 834.558594 370.175781 Z M 665.601562 435.199219 L 508.929688 435.199219 L 704.511719 240.128906 L 783.871094 319.488281 Z M 716.800781 819.199219 C 716.800781 875.753906 762.644531 921.601562 819.199219 921.601562 C 875.753906 921.601562 921.601562 875.753906 921.601562 819.199219 C 921.601562 762.878906 819.199219 634.878906 819.199219 634.878906 C 819.199219 634.878906 716.800781 762.878906 716.800781 819.199219 Z M 716.800781 819.199219 " />
</svg>