<svg xmlns="http://www.w3.org/2000/svg" viewBox="0 0 1024 1024">
  <path fill="currentColor" d="M 1005.441406 497.28125 C 927.359375 293.121094 730.238281 158.71875 512 160.640625 C 291.839844 156.160156 93.441406 291.199219 17.921875 497.921875 C 15.359375 507.519531 15.359375 517.121094 17.921875 526.078125 C 94.078125 732.160156 292.480469 867.199219 512 863.359375 C 730.878906 865.28125 927.359375 730.878906 1006.078125 526.71875 C 1008.640625 517.121094 1008.640625 506.878906 1005.441406 497.28125 Z M 512 768.640625 C 339.199219 775.039062 180.480469 672 115.199219 512 C 179.839844 351.359375 338.558594 248.960938 512 255.359375 C 684.160156 251.519531 841.601562 353.28125 908.160156 512 C 840.960938 670.71875 684.160156 772.480469 512 768.640625 Z M 512 342.398438 C 500.480469 342.398438 488.960938 343.679688 478.078125 346.238281 C 494.71875 368.640625 503.679688 395.519531 503.679688 423.679688 C 500.480469 503.679688 433.28125 565.121094 353.28125 561.921875 C 352.640625 561.921875 351.359375 561.921875 350.71875 561.921875 L 346.238281 561.921875 C 373.121094 652.160156 467.839844 703.359375 558.078125 676.480469 C 648.320312 649.601562 699.519531 554.878906 672.640625 464.640625 C 651.519531 392.320312 586.238281 343.039062 512 342.398438 Z M 512 342.398438 " />
</svg>