<svg xmlns="http://www.w3.org/2000/svg" xmlns:xlink="http://www.w3.org/1999/xlink" viewBox="0 0 1024 1024">
  <defs>
    <linearGradient id="linear0" gradientUnits="userSpaceOnUse" x1="0.16835" y1="0.63497" x2="1.59599" y2="0.19863" gradientTransform="matrix(185.843079,16.259163,-12.963155,148.169545,793.165507,163.137209)">
      <stop offset="0" style="stop-color:rgb(96.470588%,60%,13.72549%);stop-opacity:1;" />
      <stop offset="0.3123" style="stop-color:rgb(96.862745%,60.392157%,13.72549%);stop-opacity:1;" />
      <stop offset="0.8383" style="stop-color:rgb(91.372549%,47.058824%,14.901961%);stop-opacity:1;" />
    </linearGradient>
    <filter id="alpha" filterUnits="objectBoundingBox" x="0%" y="0%" width="100%" height="100%">
      <feColorMatrix type="matrix" in="SourceGraphic" values="0 0 0 0 1 0 0 0 0 1 0 0 0 0 1 0 0 0 1 0" />
    </filter>
    <mask id="mask0">
      <g filter="url(#alpha)">
        <rect x="0" y="0" width="1024" height="1024" style="fill:rgb(0%,0%,0%);fill-opacity:0.34902;stroke:none;" />
      </g>
    </mask>
    <clipPath id="clip1">
      <rect x="0" y="0" width="1024" height="1024" />
    </clipPath>
    <g id="surface5" clip-path="url(#clip1)">
      <path style=" stroke:none;fill-rule:nonzero;fill:rgb(74.509804%,12.54902%,18.039216%);fill-opacity:1;" d="M 755.109375 647.773438 C 742.15625 653.519531 728.171875 659.171875 713.886719 668.238281 C 721.394531 665.457031 727.871094 662.585938 735.378906 659.804688 C 742.15625 653.519531 748.632812 650.648438 755.109375 647.773438 Z M 755.109375 647.773438 " />
    </g>
    <mask id="mask1">
      <g filter="url(#alpha)">
        <rect x="0" y="0" width="1024" height="1024" style="fill:rgb(0%,0%,0%);fill-opacity:0.34902;stroke:none;" />
      </g>
    </mask>
    <clipPath id="clip2">
      <rect x="0" y="0" width="1024" height="1024" />
    </clipPath>
    <g id="surface8" clip-path="url(#clip2)">
      <path style=" stroke:none;fill-rule:nonzero;fill:rgb(74.509804%,12.54902%,18.039216%);fill-opacity:1;" d="M 743.890625 612.714844 C 746.5 612.941406 749.109375 613.171875 752.015625 609.984375 C 762.75 607.488281 773.785156 601.574219 784.519531 599.074219 C 771.175781 601.347656 757.535156 607.03125 743.890625 612.714844 Z M 743.890625 612.714844 " />
    </g>
    <linearGradient id="linear1" gradientUnits="userSpaceOnUse" x1="-2.17367" y1="3.9412" x2="0.74968" y2="0.13671" gradientTransform="matrix(204.657746,17.905233,-22.476005,256.901917,637.756786,234.934316)">
      <stop offset="0.3233" style="stop-color:rgb(61.960784%,12.54902%,39.215686%);stop-opacity:1;" />
      <stop offset="0.6302" style="stop-color:rgb(78.823529%,12.54902%,21.568627%);stop-opacity:1;" />
      <stop offset="0.7514" style="stop-color:rgb(80.392157%,13.72549%,20.784314%);stop-opacity:1;" />
      <stop offset="1" style="stop-color:rgb(91.372549%,47.058824%,14.901961%);stop-opacity:1;" />
    </linearGradient>
    <linearGradient id="linear2" gradientUnits="userSpaceOnUse" x1="-0.20305" y1="1.92631" x2="1.25697" y2="-1.36581" gradientTransform="matrix(229.397879,20.069714,-12.213147,139.596908,424.007244,809.074892)">
      <stop offset="0" style="stop-color:rgb(15.686275%,14.901961%,38.431373%);stop-opacity:1;" />
      <stop offset="0.09548" style="stop-color:rgb(40%,18.039216%,55.294118%);stop-opacity:1;" />
      <stop offset="0.7882" style="stop-color:rgb(62.352941%,12.54902%,39.215686%);stop-opacity:1;" />
      <stop offset="0.9487" style="stop-color:rgb(80.392157%,12.54902%,19.607843%);stop-opacity:1;" />
    </linearGradient>
    <linearGradient id="linear3" gradientUnits="userSpaceOnUse" x1="-0.79867" y1="1.70503" x2="1.46442" y2="-0.44384" gradientTransform="matrix(286.651381,25.078746,-39.460788,451.038875,425.160563,390.734158)">
      <stop offset="0.3233" style="stop-color:rgb(61.960784%,12.54902%,39.215686%);stop-opacity:1;" />
      <stop offset="0.6302" style="stop-color:rgb(78.823529%,12.54902%,21.568627%);stop-opacity:1;" />
      <stop offset="0.7514" style="stop-color:rgb(80.392157%,13.72549%,20.784314%);stop-opacity:1;" />
      <stop offset="1" style="stop-color:rgb(91.372549%,47.058824%,14.901961%);stop-opacity:1;" />
    </linearGradient>
    <linearGradient id="linear4" gradientUnits="userSpaceOnUse" x1="-0.18376" y1="0.77298" x2="1.64728" y2="-0.4136" gradientTransform="matrix(126.486185,11.066107,-23.246788,265.712003,357.749442,754.870711)">
      <stop offset="0" style="stop-color:rgb(15.686275%,14.901961%,38.431373%);stop-opacity:1;" />
      <stop offset="0.09548" style="stop-color:rgb(40%,18.039216%,55.294118%);stop-opacity:1;" />
      <stop offset="0.7882" style="stop-color:rgb(62.352941%,12.54902%,39.215686%);stop-opacity:1;" />
      <stop offset="0.9487" style="stop-color:rgb(80.392157%,12.54902%,19.607843%);stop-opacity:1;" />
    </linearGradient>
    <linearGradient id="linear5" gradientUnits="userSpaceOnUse" x1="-0.34831" y1="1.87637" x2="1.10897" y2="-0.51127" gradientTransform="matrix(414.586374,36.271608,-34.996842,400.015737,473.80289,452.049687)">
      <stop offset="0.3233" style="stop-color:rgb(61.960784%,12.54902%,39.215686%);stop-opacity:1;" />
      <stop offset="0.6302" style="stop-color:rgb(78.823529%,12.54902%,21.568627%);stop-opacity:1;" />
      <stop offset="0.7514" style="stop-color:rgb(80.392157%,13.72549%,20.784314%);stop-opacity:1;" />
      <stop offset="1" style="stop-color:rgb(91.372549%,47.058824%,14.901961%);stop-opacity:1;" />
    </linearGradient>
    <linearGradient id="linear6" gradientUnits="userSpaceOnUse" x1="-1.29474" y1="4.65394" x2="0.66599" y2="0.17067" gradientTransform="matrix(293.499755,25.677901,-18.638373,213.037576,683.303684,285.052417)">
      <stop offset="0.3233" style="stop-color:rgb(61.960784%,12.54902%,39.215686%);stop-opacity:1;" />
      <stop offset="0.6302" style="stop-color:rgb(78.823529%,12.54902%,21.568627%);stop-opacity:1;" />
      <stop offset="0.7514" style="stop-color:rgb(80.392157%,13.72549%,20.784314%);stop-opacity:1;" />
      <stop offset="1" style="stop-color:rgb(91.372549%,47.058824%,14.901961%);stop-opacity:1;" />
    </linearGradient>
  </defs>
  <g id="surface1">
    <path style=" stroke:none;fill-rule:evenodd;fill:rgb(60.392157%,65.490196%,69.019608%);fill-opacity:0.8;" d="M 448 64 L 192 320 L 448 320 Z M 448 64 " />
    <path style=" stroke:none;fill-rule:evenodd;fill:rgb(60.392157%,65.490196%,69.019608%);fill-opacity:0.8;" d="M 361.296875 960 L 192 960 L 192 384 L 512 384 L 512 64 L 832 64 L 832 129.460938 C 752.28125 191.054688 657.582031 289.609375 552.703125 412.71875 C 371.523438 625.390625 330.484375 867.699219 367.03125 948.746094 Z M 832 648.578125 L 832 960 L 562.488281 960 C 653.414062 906.464844 757.488281 796.84375 832 648.578125 Z M 832 648.578125 " />
    <path style=" stroke:none;fill-rule:nonzero;fill:url(#linear0);" d="M 886.085938 181.714844 C 866.246094 189.863281 832.929688 214.4375 791.832031 250.996094 L 821.34375 310.410156 C 847.875 282.464844 874.839844 257.640625 901.457031 236.804688 C 903.375 235.117188 904.507812 234.292969 904.507812 234.292969 C 903.375 235.117188 902.589844 235.976562 901.457031 236.804688 C 892.699219 243.761719 866.300781 266.160156 825.804688 312.039062 C 861.089844 313.578125 915.757812 312.183594 960.285156 309.285156 C 978.894531 246.359375 955.460938 214.65625 955.460938 214.65625 C 955.460938 214.65625 926.496094 165.175781 886.085938 181.714844 Z M 886.085938 181.714844 " />
    <path style=" stroke:none;fill-rule:nonzero;fill:rgb(74.509804%,12.54902%,18.039216%);fill-opacity:1;" d="M 755.109375 647.773438 C 742.15625 653.519531 728.171875 659.171875 713.886719 668.238281 C 721.394531 665.457031 727.871094 662.585938 735.378906 659.804688 C 742.15625 653.519531 748.632812 650.648438 755.109375 647.773438 Z M 755.109375 647.773438 " />
    <use xlink:href="#surface5" mask="url(#mask0)" />
    <path style=" stroke:none;fill-rule:nonzero;fill:rgb(74.509804%,12.54902%,18.039216%);fill-opacity:1;" d="M 743.890625 612.714844 C 746.5 612.941406 749.109375 613.171875 752.015625 609.984375 C 762.75 607.488281 773.785156 601.574219 784.519531 599.074219 C 771.175781 601.347656 757.535156 607.03125 743.890625 612.714844 Z M 743.890625 612.714844 " />
    <use xlink:href="#surface8" mask="url(#mask1)" />
    <path style=" stroke:none;fill-rule:nonzero;fill:url(#linear1);" d="M 707.375 447.15625 C 719.394531 431.21875 731.414062 415.28125 743.351562 400.265625 C 756.074219 384.390625 768.394531 369.097656 781.359375 354.480469 C 782.144531 353.621094 782.925781 352.765625 783.710938 351.90625 C 796.300781 337.5625 808.863281 323.527344 821.34375 310.410156 L 791.832031 250.996094 C 789.128906 253.539062 786.074219 256.054688 783.375 258.597656 C 772.59375 268.464844 761.378906 279.21875 749.761719 290.558594 C 736.605469 303.308594 723.367188 316.972656 709.34375 331.5 C 696.484375 344.890625 683.597656 358.589844 670.632812 373.207031 C 659.636719 385.527344 648.613281 398.15625 637.539062 411.394531 C 637.132812 411.976562 636.753906 412.25 636.351562 412.832031 L 674.257812 493.679688 C 685.226562 477.648438 696.136719 462.234375 707.375 447.15625 Z M 707.375 447.15625 " />
    <path style=" stroke:none;fill-rule:nonzero;fill:url(#linear2);" d="M 466.339844 862.195312 C 459.128906 875.773438 451.894531 889.65625 444.632812 903.847656 C 444.605469 904.15625 444.605469 904.15625 444.226562 904.429688 C 443.335938 906.515625 442.09375 908.566406 441.230469 910.347656 C 436.503906 919.816406 432.210938 928.398438 422.332031 948.226562 C 434.878906 954.578125 555.210938 939.46875 587.652344 900.609375 C 590.4375 897.144531 593.246094 893.375 595.703125 889.574219 C 581.4375 902.84375 564.378906 907.53125 533.90625 903.628906 C 580.425781 890.09375 604.398438 875.203125 626.902344 848.753906 C 632.0625 842.410156 637.597656 835.789062 642.867188 828.222656 C 600.414062 860.027344 553.832031 866.144531 506.347656 854.269531 L 469.847656 854.472656 C 469.253906 857.199219 467.609375 859.835938 466.339844 862.195312 Z M 466.339844 862.195312 " />
    <path style=" stroke:none;fill-rule:nonzero;fill:url(#linear3);" d="M 489.351562 793.476562 C 498.613281 776.683594 508.253906 759.609375 517.921875 742.234375 C 527.15625 725.746094 536.742188 709.285156 546.707031 692.550781 C 556.671875 675.816406 566.609375 659.390625 576.574219 642.65625 C 586.917969 625.648438 597.609375 608.667969 608.277344 591.996094 C 618.945312 575.324219 629.585938 558.957031 640.578125 542.621094 C 644.628906 536.800781 648.332031 530.945312 652.382812 525.121094 C 659.296875 514.917969 666.183594 505.015625 673.070312 495.117188 C 673.476562 494.535156 673.882812 493.953125 674.257812 493.679688 L 636.375 412.527344 C 635.59375 413.386719 634.78125 414.550781 634 415.40625 C 622.167969 429.199219 610.632812 443.632812 599.097656 458.066406 C 587.539062 472.808594 575.949219 487.855469 564.710938 502.933594 C 555.097656 515.683594 545.804688 528.769531 536.867188 541.886719 C 534.867188 544.492188 533.21875 547.128906 531.570312 549.765625 C 520.203125 566.375 509.9375 582.464844 500.785156 598.035156 C 490.035156 615.625 480.773438 632.421875 472.296875 648.359375 C 466.761719 658.996094 461.632812 669.046875 456.878906 678.824219 C 452.964844 687.128906 449.375 695.773438 445.8125 704.109375 C 437.363281 723.757812 429.945312 743.800781 423.253906 763.601562 L 461.109375 845.058594 C 468.292969 831.789062 475.5 818.210938 483.0625 804.664062 C 485.140625 801.140625 487.246094 797.308594 489.351562 793.476562 Z M 489.351562 793.476562 " />
    <path style=" stroke:none;fill-rule:nonzero;fill:url(#linear4);" d="M 422.28125 766.605469 C 414.484375 790.941406 408.472656 815.128906 404.21875 839.464844 C 404.140625 840.382812 393.527344 922.683594 398.773438 938.136719 C 389.566406 956.21875 375.625 984.355469 356.953125 1022.546875 L 374.242188 1016.140625 C 396.003906 972.199219 413.296875 937.835938 426.117188 913.039062 C 428.222656 909.207031 429.980469 905.347656 432.085938 901.515625 C 432.542969 900.320312 433.328125 899.460938 433.785156 898.265625 C 441.023438 884.382812 448.664062 869.917969 456.304688 855.449219 C 458.003906 852.199219 459.707031 848.953125 461.785156 845.425781 C 461.785156 845.425781 449.167969 818.273438 423.929688 763.972656 C 422.769531 765.105469 422.6875 766.023438 422.28125 766.605469 Z M 422.28125 766.605469 " />
    <path style=" stroke:none;fill-rule:nonzero;fill:url(#linear5);" d="M 680.753906 500.421875 C 679.160156 502.445312 677.890625 504.804688 676.269531 507.136719 C 671.785156 513.847656 667.304688 520.558594 662.820312 527.269531 C 657.90625 534.871094 652.988281 542.472656 647.695312 550.347656 C 645.238281 554.148438 642.402344 558.226562 639.917969 562.332031 C 632.140625 574.316406 624.308594 586.910156 616.097656 599.785156 C 606.214844 615.597656 596.277344 632.027344 585.90625 649.339844 C 575.96875 665.769531 566.003906 682.503906 555.957031 700.15625 C 546.34375 716.921875 536.707031 733.992188 526.660156 751.644531 C 517.832031 767.554688 508.972656 783.765625 499.738281 800.253906 C 499.308594 801.144531 498.902344 801.726562 498.46875 802.613281 C 489.585938 819.136719 480.296875 836.238281 471.335938 853.675781 C 471.308594 853.984375 470.902344 854.566406 470.875 854.871094 L 507.375 854.667969 C 506.671875 854.605469 505.996094 854.238281 505.292969 854.175781 C 548.929688 853.359375 608.691406 830.171875 648.628906 798.765625 C 667.25 784.332031 684.378906 766.679688 700.367188 745.839844 C 712.359375 730.210938 724.136719 713.015625 735.398438 693.617188 C 745.390625 676.578125 855.402344 487.90625 856.320312 485.515625 C 855.328125 486.042969 796.96875 490.515625 681.238281 498.921875 C 681.15625 499.839844 680.78125 500.117188 680.753906 500.421875 Z M 680.753906 500.421875 " />
    <path style=" stroke:none;fill-rule:nonzero;fill:url(#linear6);" d="M 825.480469 311.699219 C 814.109375 324.296875 801.871094 338.667969 788.390625 355.09375 C 787.605469 355.953125 786.824219 356.8125 786.390625 357.699219 C 774.882812 371.828125 762.539062 387.425781 749.710938 404.527344 C 738.5 419.300781 726.859375 434.960938 714.378906 452.09375 C 703.871094 466.925781 692.582031 482.617188 681.183594 499.535156 C 796.875 490.921875 855.246094 486.335938 856.304688 485.785156 C 857.3125 485.257812 900.285156 416.15625 911.980469 399.882812 C 923.296875 383.886719 933.535156 368.101562 941.527344 353.667969 C 946.574219 344.535156 950.867188 335.953125 953.648438 328.472656 C 956.347656 321.914062 958.34375 315.292969 960.285156 309.285156 C 915.433594 311.847656 860.765625 313.242188 825.480469 311.699219 Z M 825.480469 311.699219 " />
  </g>
</svg>