<svg xmlns="http://www.w3.org/2000/svg" viewBox="0 0 1024 1024">
  <path style=" stroke:none;fill-rule:evenodd;fill:rgb(94.901961%,39.607843%,13.333333%);fill-opacity:0.701961;" d="M 64 1024 L 1024 1024 L 1024 576 L 64 576 Z M 64 1024 " />
  <path style=" stroke:none;fill-rule:evenodd;fill:rgb(60.392157%,65.490196%,69.019608%);fill-opacity:0.8;" d="M 448 64 L 192 320 L 448 320 Z M 448 64 " />
  <path style=" stroke:none;fill-rule:evenodd;fill:rgb(60.392157%,65.490196%,69.019608%);fill-opacity:0.8;" d="M 512 64 L 512 384 L 192 384 L 192 512 L 832 512 L 832 64 Z M 512 64 " />
  <path style=" stroke:none;fill-rule:evenodd;fill:rgb(13.72549%,12.156863%,12.54902%);fill-opacity:0.701961;" d="M 192 704 L 192 896 L 233.535156 896 C 292.992188 896 320 863.550781 320 800.960938 L 320 800 C 320 737.40625 292.992188 704 233.535156 704 Z M 128 640 L 233.535156 640 C 322.558594 640 384 709.953125 384 800 C 384 890.945312 322.558594 960 233.535156 960 L 128 960 Z M 128 640 " />
  <path style=" stroke:none;fill-rule:evenodd;fill:rgb(13.72549%,12.156863%,12.54902%);fill-opacity:0.701961;" d="M 768 704 L 768 896 L 809.535156 896 C 868.992188 896 896 863.550781 896 800.960938 L 896 800 C 896 737.40625 868.992188 704 809.535156 704 Z M 704 640 L 809.535156 640 C 898.558594 640 960 709.953125 960 800 C 960 890.945312 898.558594 960 809.535156 960 L 704 960 Z M 704 640 " />
  <path style=" stroke:none;fill-rule:evenodd;fill:rgb(13.72549%,12.156863%,12.54902%);fill-opacity:0.701961;" d="M 512 704 L 416 704 L 416 640 L 672 640 L 672 704 L 576 704 L 576 960 L 512 960 Z M 512 704 " />
</svg>