<svg xmlns="http://www.w3.org/2000/svg" viewBox="0 0 1024 1024">
  <path style=" stroke:none;fill-rule:evenodd;fill:rgb(97.647059%,54.509804%,61.960784%);fill-opacity:0.701961;" d="M 64 1024 L 1024 1024 L 1024 576 L 64 576 Z M 64 1024 " />
  <path style=" stroke:none;fill-rule:evenodd;fill:rgb(60.392157%,65.490196%,69.019608%);fill-opacity:0.8;" d="M 448 64 L 192 320 L 448 320 Z M 448 64 " />
  <path style=" stroke:none;fill-rule:evenodd;fill:rgb(60.392157%,65.490196%,69.019608%);fill-opacity:0.8;" d="M 512 64 L 512 384 L 192 384 L 192 512 L 832 512 L 832 64 Z M 512 64 " />
  <path style=" stroke:none;fill-rule:evenodd;fill:rgb(13.72549%,12.156863%,12.54902%);fill-opacity:0.701961;" d="M 257.273438 961.023438 C 160.480469 961.023438 96.832031 892.070312 96.832031 801.90625 L 96.832031 801.023438 C 96.832031 714.394531 163.128906 641.023438 256.390625 641.023438 C 310.3125 641.023438 343.460938 656.050781 375.285156 683.015625 L 340.808594 724.113281 C 316.941406 704.230469 293.515625 691.410156 254.179688 691.410156 C 197.164062 691.410156 153.847656 740.914062 153.847656 800.140625 L 153.847656 801.023438 C 153.847656 864.671875 195.835938 911.519531 259.042969 911.519531 C 288.214844 911.519531 314.734375 902.238281 333.738281 888.097656 L 333.738281 830.636719 L 254.621094 830.636719 L 254.621094 782.898438 L 386.335938 782.898438 L 386.335938 912.84375 C 355.835938 938.925781 312.082031 961.023438 257.273438 961.023438 Z M 257.273438 961.023438 " />
  <path style=" stroke:none;fill-rule:evenodd;fill:rgb(13.72549%,12.156863%,12.54902%);fill-opacity:0.701961;" d="M 736.824219 925.292969 L 701.9375 964.152344 L 664.84375 931.035156 C 638.789062 949.582031 606.554688 960.179688 570.785156 960.179688 C 475.839844 960.179688 409.597656 888.199219 409.597656 801.203125 C 409.597656 713.324219 476.722656 640.460938 571.667969 640.460938 C 666.609375 640.460938 732.851562 712.441406 732.851562 799.4375 C 732.851562 835.648438 721.371094 868.328125 701.496094 895.265625 Z M 571.640625 903.4375 C 590.710938 903.4375 607.296875 898.859375 621.804688 890.546875 L 571.640625 847.300781 L 607.59375 806.679688 L 658.585938 853.253906 C 667.710938 837.453125 669.484375 821.9375 669.484375 801.152344 L 669.484375 800.320312 C 669.484375 743.769531 628.441406 697.203125 570.8125 697.203125 C 513.183594 697.203125 473.597656 742.9375 473.597656 799.488281 L 473.597656 800.320312 C 473.597656 856.871094 514.011719 903.4375 571.640625 903.4375 Z M 571.640625 903.4375 " />
  <path style=" stroke:none;fill-rule:evenodd;fill:rgb(13.72549%,12.156863%,12.54902%);fill-opacity:0.701961;" d="M 768 640 L 832 640 L 832 896 L 992 896 L 992 960 L 768 960 Z M 768 640 " />
</svg>