<svg xmlns="http://www.w3.org/2000/svg" xmlns:xlink="http://www.w3.org/1999/xlink" viewBox="0 0 1024 1024" version="1.1">
  <g id="surface1">
    <path style=" stroke:none;fill-rule:evenodd;fill:rgb(95.686275%,68.627451%,23.921569%);fill-opacity:0.701961;" d="M 64 1024 L 1024 1024 L 1024 576 L 64 576 Z M 64 1024 " />
    <path style=" stroke:none;fill-rule:evenodd;fill:rgb(60.392157%,65.490196%,69.019608%);fill-opacity:0.8;" d="M 448 64 L 192 320 L 448 320 Z M 448 64 " />
    <path style=" stroke:none;fill-rule:evenodd;fill:rgb(60.392157%,65.490196%,69.019608%);fill-opacity:0.8;" d="M 512 64 L 512 384 L 192 384 L 192 512 L 832 512 L 832 64 Z M 512 64 " />
    <path style=" stroke:none;fill-rule:evenodd;fill:rgb(13.72549%,12.156863%,12.54902%);fill-opacity:0.701961;" d="M 416 640 L 313.601562 796.800781 L 416 960 L 339.199219 960 L 272 837.953125 L 204.800781 960 L 128 960 L 230.398438 796.800781 L 128 640 L 204.800781 640 L 272 756.097656 L 339.199219 640 Z M 416 640 " />
    <path style=" stroke:none;fill-rule:evenodd;fill:rgb(13.72549%,12.156863%,12.54902%);fill-opacity:0.701961;" d="M 510.257812 736.097656 C 510.257812 712.515625 530.175781 704 566.078125 704 C 566.421875 704 591.0625 704 640 704 L 640 640 C 592.8125 640 568.492188 640 567.039062 640 C 497.792969 640 448 669.386719 448 732.800781 C 448 788.128906 474.851562 812.191406 542.160156 826.628906 C 591.460938 837.203125 607.753906 846.632812 607.753906 867.070312 C 607.753906 887.511719 584.859375 896 542.160156 896 C 541.476562 896 516.492188 896 467.199219 896 L 467.199219 960 C 516.832031 960 541.820312 960 542.160156 960 C 672 960 672 896 672 867.070312 C 672 826.628906 641.296875 794.925781 586.15625 777.398438 C 531.015625 759.871094 510.257812 759.679688 510.257812 736.097656 Z M 510.257812 736.097656 " />
  </g>
</svg>