<svg xmlns="http://www.w3.org/2000/svg" viewBox="0 0 1024 1024">
  <path style=" stroke:none;fill-rule:evenodd;fill:rgb(13.72549%,12.156863%,12.54902%);fill-opacity:0.701961;" d="M 538.625 889.375 C 538.625 879.328125 539.96875 852.382812 539.96875 840.929688 C 539.96875 788.449219 520.128906 766.945312 465.214844 766.945312 L 448 766.945312 L 448 704.992188 L 465.214844 704.992188 C 520.128906 704.992188 539.96875 682.785156 539.96875 630.304688 C 539.96875 618.847656 538.625 592.03125 538.625 581.855469 C 538.625 513.246094 568.449219 470.175781 688.960938 448.03125 L 702.785156 501.792969 C 623.359375 524.0625 612.800781 544.863281 612.800781 594.015625 C 612.800781 607.519531 614.144531 629.664062 614.144531 643.808594 C 614.144531 696.289062 588.992188 721.824219 545.28125 736.03125 C 589.632812 750.753906 614.144531 775.710938 614.144531 828.191406 C 614.144531 842.335938 612.800781 864.480469 612.800781 877.984375 C 612.800781 927.070312 623.359375 947.9375 702.785156 970.144531 L 688.960938 1024.03125 C 568.449219 1001.761719 538.625 958.6875 538.625 889.375 M 769.191406 970.125 C 848.613281 947.917969 859.175781 927.054688 859.175781 878.027344 C 859.175781 864.523438 857.894531 842.316406 857.894531 828.171875 C 857.894531 775.691406 882.980469 750.09375 926.695312 736.011719 C 882.40625 721.164062 857.894531 696.332031 857.894531 643.789062 C 857.894531 629.707031 859.175781 607.5 859.175781 593.996094 C 859.175781 544.84375 848.613281 524.042969 769.191406 501.835938 L 783.078125 448.011719 C 903.589844 470.15625 933.351562 513.230469 933.351562 581.902344 C 933.351562 592.011719 932.007812 618.894531 932.007812 630.285156 C 932.007812 682.828125 951.847656 704.972656 1006.824219 704.972656 L 1023.972656 704.972656 L 1023.972656 766.925781 L 1006.824219 766.925781 C 951.847656 766.925781 932.007812 788.429688 932.007812 840.910156 C 932.007812 852.363281 933.351562 879.308594 933.351562 889.355469 C 933.351562 958.667969 903.589844 1001.742188 783.078125 1024.011719 Z M 769.191406 970.125 " />
  <path style=" stroke:none;fill-rule:evenodd;fill:rgb(60.392157%,65.490196%,69.019608%);fill-opacity:0.8;" d="M 448 64 L 192 320 L 448 320 Z M 448 64 " />
  <path style=" stroke:none;fill-rule:evenodd;fill:rgb(60.392157%,65.490196%,69.019608%);fill-opacity:0.8;" d="M 678.125 828.1875 C 678.125 835.992188 677.421875 892.824219 677.804688 894.425781 C 677.804688 894.363281 677.933594 894.296875 677.933594 894.296875 C 679.851562 894.296875 735.980469 912.984375 735.980469 912.984375 C 735.980469 912.984375 791.789062 894.488281 795.179688 892.1875 C 794.734375 891.355469 793.902344 835.992188 793.902344 828.1875 C 793.902344 799.449219 799.597656 765.785156 819.757812 736.21875 C 802.539062 711.257812 793.902344 680.34375 793.902344 643.800781 C 793.902344 635.992188 794.539062 579.160156 794.15625 577.5625 C 794.15625 577.625 794.09375 577.625 794.09375 577.625 C 792.109375 577.625 735.980469 559 735.980469 559 C 735.980469 559 680.171875 577.496094 676.78125 579.738281 C 677.230469 580.632812 678.125 635.992188 678.125 643.800781 C 678.125 672.539062 672.363281 706.136719 652.269531 735.769531 C 669.421875 760.664062 678.125 791.578125 678.125 828.1875 " />
  <path style=" stroke:none;fill-rule:evenodd;fill:rgb(60.392157%,65.490196%,69.019608%);fill-opacity:0.8;" d="M 474.625 889.375 C 474.625 884 475.839844 833.824219 475.648438 831.390625 C 473.089844 831.136719 384 830.945312 384 830.945312 L 384 640.992188 C 384 640.992188 473.023438 640.800781 475.585938 640.480469 C 475.839844 637.984375 474.625 587.296875 474.625 581.855469 C 474.625 440.480469 582.910156 402.464844 677.375 385.054688 L 736 374.238281 L 794.625 385.054688 C 806.910156 387.296875 819.519531 389.984375 832 393.121094 L 832 64.03125 L 512 64.03125 L 512 384.03125 L 192 384.03125 L 192 960.03125 L 486.976562 960.03125 C 479.742188 939.617188 474.625 917.023438 474.625 889.375 " />
</svg>