<svg xmlns="http://www.w3.org/2000/svg" viewBox="0 0 1024 963">
  <path style=" stroke:none;fill-rule:evenodd;fill:rgb(60.392157%,65.490196%,69.019608%);fill-opacity:0.8;" d="M 421.648438 60.1875 L 180.707031 300.9375 L 421.648438 300.9375 Z M 421.648438 60.1875 " />
  <path style=" stroke:none;fill-rule:evenodd;fill:rgb(60.392157%,65.490196%,69.019608%);fill-opacity:0.8;" d="M 481.882812 902.8125 L 481.882812 860.5 C 481.882812 860.5 424.660156 851.71875 394.527344 804.953125 C 364.398438 758.195312 357.46875 688.308594 373.351562 631.265625 C 387.851562 563.210938 447.324219 514.085938 516.9375 512.652344 L 516.9375 499.78125 C 514.554688 465.578125 526.300781 431.890625 549.445312 406.578125 C 572.589844 381.265625 602.902344 361.835938 637.210938 361.125 C 663.546875 356.691406 692.40625 359.152344 719.113281 359.125 C 747.882812 358.976562 783.058594 365.769531 783.058594 365.769531 L 783.058594 60.1875 L 481.882812 60.1875 L 481.882812 361.125 L 180.707031 361.125 L 180.707031 902.8125 Z M 481.882812 902.8125 " />
  <path style=" stroke:none;fill-rule:evenodd;fill:rgb(25.098039%,62.745098%,81.176471%);fill-opacity:0.901961;" d="M 629.066406 419.324219 C 649.921875 415.800781 671.035156 414.019531 692.183594 414 C 715.226562 413.867188 738.242188 415.648438 760.996094 419.324219 C 796.640625 422.777344 824.574219 451.472656 827.03125 487.175781 L 827.03125 611.476562 C 827.089844 629.027344 820.164062 645.878906 807.773438 658.320312 C 795.390625 670.757812 778.558594 677.769531 760.996094 677.808594 L 629.066406 677.808594 C 584.230469 678.3125 547.800781 714.113281 546.554688 758.890625 L 546.554688 818.539062 L 501.144531 818.539062 C 464.507812 817.039062 434.566406 788.8125 430.945312 752.355469 C 418.546875 709.003906 418.546875 663.042969 430.945312 619.691406 C 438.726562 580.539062 473.523438 552.628906 513.457031 553.511719 L 695.109375 553.511719 L 695.109375 536.925781 L 563.027344 536.925781 L 563.027344 487.175781 C 563.027344 449.507812 573.175781 429.082031 629.066406 419.324219 Z M 643.824219 469.273438 C 639.933594 459.992188 630.824219 453.964844 620.753906 454.011719 C 607.019531 454.085938 595.941406 465.242188 595.96875 478.960938 C 596 489.027344 602.09375 498.078125 611.414062 501.898438 C 620.730469 505.71875 631.433594 503.550781 638.53125 496.410156 C 645.625 489.265625 647.714844 478.554688 643.824219 469.273438 Z M 643.824219 469.273438 " />
  <path style=" stroke:none;fill-rule:evenodd;fill:rgb(100%,78.823529%,0%);fill-opacity:0.901961;" d="M 843.503906 611.476562 L 843.503906 553.511719 L 893.078125 553.511719 C 928.671875 555.714844 957.011719 584.121094 959.113281 619.691406 C 972.667969 662.875 972.667969 709.171875 959.113281 752.355469 C 945.765625 792.074219 931.460938 818.539062 893.078125 818.539062 L 695.109375 818.539062 L 695.109375 835.121094 L 827.035156 835.121094 L 827.035156 884.863281 C 823.101562 919.617188 795.75 947.085938 760.996094 951.195312 C 718.023438 964.472656 672.039062 964.472656 629.066406 951.195312 C 594.5 946.707031 567.34375 919.429688 563.027344 884.863281 L 563.027344 760.570312 C 563.359375 724.207031 592.679688 694.757812 629.066406 694.238281 L 760.996094 694.238281 C 806.296875 693.3125 842.757812 656.746094 843.503906 611.476562 Z M 792.394531 883.582031 C 788.511719 874.285156 779.398438 868.242188 769.308594 868.28125 L 769.308594 868.289062 C 762.730469 868.289062 756.421875 870.902344 751.773438 875.554688 C 747.121094 880.207031 744.515625 886.515625 744.527344 893.085938 C 744.488281 903.160156 750.550781 912.261719 759.863281 916.132812 C 769.179688 919.996094 779.910156 917.867188 787.035156 910.738281 C 794.160156 903.605469 796.273438 892.882812 792.394531 883.582031 Z M 792.394531 883.582031 " />
</svg>