<svg xmlns="http://www.w3.org/2000/svg" viewBox="0 0 1024 1024">
  <path style=" stroke:none;fill-rule:evenodd;fill:rgb(60.392157%,65.490196%,69.019608%);fill-opacity:0.8;" d="M 448 64 L 192 320 L 448 320 Z M 448 64 " />
  <path style=" stroke:none;fill-rule:evenodd;fill:rgb(60.392157%,65.490196%,69.019608%);fill-opacity:0.8;" d="M 512 64 L 512 384 L 192 384 L 192 512 L 832 512 L 832 64 Z M 512 64 " />
  <path style=" stroke:none;fill-rule:evenodd;fill:rgb(94.901961%,39.607843%,13.333333%);fill-opacity:0.701961;" d="M 64 1024 L 1024 1024 L 1024 576 L 64 576 Z M 64 1024 " />
  <path style=" stroke:none;fill-rule:evenodd;fill:rgb(13.72549%,12.156863%,12.54902%);fill-opacity:0.701961;" d="M 329.601562 832 L 287.75 729.601562 L 246.398438 832 Z M 262.976562 640 L 312.960938 640 L 448 960 L 377.601562 960 L 345.601562 896 L 230.398438 896 L 198.398438 960 L 128 960 Z M 262.976562 640 " />
  <path style=" stroke:none;fill-rule:evenodd;fill:rgb(13.72549%,12.156863%,12.54902%);fill-opacity:0.701961;" d="M 537.285156 869.613281 C 551.960938 885.625 565.621094 896 594.355469 896 C 628.042969 896 640 869.613281 640 851.046875 L 640 640 L 704 640 L 704 869.613281 C 704 916.457031 660.910156 960 604.800781 960 C 552.257812 960 521.601562 944.808594 499.199219 916.457031 Z M 537.285156 869.613281 " />
</svg>