<svg xmlns="http://www.w3.org/2000/svg" viewBox="0 0 1024 1024">
  <path style=" stroke:none;fill-rule:evenodd;fill:rgb(72.54902%,60.784314%,97.254902%);fill-opacity:0.701961;" d="M 64 1024 L 1024 1024 L 1024 576 L 64 576 Z M 64 1024 " />
  <path style=" stroke:none;fill-rule:evenodd;fill:rgb(60.392157%,65.490196%,69.019608%);fill-opacity:0.8;" d="M 448 64 L 192 320 L 448 320 Z M 448 64 " />
  <path style=" stroke:none;fill-rule:evenodd;fill:rgb(60.392157%,65.490196%,69.019608%);fill-opacity:0.8;" d="M 512 64 L 512 384 L 192 384 L 192 512 L 832 512 L 832 64 Z M 512 64 " />
  <path style=" stroke:none;fill-rule:evenodd;fill:rgb(13.72549%,12.156863%,12.54902%);fill-opacity:0.701961;" d="M 192 640 L 251.902344 640 L 352 768 L 446.65625 640 L 512 640 L 512 960 L 448 960 L 448 748.800781 L 352 864 L 256 748.800781 L 256 960 L 192 960 Z M 192 640 " />
  <path style=" stroke:none;fill-rule:evenodd;fill:rgb(13.72549%,12.156863%,12.54902%);fill-opacity:0.701961;" d="M 640 704.0625 L 768 704.0625 L 768 640 L 576 640 L 576 960 L 640 960 L 640 832 L 755.199219 832 L 755.199219 768 L 640 768 Z M 640 704.0625 " />
</svg>