<svg xmlns="http://www.w3.org/2000/svg" xmlns:xlink="http://www.w3.org/1999/xlink" viewBox="0 0 1024 1024" version="1.1">
  <g id="surface1">
    <path style=" stroke:none;fill-rule:evenodd;fill:rgb(60.392157%,65.490196%,69.019608%);fill-opacity:0.8;" d="M 448 64 L 192 320 L 448 320 Z M 448 64 " />
    <path style=" stroke:none;fill-rule:evenodd;fill:rgb(60.392157%,65.490196%,69.019608%);fill-opacity:0.8;" d="M 703.980469 960 L 191.980469 960 L 191.980469 384 L 511.980469 384 L 511.980469 64 L 831.980469 64 C 831.449219 182.398438 830.96875 289.066406 830.535156 384.003906 C 689.824219 384.792969 576 499.101562 576 640 C 576 654.820312 578.71875 676.273438 584.15625 704.359375 C 624.8125 704.359375 664.753906 704.359375 703.980469 704.359375 Z M 703.980469 960 " />
    <path style=" stroke:none;fill-rule:evenodd;fill:rgb(25.098039%,71.372549%,87.843137%);fill-opacity:1;" d="M 784 1024 L 880 1024 L 880 928 L 784 928 Z M 832 448 C 725.921875 448 640 533.921875 640 640 L 736 640 C 736 587.199219 779.199219 544 832 544 C 884.800781 544 928 587.199219 928 640 C 928 736 784 724 784 880 L 880 880 C 880 772 1024 760 1024 640 C 1024 533.921875 938.078125 448 832 448 Z M 832 448 " />
  </g>
</svg>