<svg xmlns="http://www.w3.org/2000/svg" viewBox="0 0 1024 1024">
  <path style=" stroke:none;fill-rule:evenodd;fill:rgb(60.392157%,65.490196%,69.019608%);fill-opacity:0.8;" d="M 448 64 L 192 320 L 448 320 Z M 448 64 " />
  <path style=" stroke:none;fill-rule:evenodd;fill:rgb(60.392157%,65.490196%,69.019608%);fill-opacity:0.8;" d="M 512 64 L 512 384 L 192 384 L 192 514.113281 C 202.496094 512.894531 213.121094 512 224 512 C 382.785156 512 512 641.214844 512 800 C 512 859.585938 493.246094 914.304688 461.886719 960 L 832 960 L 832 64 Z M 512 64 " />
  <path style=" stroke:none;fill-rule:evenodd;fill:rgb(94.901961%,39.607843%,13.333333%);fill-opacity:0.701961;" d="M 448 800 C 448 923.710938 347.710938 1024 224 1024 C 100.289062 1024 0 923.710938 0 800 C 0 676.289062 100.289062 576 224 576 C 347.710938 576 448 676.289062 448 800 " />
  <path style=" stroke:none;fill-rule:evenodd;fill:rgb(13.72549%,12.156863%,12.54902%);fill-opacity:0.701961;" d="M 153.285156 869.613281 C 167.960938 885.625 181.621094 896 210.355469 896 C 244.042969 896 256 869.613281 256 851.046875 L 256 640 L 320 640 L 320 869.613281 C 320 916.457031 276.910156 960 220.800781 960 C 168.257812 960 137.601562 944.808594 115.199219 916.457031 Z M 153.285156 869.613281 " />
</svg>