<svg xmlns="http://www.w3.org/2000/svg" viewBox="0 0 1024 1024">
  <path style=" stroke:none;fill-rule:evenodd;fill:rgb(60.392157%,65.490196%,69.019608%);fill-opacity:0.8;" d="M 448 64 L 192 320 L 448 320 Z M 448 64 " />
  <path style=" stroke:none;fill-rule:evenodd;fill:rgb(60.392157%,65.490196%,69.019608%);fill-opacity:0.8;" d="M 512 64 L 512 384 L 192 384 L 192 512 L 832 512 L 832 64 Z M 512 64 " />
  <path style=" stroke:none;fill-rule:evenodd;fill:rgb(94.901961%,39.607843%,13.333333%);fill-opacity:0.701961;" d="M 64 1024 L 1024 1024 L 1024 576 L 64 576 Z M 64 1024 " />
  <path style=" stroke:none;fill-rule:evenodd;fill:rgb(13.72549%,12.156863%,12.54902%);fill-opacity:0.701961;" d="M 329.601562 832 L 287.75 729.601562 L 246.398438 832 Z M 262.976562 640 L 312.960938 640 L 448 960 L 377.601562 960 L 345.601562 896 L 230.398438 896 L 198.398438 960 L 128 960 Z M 262.976562 640 " />
  <path style=" stroke:none;fill-rule:evenodd;fill:rgb(13.72549%,12.156863%,12.54902%);fill-opacity:0.701961;" d="M 574.257812 736.097656 C 574.257812 712.515625 594.175781 704 630.078125 704 C 630.421875 704 655.0625 704 704 704 L 704 640 C 656.8125 640 632.492188 640 631.039062 640 C 561.792969 640 512 669.386719 512 732.800781 C 512 788.128906 538.851562 812.191406 606.160156 826.628906 C 655.460938 837.203125 671.753906 846.632812 671.753906 867.070312 C 671.753906 887.511719 648.859375 896 606.160156 896 C 605.476562 896 580.492188 896 531.199219 896 L 531.199219 960 C 580.832031 960 605.820312 960 606.160156 960 C 736 960 736 896 736 867.070312 C 736 826.628906 705.296875 794.925781 650.15625 777.398438 C 595.015625 759.871094 574.257812 759.679688 574.257812 736.097656 Z M 574.257812 736.097656 " />
</svg>