<svg xmlns="http://www.w3.org/2000/svg" viewBox="0 0 1024 1024">
  <path style=" stroke:none;fill-rule:evenodd;fill:rgb(60.392157%,65.490196%,69.019608%);fill-opacity:0.8;" d="M 448 64 L 192 320 L 448 320 Z M 448 64 " />
  <path style=" stroke:none;fill-rule:evenodd;fill:rgb(60.392157%,65.490196%,69.019608%);fill-opacity:0.8;" d="M 384 960 L 192.019531 960 L 192.019531 384 L 512.019531 384 L 512.019531 64 L 832.019531 64 L 832.019531 407.441406 C 803.292969 392.464844 770.636719 384 736 384 C 621.125 384 528 477.125 528 592 C 528 660.839844 561.441406 721.867188 612.964844 759.726562 C 502.3125 785.40625 384 842.5 384 930.667969 Z M 384 960 " />
  <path style=" stroke:none;fill-rule:evenodd;fill:rgb(60.392157%,65.490196%,69.019608%);fill-opacity:1;" d="M 736 736 C 815.558594 736 880 671.558594 880 592 C 880 512.441406 815.558594 448 736 448 C 656.441406 448 592 512.441406 592 592 C 592 671.558594 656.441406 736 736 736 Z M 736 736 " />
  <path style=" stroke:none;fill-rule:evenodd;fill:rgb(25.098039%,71.372549%,87.843137%);fill-opacity:1;" d="M 736 808 C 639.878906 808 448 856.238281 448 952 L 448 1024 L 1024 1024 L 1024 952 C 1024 856.238281 832.121094 808 736 808 Z M 736 808 " />
</svg>