<svg xmlns="http://www.w3.org/2000/svg" viewBox="0 0 1024 1024">
  <path style=" stroke:none;fill-rule:evenodd;fill:rgb(25.098039%,71.372549%,87.843137%);fill-opacity:0.701961;" d="M 64 1024 L 1024 1024 L 1024 576 L 64 576 Z M 64 1024 " />
  <path style=" stroke:none;fill-rule:evenodd;fill:rgb(60.392157%,65.490196%,69.019608%);fill-opacity:0.8;" d="M 448 64 L 192 320 L 448 320 Z M 448 64 " />
  <path style=" stroke:none;fill-rule:evenodd;fill:rgb(60.392157%,65.490196%,69.019608%);fill-opacity:0.8;" d="M 512 64 L 512 384 L 192 384 L 192 512 L 832 512 L 832 64 Z M 512 64 " />
  <path style=" stroke:none;fill-rule:evenodd;fill:rgb(13.72549%,12.156863%,12.54902%);fill-opacity:0.701961;" d="M 320 704 C 274.6875 704 256 738.558594 256 800 C 256 861.441406 274.238281 896 320 896 C 365.761719 896 384 860.542969 384 800 C 384 739.457031 365.3125 704 320 704 Z M 320 639.980469 C 397.246094 639.980469 448 711.53125 448 799.980469 C 448 888.429688 397.183594 959.980469 320 959.980469 C 242.816406 959.980469 192 888.382812 192 800 C 192 701.363281 242.753906 639.980469 320 639.980469 Z M 320 639.980469 " />
  <path style=" stroke:none;fill-rule:evenodd;fill:rgb(13.72549%,12.156863%,12.54902%);fill-opacity:0.701961;" d="M 582.398438 640 L 512 668.351562 L 522.046875 718.398438 L 576 704 L 576 960 L 640 960 L 640 640 Z M 582.398438 640 " />
</svg>