<svg xmlns="http://www.w3.org/2000/svg" xmlns:xlink="http://www.w3.org/1999/xlink" viewBox="0 0 1024 1024">
  <defs>
    <filter id="alpha" filterUnits="objectBoundingBox" x="0%" y="0%" width="100%" height="100%">
      <feColorMatrix type="matrix" in="SourceGraphic" values="0 0 0 0 1 0 0 0 0 1 0 0 0 0 1 0 0 0 1 0" />
    </filter>
    <mask id="mask0">
      <g filter="url(#alpha)">
        <rect x="0" y="0" width="1024" height="1024" style="fill:rgb(0%,0%,0%);fill-opacity:0.501961;stroke:none;" />
      </g>
    </mask>
    <clipPath id="clip1">
      <rect x="0" y="0" width="1024" height="1024" />
    </clipPath>
    <g id="surface5" clip-path="url(#clip1)">
      <path style=" stroke:none;fill-rule:evenodd;fill:rgb(60.392157%,65.490196%,69.019608%);fill-opacity:1;" d="M 752.25 960 L 607.480469 777.34375 C 611.898438 792.832031 614.136719 809.726562 614.136719 828.160156 C 614.136719 836.03125 613.433594 892.800781 613.816406 894.464844 C 613.816406 894.398438 613.945312 894.335938 613.945312 894.335938 C 615.867188 894.335938 716.410156 925.375 716.410156 925.375 L 707.511719 960 Z M 752.25 960 " />
    </g>
  </defs>
  <g id="surface1">
    <path style=" stroke:none;fill-rule:evenodd;fill:rgb(60.392157%,65.490196%,69.019608%);fill-opacity:0.8;" d="M 448 64 L 192 320 L 448 320 Z M 448 64 " />
    <path style=" stroke:none;fill-rule:evenodd;fill:rgb(60.392157%,65.490196%,69.019608%);fill-opacity:0.8;" d="M 410.625 889.375 C 410.625 884 411.839844 833.824219 411.648438 831.390625 C 409.089844 831.136719 320 830.945312 320 830.945312 L 320 640.992188 C 320 640.992188 409.023438 640.800781 411.585938 640.480469 C 411.839844 637.984375 410.625 587.296875 410.625 581.855469 C 410.625 440.480469 518.910156 402.464844 613.375 385.054688 L 672 374.238281 L 716.414062 546.59375 C 716.414062 546.59375 616.191406 577.503906 612.800781 579.742188 C 613.246094 580.640625 613.761719 650.847656 613.566406 654.367188 L 711.359375 555.230469 L 818.625 695.007812 L 832 671.585938 L 832 64.03125 L 512 64.03125 L 512 384.03125 L 192 384.03125 L 192 960.03125 L 422.976562 960.03125 C 415.742188 939.617188 410.625 917.023438 410.625 889.375 " />
    <use xlink:href="#surface5" mask="url(#mask0)" />
    <path style=" stroke:none;fill-rule:evenodd;fill:rgb(13.72549%,12.156863%,12.54902%);fill-opacity:0.701961;" d="M 474.625 889.375 C 474.625 879.328125 475.96875 852.382812 475.96875 840.929688 C 475.96875 788.449219 456.128906 766.945312 401.214844 766.945312 L 384 766.945312 L 384 704.992188 L 401.214844 704.992188 C 456.128906 704.992188 475.96875 682.785156 475.96875 630.304688 C 475.96875 618.847656 474.625 592.03125 474.625 581.855469 C 474.625 513.246094 504.449219 470.175781 624.960938 448.03125 L 638.785156 501.792969 C 559.359375 524.0625 548.800781 544.863281 548.800781 594.015625 C 548.800781 607.519531 550.144531 629.664062 550.144531 643.808594 C 550.144531 696.289062 524.992188 721.824219 481.28125 736.03125 C 525.632812 750.753906 550.144531 775.710938 550.144531 828.191406 C 550.144531 842.335938 548.800781 864.480469 548.800781 877.984375 C 548.800781 927.070312 559.359375 947.9375 638.785156 970.144531 L 624.960938 1024.03125 C 504.449219 1001.761719 474.625 958.6875 474.625 889.375 " />
    <path style=" stroke:none;fill-rule:evenodd;fill:rgb(13.72549%,12.156863%,12.54902%);fill-opacity:0.701961;" d="M 826.496094 810.367188 L 705.28125 652.480469 L 641.472656 717.183594 L 832.703125 958.398438 L 1023.871094 640.703125 L 960.257812 576 Z M 826.496094 810.367188 " />
  </g>
</svg>