<svg xmlns="http://www.w3.org/2000/svg" viewBox="0 0 1024 1024">
  <path style=" stroke:none;fill-rule:evenodd;fill:rgb(46.666667%,73.333333%,88.627451%);fill-opacity:1;" d="M 773.972656 570.371094 C 772.328125 550.875 771.066406 529.632812 771.066406 507.085938 C 771.066406 425.015625 786.277344 291.550781 786.277344 291.550781 C 786.277344 166.382812 671.992188 64.007812 511.992188 64.007812 C 351.992188 64.007812 237.726562 166.382812 237.726562 291.550781 C 237.726562 291.550781 252.9375 408.597656 252.9375 507.085938 C 252.9375 531.183594 251.90625 551.835938 250.527344 570.371094 L 251.140625 570.371094 C 247.128906 649.554688 237.726562 722.59375 237.726562 722.59375 C 237.726562 847.761719 351.992188 950.164062 511.992188 950.164062 C 671.992188 950.164062 786.277344 847.761719 786.277344 722.59375 C 786.277344 722.59375 777.34375 644.019531 773.183594 570.371094 Z M 773.972656 570.371094 " />
  <path style=" stroke:none;fill-rule:evenodd;fill:rgb(46.666667%,73.333333%,88.627451%);fill-opacity:1;" d="M 832 203.484375 C 832 235.210938 808.121094 260.910156 778.65625 260.910156 C 749.214844 260.910156 725.335938 235.210938 725.335938 203.484375 C 725.335938 171.753906 749.214844 146.054688 778.65625 146.054688 C 808.121094 146.054688 832 171.753906 832 203.484375 Z M 832 203.484375 " />
  <path style=" stroke:none;fill-rule:evenodd;fill:rgb(46.666667%,73.333333%,88.627451%);fill-opacity:1;" d="M 192 203.484375 C 192 235.210938 215.878906 260.910156 245.339844 260.910156 C 274.78125 260.910156 298.660156 235.210938 298.660156 203.484375 C 298.660156 171.753906 274.78125 146.054688 245.339844 146.054688 C 215.878906 146.054688 192 171.753906 192 203.484375 Z M 192 203.484375 " />
  <path style=" stroke:none;fill-rule:evenodd;fill:rgb(100%,100%,100%);fill-opacity:1;" d="M 495.578125 324.984375 C 495.578125 378.5 451.492188 421.871094 397.117188 421.871094 C 342.742188 421.871094 298.65625 378.5 298.65625 324.984375 C 298.65625 271.472656 342.742188 228.097656 397.117188 228.097656 C 451.492188 228.097656 495.578125 271.472656 495.578125 324.984375 Z M 495.578125 324.984375 " />
  <path style=" stroke:none;fill-rule:evenodd;fill:rgb(100%,100%,100%);fill-opacity:1;" d="M 495.578125 324.984375 C 495.578125 378.5 451.492188 421.871094 397.117188 421.871094 C 342.742188 421.871094 298.65625 378.5 298.65625 324.984375 C 298.65625 271.472656 342.742188 228.097656 397.117188 228.097656 C 451.492188 228.097656 495.578125 271.472656 495.578125 324.984375 Z M 495.578125 324.984375 " />
  <path style=" stroke:none;fill-rule:evenodd;fill:rgb(0%,0%,0%);fill-opacity:1;" d="M 447.574219 324.695312 C 447.574219 350.835938 427.882812 372.054688 403.585938 372.054688 C 379.316406 372.054688 359.625 350.835938 359.625 324.695312 C 359.625 298.554688 379.316406 277.335938 403.585938 277.335938 C 427.882812 277.335938 447.574219 298.554688 447.574219 324.695312 Z M 447.574219 324.695312 " />
  <path style=" stroke:none;fill-rule:evenodd;fill:rgb(100%,100%,100%);fill-opacity:1;" d="M 712.789062 324.984375 C 712.789062 378.5 668.703125 421.871094 614.328125 421.871094 C 559.929688 421.871094 515.867188 378.5 515.867188 324.984375 C 515.867188 271.472656 559.929688 228.097656 614.328125 228.097656 C 668.703125 228.097656 712.789062 271.472656 712.789062 324.984375 Z M 712.789062 324.984375 " />
  <path style=" stroke:none;fill-rule:evenodd;fill:rgb(0%,0%,0%);fill-opacity:1;" d="M 664.761719 324.695312 C 664.761719 350.835938 645.070312 372.054688 620.800781 372.054688 C 596.503906 372.054688 576.8125 350.835938 576.8125 324.695312 C 576.8125 298.554688 596.503906 277.335938 620.800781 277.335938 C 645.070312 277.335938 664.761719 298.554688 664.761719 324.695312 Z M 664.761719 324.695312 " />
  <path style=" stroke:none;fill-rule:evenodd;fill:rgb(100%,100%,100%);fill-opacity:1;" d="M 481.5 507.078125 L 542.472656 507.078125 L 542.472656 457.847656 L 481.5 457.847656 Z M 481.5 507.078125 " />
  <path style=" stroke:none;fill-rule:evenodd;fill:rgb(71.764706%,57.647059%,49.803922%);fill-opacity:1;" d="M 572.964844 441.441406 C 572.964844 459.554688 545.664062 474.253906 511.992188 474.253906 C 478.339844 474.253906 451.042969 459.554688 451.042969 441.441406 C 451.042969 423.324219 478.339844 408.628906 511.992188 408.628906 C 545.664062 408.628906 572.964844 423.324219 572.964844 441.441406 Z M 572.964844 441.441406 " />
  <path style=" stroke:none;fill-rule:evenodd;fill:rgb(0%,0%,0%);fill-opacity:1;" d="M 542.480469 424.480469 C 542.480469 442.917969 528.625 441.441406 511.492188 441.441406 C 494.382812 441.441406 480.5 442.917969 480.5 424.480469 C 480.5 406.042969 494.382812 391.125 511.492188 391.125 C 528.625 391.125 542.480469 406.042969 542.480469 424.480469 Z M 542.480469 424.480469 " />
  <path style=" stroke:none;fill-rule:evenodd;fill:rgb(71.764706%,57.647059%,49.803922%);fill-opacity:1;" d="M 230.097656 570.382812 C 251.144531 570.382812 268.203125 551.996094 268.203125 529.347656 C 268.203125 506.703125 251.144531 488.316406 230.097656 488.316406 C 209.074219 488.316406 191.992188 506.703125 191.992188 529.347656 C 191.992188 551.996094 209.074219 570.382812 230.097656 570.382812 Z M 793.894531 570.382812 C 814.945312 570.382812 832 551.996094 832 529.347656 C 832 506.703125 814.945312 488.316406 793.894531 488.316406 C 772.871094 488.316406 755.789062 506.703125 755.789062 529.347656 C 755.789062 551.996094 772.871094 570.382812 793.894531 570.382812 Z M 768.007812 909.121094 C 768.007812 931.789062 750.949219 950.15625 729.90625 950.15625 C 708.882812 950.15625 691.800781 931.789062 691.800781 909.121094 C 691.800781 886.476562 708.882812 868.109375 729.90625 868.109375 C 750.949219 868.109375 768.007812 886.476562 768.007812 909.121094 Z M 294.085938 950.15625 C 315.132812 950.15625 332.191406 931.789062 332.191406 909.121094 C 332.191406 886.476562 315.132812 868.109375 294.085938 868.109375 C 273.066406 868.109375 255.980469 886.476562 255.980469 909.121094 C 255.980469 931.789062 273.066406 950.15625 294.085938 950.15625 Z M 294.085938 950.15625 " />
</svg>