<svg xmlns="http://www.w3.org/2000/svg" viewBox="0 0 1024 1024">
  <path style=" stroke:none;fill-rule:evenodd;fill:rgb(60.392157%,65.490196%,69.019608%);fill-opacity:0.8;" d="M 64 960 L 960 960 L 960 768 L 64 768 Z M 64 960 " />
  <path style=" stroke:none;fill-rule:evenodd;fill:rgb(60.392157%,65.490196%,69.019608%);fill-opacity:0.8;" d="M 64 256 L 960 256 L 960 64 L 64 64 Z M 64 256 " />
  <path style=" stroke:none;fill-rule:evenodd;fill:rgb(25.098039%,71.372549%,87.843137%);fill-opacity:1;" d="M 288 280.257812 L 128 448 L 256 448 L 256 768 L 320 768 L 320 448 L 448 448 Z M 288 280.257812 " />
  <path style=" stroke:none;fill-rule:evenodd;fill:rgb(25.098039%,71.372549%,87.843137%);fill-opacity:1;" d="M 736 280.257812 L 576 448 L 704 448 L 704 512 L 768 512 L 768 448 L 896 448 Z M 736 280.257812 " />
  <path style=" stroke:none;fill-rule:evenodd;fill:rgb(25.098039%,71.372549%,87.843137%);fill-opacity:1;" d="M 704 640 L 768 640 L 768 576 L 704 576 Z M 704 640 " />
  <path style=" stroke:none;fill-rule:evenodd;fill:rgb(25.098039%,71.372549%,87.843137%);fill-opacity:1;" d="M 704 768 L 768 768 L 768 704 L 704 704 Z M 704 768 " />
</svg>