<svg xmlns="http://www.w3.org/2000/svg" viewBox="0 0 1024 1024">
  <path style=" stroke:none;fill-rule:evenodd;fill:rgb(72.54902%,60.784314%,97.254902%);fill-opacity:0.701961;" d="M 64 1024 L 1024 1024 L 1024 576 L 64 576 Z M 64 1024 " />
  <path style=" stroke:none;fill-rule:evenodd;fill:rgb(60.392157%,65.490196%,69.019608%);fill-opacity:0.8;" d="M 448 64 L 192 320 L 448 320 Z M 448 64 " />
  <path style=" stroke:none;fill-rule:evenodd;fill:rgb(60.392157%,65.490196%,69.019608%);fill-opacity:0.8;" d="M 512 64 L 512 384 L 192 384 L 192 512 L 832 512 L 832 64 Z M 512 64 " />
  <path style=" stroke:none;fill-rule:evenodd;fill:rgb(13.72549%,12.156863%,12.54902%);fill-opacity:0.701961;" d="M 192 960 L 256 960 L 256 640 L 192 640 Z M 192 960 " />
  <path style=" stroke:none;fill-rule:evenodd;fill:rgb(13.72549%,12.156863%,12.54902%);fill-opacity:0.701961;" d="M 384 704 L 384 896 L 425.535156 896 C 484.992188 896 512 863.550781 512 800.960938 L 512 800 C 512 737.40625 484.992188 704 425.535156 704 Z M 320 640 L 425.535156 640 C 514.558594 640 576 709.953125 576 800 C 576 890.945312 514.558594 960 425.535156 960 L 320 960 Z M 320 640 " />
  <path style=" stroke:none;fill-rule:evenodd;fill:rgb(13.72549%,12.156863%,12.54902%);fill-opacity:0.701961;" d="M 640 640 L 704 640 L 704 896 L 864 896 L 864 960 L 640 960 Z M 640 640 " />
</svg>