<svg xmlns="http://www.w3.org/2000/svg" viewBox="0 0 1024 1024">
  <path style=" stroke:none;fill-rule:evenodd;fill:rgb(94.901961%,39.607843%,13.333333%);fill-opacity:0.701961;" d="M 64 1024 L 1024 1024 L 1024 576 L 64 576 Z M 64 1024 " />
  <path style=" stroke:none;fill-rule:evenodd;fill:rgb(60.392157%,65.490196%,69.019608%);fill-opacity:0.8;" d="M 448 64 L 192 320 L 448 320 Z M 448 64 " />
  <path style=" stroke:none;fill-rule:evenodd;fill:rgb(60.392157%,65.490196%,69.019608%);fill-opacity:0.8;" d="M 512 64 L 512 384 L 192 384 L 192 512 L 832 512 L 832 64 Z M 512 64 " />
  <path style=" stroke:none;fill-rule:evenodd;fill:rgb(13.72549%,12.156863%,12.54902%);fill-opacity:0.701961;" d="M 153.285156 869.613281 C 167.960938 885.625 181.621094 896 210.355469 896 C 244.042969 896 256 869.613281 256 851.046875 L 256 640 L 320 640 L 320 869.613281 C 320 916.457031 276.910156 960 220.800781 960 C 168.257812 960 137.601562 944.808594 115.199219 916.457031 Z M 153.285156 869.613281 " />
  <path style=" stroke:none;fill-rule:evenodd;fill:rgb(13.72549%,12.156863%,12.54902%);fill-opacity:0.701961;" d="M 761.601562 800 C 804.097656 800 832 792.601562 832 752 C 832 711.398438 803.648438 704 761.601562 704 L 704 704 L 704 800 Z M 640 640 L 766.144531 640 C 841.089844 640 896 681.089844 896 745.601562 C 896 850.292969 830.144531 864 759.808594 864 L 704 864 L 704 960 L 640 960 Z M 640 640 " />
  <path style=" stroke:none;fill-rule:evenodd;fill:rgb(13.72549%,12.156863%,12.54902%);fill-opacity:0.701961;" d="M 446.257812 736.097656 C 446.257812 712.515625 466.175781 704 502.078125 704 C 502.421875 704 527.0625 704 576 704 L 576 640 C 528.8125 640 504.492188 640 503.039062 640 C 433.792969 640 384 669.386719 384 732.800781 C 384 788.128906 410.851562 812.191406 478.160156 826.628906 C 527.460938 837.203125 543.753906 846.632812 543.753906 867.070312 C 543.753906 887.511719 520.859375 896 478.160156 896 C 477.476562 896 452.492188 896 403.199219 896 L 403.199219 960 C 452.832031 960 477.820312 960 478.160156 960 C 608 960 608 896 608 867.070312 C 608 826.628906 577.296875 794.925781 522.15625 777.398438 C 467.015625 759.871094 446.257812 759.679688 446.257812 736.097656 Z M 446.257812 736.097656 " />
</svg>