<svg xmlns="http://www.w3.org/2000/svg" viewBox="0 0 1024 1024">
  <path style=" stroke:none;fill-rule:evenodd;fill:rgb(60.392157%,65.490196%,69.019608%);fill-opacity:0.8;" d="M 448 64 L 192 320 L 448 320 Z M 448 64 " />
  <path style=" stroke:none;fill-rule:evenodd;fill:rgb(60.392157%,65.490196%,69.019608%);fill-opacity:0.8;" d="M 512 64 L 512 384 L 192 384 L 192 512 L 832 512 L 832 64 Z M 512 64 " />
  <path style=" stroke:none;fill-rule:evenodd;fill:rgb(25.098039%,71.372549%,87.843137%);fill-opacity:0.701961;" d="M 64 1024 L 1024 1024 L 1024 576 L 64 576 Z M 64 1024 " />
  <path style=" stroke:none;fill-rule:evenodd;fill:rgb(13.72549%,12.156863%,12.54902%);fill-opacity:0.701961;" d="M 128 800.0625 C 128 704 187.585938 640 272.382812 640 C 332.953125 640 355.199219 659.902344 382.015625 688.191406 L 347.308594 731.335938 C 324.910156 708.359375 304 704 272 704 C 218.753906 704 192 751.226562 192 799.167969 C 192 847.109375 218.367188 896 272 896 C 306.367188 896 323.308594 889.179688 347.308594 864.410156 L 384 905.214844 C 354.816406 938.816406 332.628906 960 270.398438 960 C 188.734375 960 128 896.128906 128 800.0625 Z M 128 800.0625 " />
  <path style=" stroke:none;fill-rule:evenodd;fill:rgb(13.72549%,12.156863%,12.54902%);fill-opacity:0.701961;" d="M 510.257812 736.097656 C 510.257812 712.515625 530.175781 704 566.078125 704 C 566.421875 704 591.0625 704 640 704 L 640 640 C 592.8125 640 568.492188 640 567.039062 640 C 497.792969 640 448 669.386719 448 732.800781 C 448 788.128906 474.851562 812.191406 542.160156 826.628906 C 591.460938 837.203125 607.753906 846.632812 607.753906 867.070312 C 607.753906 887.511719 584.859375 896 542.160156 896 C 541.476562 896 516.492188 896 467.199219 896 L 467.199219 960 C 516.832031 960 541.820312 960 542.160156 960 C 672 960 672 896 672 867.070312 C 672 826.628906 641.296875 794.925781 586.15625 777.398438 C 531.015625 759.871094 510.257812 759.679688 510.257812 736.097656 Z M 510.257812 736.097656 " />
  <path style=" stroke:none;fill-rule:evenodd;fill:rgb(13.72549%,12.156863%,12.54902%);fill-opacity:0.701961;" d="M 766.257812 736.097656 C 766.257812 712.515625 786.175781 704 822.078125 704 C 822.421875 704 847.0625 704 896 704 L 896 640 C 848.8125 640 824.492188 640 823.039062 640 C 753.792969 640 704 669.386719 704 732.800781 C 704 788.128906 730.851562 812.191406 798.160156 826.628906 C 847.460938 837.203125 863.753906 846.632812 863.753906 867.070312 C 863.753906 887.511719 840.859375 896 798.160156 896 C 797.476562 896 772.492188 896 723.199219 896 L 723.199219 960 C 772.832031 960 797.820312 960 798.160156 960 C 928 960 928 896 928 867.070312 C 928 826.628906 897.296875 794.925781 842.15625 777.398438 C 787.015625 759.871094 766.257812 759.679688 766.257812 736.097656 Z M 766.257812 736.097656 " />
</svg>