<svg xmlns="http://www.w3.org/2000/svg" xmlns:xlink="http://www.w3.org/1999/xlink" viewBox="0 0 1024 1024" version="1.1">
  <g id="surface1">
    <path style=" stroke:none;fill-rule:evenodd;fill:rgb(25.098039%,71.372549%,87.843137%);fill-opacity:0.701961;" d="M 64 1024 L 1024 1024 L 1024 576 L 64 576 Z M 64 1024 " />
    <path style=" stroke:none;fill-rule:evenodd;fill:rgb(60.392157%,65.490196%,69.019608%);fill-opacity:0.8;" d="M 448 64 L 192 320 L 448 320 Z M 448 64 " />
    <path style=" stroke:none;fill-rule:evenodd;fill:rgb(60.392157%,65.490196%,69.019608%);fill-opacity:0.8;" d="M 512 64 L 512 384 L 192 384 L 192 512 L 832 512 L 832 64 Z M 512 64 " />
    <path style=" stroke:none;fill-rule:evenodd;fill:rgb(13.72549%,12.156863%,12.54902%);fill-opacity:0.701961;" d="M 192 704 L 96 704 L 96 640 L 352 640 L 352 704 L 256 704 L 256 960 L 192 960 Z M 192 704 " />
    <path style=" stroke:none;fill-rule:evenodd;fill:rgb(13.72549%,12.156863%,12.54902%);fill-opacity:0.701961;" d="M 446.257812 736.097656 C 446.257812 712.519531 466.175781 704 502.078125 704 C 502.421875 704 527.0625 704 576 704 L 576 640 C 528.8125 640 504.492188 640 503.039062 640 C 433.792969 640 384 669.390625 384 732.800781 C 384 788.128906 410.851562 812.191406 478.160156 826.628906 C 527.460938 837.203125 543.753906 846.628906 543.753906 867.070312 C 543.753906 887.511719 520.859375 896 478.160156 896 C 477.476562 896 452.492188 896 403.199219 896 L 403.199219 960 C 452.832031 960 477.820312 960 478.160156 960 C 608 960 608 896 608 867.070312 C 608 826.628906 577.296875 794.925781 522.15625 777.402344 C 467.015625 759.871094 446.257812 759.679688 446.257812 736.097656 Z M 446.257812 736.097656 " />
    <path style=" stroke:none;fill-rule:evenodd;fill:rgb(13.72549%,12.156863%,12.54902%);fill-opacity:0.701961;" d="M 928 640 L 825.601562 796.800781 L 928 960 L 851.199219 960 L 784 837.953125 L 716.800781 960 L 640 960 L 742.398438 796.800781 L 640 640 L 716.800781 640 L 784 756.097656 L 851.199219 640 Z M 928 640 " />
  </g>
</svg>