<svg xmlns="http://www.w3.org/2000/svg" viewBox="0 0 1024 1024">
  <path style=" stroke:none;fill-rule:evenodd;fill:rgb(60.392157%,65.490196%,69.019608%);fill-opacity:0.8;" d="M 448 64 L 192 320 L 448 320 Z M 448 64 " />
  <path style=" stroke:none;fill-rule:evenodd;fill:rgb(60.392157%,65.490196%,69.019608%);fill-opacity:0.8;" d="M 511.960938 959.980469 L 192.027344 959.980469 L 192.027344 383.980469 L 512.027344 383.980469 L 512.027344 63.980469 L 832.027344 63.980469 L 832.027344 454.40625 C 811.339844 450.207031 789.925781 448 768 448 C 591.269531 448 448 591.269531 448 768 C 448 840.03125 471.796875 906.5 511.960938 959.980469 Z M 511.960938 959.980469 " />
  <path style=" stroke:none;fill-rule:evenodd;fill:rgb(25.098039%,71.372549%,87.843137%);fill-opacity:1;" d="M 953.847656 805.058594 L 1012.066406 846.828125 C 1000.863281 881.484375 982.46875 912.90625 958.648438 939.335938 L 893.363281 909.886719 C 874.785156 926.257812 852.960938 939.039062 828.984375 947.140625 L 821.871094 1018.414062 C 804.636719 1022.074219 786.761719 1024 768.433594 1024 C 750.109375 1024 732.230469 1022.074219 714.996094 1018.414062 L 707.882812 947.140625 C 683.90625 939.039062 662.085938 926.257812 643.503906 909.886719 L 578.222656 939.335938 C 554.398438 912.90625 536.003906 881.484375 524.800781 846.828125 L 583.019531 805.058594 C 580.636719 793.074219 579.386719 780.683594 579.386719 768 C 579.386719 755.316406 580.636719 742.925781 583.019531 730.941406 L 524.800781 689.171875 C 536.003906 654.515625 554.398438 623.09375 578.222656 596.664062 L 643.503906 626.113281 C 662.085938 609.742188 683.90625 596.960938 707.882812 588.859375 L 714.996094 517.585938 C 732.230469 513.925781 750.109375 512 768.433594 512 C 786.761719 512 804.636719 513.925781 821.871094 517.585938 L 828.984375 588.859375 C 852.960938 596.960938 874.785156 609.742188 893.363281 626.113281 L 958.648438 596.664062 C 982.46875 623.09375 1000.863281 654.515625 1012.066406 689.171875 L 953.847656 730.941406 C 956.230469 742.925781 957.480469 755.316406 957.480469 768 C 957.480469 780.683594 956.230469 793.074219 953.847656 805.058594 Z M 768.433594 858.601562 C 818.460938 858.601562 859.019531 818.039062 859.019531 768.007812 C 859.019531 717.976562 818.460938 677.414062 768.433594 677.414062 C 718.40625 677.414062 677.847656 717.976562 677.847656 768.007812 C 677.847656 818.039062 718.40625 858.601562 768.433594 858.601562 Z M 768.433594 858.601562 " />
</svg>