<svg xmlns="http://www.w3.org/2000/svg" xmlns:xlink="http://www.w3.org/1999/xlink" viewBox="0 0 1024 1024">
  <g id="surface1">
    <path style=" stroke:none;fill-rule:evenodd;fill:rgb(60.392157%,65.490196%,69.019608%);fill-opacity:0.8;" d="M 448 64 L 192 320 L 448 320 Z M 448 64 " />
    <path style=" stroke:none;fill-rule:evenodd;fill:rgb(60.392157%,65.490196%,69.019608%);fill-opacity:0.8;" d="M 832 516.703125 C 825.722656 516.296875 819.394531 516.085938 813.011719 516.085938 C 653.957031 516.085938 525.011719 645.03125 525.011719 804.085938 C 525.011719 861.539062 541.835938 915.0625 570.824219 960 L 192 960 L 192 384 L 512 384 L 512 64 L 832 64 Z M 832 516.703125 " />
    <path style=" stroke:none;fill-rule:evenodd;fill:rgb(13.72549%,12.156863%,12.54902%);fill-opacity:0.701961;" d="M 320 768 L 512 768 L 512 704 L 320 704 Z M 320 640 L 576 640 L 576 576 L 320 576 Z M 320 512 L 704 512 L 704 448 L 320 448 Z M 320 512 " />
    <path style=" stroke:none;fill-rule:evenodd;fill:rgb(25.098039%,71.372549%,87.843137%);fill-opacity:1;" d="M 853.3125 722.332031 L 980.101562 649.128906 L 1024.902344 726.726562 L 898.109375 799.925781 L 1024.902344 873.128906 L 980.101562 950.726562 L 853.3125 877.523438 L 853.3125 1023.925781 L 763.710938 1023.925781 L 763.710938 877.523438 L 636.921875 950.726562 L 592.121094 873.128906 L 718.910156 799.925781 L 592.121094 726.726562 L 636.921875 649.128906 L 763.710938 722.332031 L 763.710938 575.925781 L 853.3125 575.925781 Z M 853.3125 722.332031 " />
  </g>
</svg>