<svg xmlns="http://www.w3.org/2000/svg" xmlns:xlink="http://www.w3.org/1999/xlink" viewBox="0 0 1024 1024" version="1.1">
  <g id="surface1">
    <path fill="currentColor" d="M 64 364.800781 L 768 364.800781 L 768 275.199219 L 64 275.199219 Z M 896 128 C 860.652344 128 832 156.652344 832 192 L 832 448 C 832 483.347656 860.652344 512 896 512 C 931.347656 512 960 483.347656 960 448 L 960 192 C 960 156.652344 931.347656 128 896 128 Z M 512 659.199219 L 512 576 C 512 540.652344 483.347656 512 448 512 C 412.652344 512 384 540.652344 384 576 L 384 832 C 384 867.347656 412.652344 896 448 896 C 483.347656 896 512 867.347656 512 832 L 512 748.800781 L 960 748.800781 L 960 659.199219 Z M 64 748.800781 L 320 748.800781 L 320 659.199219 L 64 659.199219 Z M 64 748.800781 " />
  </g>
</svg>