<svg xmlns="http://www.w3.org/2000/svg" xmlns:xlink="http://www.w3.org/1999/xlink" viewBox="0 0 1024 1024" version="1.1">
  <g id="surface1">
    <path fill="currentColor" d="M 64 64 L 64 1024 L 192 1024 L 192 768 L 1024 768 L 1024 64 Z M 960 512 L 768 512 L 768 704 L 576 704 L 576 512 L 384 512 L 384 704 L 192 704 L 192 512 L 384 512 L 384 320 L 192 320 L 192 128 L 384 128 L 384 320 L 576 320 L 576 128 L 768 128 L 768 320 L 960 320 Z M 576 320 L 576 512 L 768 512 L 768 320 Z M 576 320 " />
  </g>
</svg>