<svg xmlns="http://www.w3.org/2000/svg" xmlns:xlink="http://www.w3.org/1999/xlink" viewBox="0 0 1024 1024" version="1.1">
  <g id="surface1">
    <path fill="currentColor" d="M 512 0 C 229.230469 0 0 229.230469 0 512 C 0 794.769531 229.230469 1024 512 1024 C 794.769531 1024 1024 794.769531 1024 512 C 1024 229.230469 794.769531 0 512 0 Z M 197.761719 485.121094 L 357.121094 325.761719 C 415.71875 343.324219 453.695312 399.890625 447.769531 460.777344 C 441.839844 521.660156 393.660156 569.839844 332.777344 575.769531 C 271.890625 581.695312 215.324219 543.71875 197.761719 485.121094 Z M 617.601562 822.398438 C 559.039062 764.65625 464.960938 764.65625 406.398438 822.398438 L 361.601562 777.601562 C 445.59375 696.8125 578.40625 696.8125 662.398438 777.601562 Z M 704 576 C 640.539062 575.375 587.117188 528.34375 578.457031 465.472656 C 569.796875 402.601562 608.511719 342.878906 669.441406 325.121094 L 826.878906 482.558594 C 811.421875 537.679688 761.246094 575.835938 704 576 Z M 704 576 " />
  </g>
</svg>