<svg xmlns="http://www.w3.org/2000/svg" xmlns:xlink="http://www.w3.org/1999/xlink" viewBox="0 0 1024 1024" version="1.1">
  <g id="surface1">
    <path fill="currentColor" d="M 192 960 L 467.199219 960 L 467.199219 576 L 192 576 Z M 626.558594 320 C 714.925781 320 786.558594 248.367188 786.558594 160 C 786.558594 71.632812 714.925781 0 626.558594 0 C 583.34375 -0.0585938 541.972656 17.507812 512 48.640625 C 482.027344 17.507812 440.65625 -0.0585938 397.441406 0 C 309.074219 0 237.441406 71.632812 237.441406 160 C 237.441406 248.367188 309.074219 320 397.441406 320 L 128 320 L 128 512 L 467.199219 512 L 467.199219 320 L 556.800781 320 L 556.800781 512 L 896 512 L 896 320 Z M 466.558594 160 L 466.558594 230.398438 L 397.441406 230.398438 C 358.816406 230.726562 327.144531 199.871094 326.457031 161.253906 C 325.773438 122.632812 356.328125 90.675781 394.941406 89.628906 C 433.550781 88.582031 465.792969 118.839844 467.199219 157.441406 C 467.199219 157.441406 466.558594 159.359375 466.558594 160 Z M 556.800781 160 C 556.800781 131.46875 574.023438 105.757812 600.410156 94.898438 C 626.792969 84.042969 657.125 90.183594 677.207031 110.449219 C 697.289062 130.71875 703.152344 161.101562 692.054688 187.386719 C 680.957031 213.671875 655.089844 230.660156 626.558594 230.398438 L 557.441406 230.398438 L 557.441406 160 C 557.441406 160 556.800781 158.078125 556.800781 157.441406 Z M 556.800781 960 L 832 960 L 832 576 L 556.800781 576 Z M 556.800781 960 " />
  </g>
</svg>