<svg xmlns="http://www.w3.org/2000/svg" xmlns:xlink="http://www.w3.org/1999/xlink" viewBox="0 0 1024 1024" version="1.1">
  <g id="surface1">
    <path fill="currentColor" d="M 960 358.398438 L 665.601562 64 C 584.535156 -15.820312 455.667969 -19.726562 369.921875 55.039062 L 490.238281 175.359375 C 514.980469 166.527344 542.480469 170.40625 563.816406 185.738281 C 585.148438 201.066406 597.597656 225.894531 597.121094 252.160156 L 597.121094 256 C 596.710938 264.328125 594.984375 272.535156 592 280.320312 L 748.800781 433.921875 C 756.363281 430.9375 764.359375 429.210938 772.480469 428.800781 C 818.429688 428.800781 855.679688 466.050781 855.679688 512 C 855.679688 557.949219 818.429688 595.199219 772.480469 595.199219 C 726.53125 595.199219 689.28125 557.949219 689.28125 512 C 689.691406 503.882812 691.417969 495.882812 694.398438 488.320312 L 550.398438 344.320312 L 550.398438 679.039062 C 578.816406 692.5625 596.976562 721.167969 597.121094 752.640625 C 597.121094 798.589844 559.871094 835.839844 513.921875 835.839844 C 467.96875 835.839844 430.71875 798.589844 430.71875 752.640625 C 430.9375 722.898438 447.386719 695.652344 473.601562 681.601562 L 473.601562 324.480469 C 448.167969 310.878906 431.851562 284.816406 430.71875 256 C 431.128906 247.882812 432.859375 239.882812 435.839844 232.320312 L 314.238281 110.71875 L 64 358.398438 C 23.238281 398.992188 0.320312 454.152344 0.320312 511.679688 C 0.320312 569.207031 23.238281 624.367188 64 664.960938 L 358.398438 960 C 398.992188 1000.761719 454.152344 1023.679688 511.679688 1023.679688 C 569.207031 1023.679688 624.367188 1000.761719 664.960938 960 L 960 665.601562 C 1000.761719 625.007812 1023.679688 569.847656 1023.679688 512.320312 C 1023.679688 454.792969 1000.761719 399.632812 960 359.039062 Z M 960 358.398438 " />
  </g>
</svg>