<svg xmlns="http://www.w3.org/2000/svg" xmlns:xlink="http://www.w3.org/1999/xlink" viewBox="0 0 1024 1024" version="1.1">
  <g id="surface1">
    <path fill="currentColor" d="M 815.359375 576 L 208.640625 576 C 180.902344 575.957031 153.453125 581.621094 128 592.640625 C 50.828125 625.347656 0.511719 700.824219 0 784.640625 L 0 1024 L 1024 1024 L 1024 784.640625 C 1023.648438 669.558594 930.441406 576.351562 815.359375 576 Z M 934.398438 934.398438 L 345.601562 934.398438 L 345.601562 784.640625 C 345.949219 719.042969 399.042969 665.949219 464.640625 665.601562 L 815.359375 665.601562 C 880.957031 665.949219 934.050781 719.042969 934.398438 784.640625 Z M 362.878906 512 C 418.109375 511.863281 471.296875 491.089844 512 453.761719 C 552.703125 491.089844 605.890625 511.863281 661.121094 512 C 784.832031 512 885.121094 411.710938 885.121094 288 C 885.121094 164.289062 784.832031 64 661.121094 64 C 605.890625 64.136719 552.703125 84.910156 512 122.238281 C 471.296875 84.910156 418.109375 64.136719 362.878906 64 C 239.167969 64 138.878906 164.289062 138.878906 288 C 138.878906 411.710938 239.167969 512 362.878906 512 Z M 661.121094 153.601562 C 735.347656 153.601562 795.519531 213.773438 795.519531 288 C 795.519531 362.226562 735.347656 422.398438 661.121094 422.398438 C 586.894531 422.398438 526.71875 362.226562 526.71875 288 C 526.71875 213.773438 586.894531 153.601562 661.121094 153.601562 Z M 661.121094 153.601562 " />
  </g>
</svg>