<svg xmlns="http://www.w3.org/2000/svg" xmlns:xlink="http://www.w3.org/1999/xlink" viewBox="0 0 1024 1024" version="1.1">
  <g id="surface1">
    <path fill="currentColor" d="M 465.28125 768 L 561.921875 768 L 561.921875 675.199219 L 465.28125 675.199219 Z M 634.878906 293.121094 C 596.863281 267.242188 551.554688 254.230469 505.601562 256 C 470.691406 254.964844 436.230469 264.078125 406.398438 282.238281 C 361.105469 313.585938 335.210938 366.101562 337.921875 421.121094 L 437.121094 421.121094 C 437.109375 401.53125 442.902344 382.382812 453.761719 366.078125 C 466.4375 346.773438 489.140625 336.546875 512 339.839844 C 532.90625 337.289062 553.726562 345.1875 567.679688 360.960938 C 577.796875 374.90625 583.179688 391.730469 583.039062 408.960938 C 581.746094 423.171875 576.414062 436.714844 567.679688 448 C 562.007812 455.710938 555.085938 462.414062 547.199219 467.839844 L 522.238281 487.679688 C 503.09375 500.730469 487.480469 518.320312 476.800781 538.878906 C 469.125 564.851562 465.246094 591.796875 465.28125 618.878906 L 558.71875 618.878906 C 558.277344 605.292969 559.785156 591.714844 563.199219 578.558594 C 568.042969 564.019531 577.195312 551.296875 589.441406 542.078125 L 613.761719 523.519531 C 632.640625 510.277344 649.460938 494.316406 663.679688 476.160156 C 679.1875 454.105469 687.054688 427.582031 686.078125 400.640625 C 687.738281 358.558594 668.59375 318.355469 634.878906 293.121094 Z M 826.878906 195.199219 C 650.0625 22.984375 367.261719 26.230469 194.441406 202.457031 C 21.621094 378.679688 23.894531 661.492188 199.527344 834.914062 C 375.15625 1008.339844 657.976562 1007.035156 832 832 C 917.007812 747.855469 964.839844 633.210938 964.839844 513.601562 C 964.839844 393.988281 917.007812 279.34375 832 195.199219 Z M 768 768 C 700.589844 836.800781 608.320312 875.570312 512 875.570312 C 415.679688 875.570312 323.410156 836.800781 256 768 C 187.359375 700.503906 148.703125 608.265625 148.703125 512 C 148.703125 415.734375 187.359375 323.496094 256 256 C 323.410156 187.199219 415.679688 148.429688 512 148.429688 C 608.320312 148.429688 700.589844 187.199219 768 256 C 836.640625 323.496094 875.296875 415.734375 875.296875 512 C 875.296875 608.265625 836.640625 700.503906 768 768 Z M 768 768 " />
  </g>
</svg>