<svg xmlns="http://www.w3.org/2000/svg" xmlns:xlink="http://www.w3.org/1999/xlink" viewBox="0 0 1024 1024" version="1.1">
  <g id="surface1">
    <path fill="currentColor" d="M 960 0 L 467.199219 0 L 467.199219 474.878906 C 467.082031 496.097656 480.066406 515.1875 499.839844 522.878906 C 506.136719 525.449219 512.878906 526.753906 519.679688 526.71875 C 533.472656 526.695312 546.738281 521.433594 556.800781 512 L 684.800781 384 L 620.800781 320 L 556.800781 384 L 556.800781 156.800781 C 738.289062 179.691406 873.414062 335.585938 870.296875 518.484375 C 867.183594 701.386719 726.828125 852.589844 544.664062 869.285156 C 362.503906 885.984375 197 762.820312 160.683594 583.535156 C 124.367188 404.25 228.898438 226.386719 403.199219 170.878906 L 403.199219 78.078125 C 187.429688 132.046875 43.925781 336.140625 66.140625 557.441406 C 88.359375 778.746094 269.570312 950.242188 491.761719 960.238281 C 713.953125 970.238281 909.835938 815.710938 951.839844 597.300781 C 993.84375 378.886719 869.25 162.726562 659.199219 89.601562 L 960 89.601562 Z M 960 0 " />
  </g>
</svg>