<svg xmlns="http://www.w3.org/2000/svg" xmlns:xlink="http://www.w3.org/1999/xlink" viewBox="0 0 1024 1024" version="1.1">
  <g id="surface1">
    <path fill="currentColor" d="M 832 196.480469 L 832 68.480469 L 192 68.480469 L 192 196.480469 C 193.925781 363.09375 323.382812 500.347656 489.601562 512 C 321.671875 523.785156 191.585938 663.660156 192 832 L 192 960 L 832 960 L 832 832 C 832.414062 663.660156 702.328125 523.785156 534.398438 512 C 700.617188 500.347656 830.074219 363.09375 832 196.480469 Z M 281.601562 158.078125 L 742.398438 158.078125 L 742.398438 196.480469 C 741.976562 216.621094 738.96875 236.625 733.441406 256 L 290.558594 256 C 285.03125 236.625 282.023438 216.621094 281.601562 196.480469 Z M 742.398438 832 L 742.398438 870.398438 L 281.601562 870.398438 L 281.601562 832 C 281.601562 704.753906 384.753906 601.601562 512 601.601562 C 639.246094 601.601562 742.398438 704.753906 742.398438 832 Z M 742.398438 832 " />
  </g>
</svg>