<svg xmlns="http://www.w3.org/2000/svg" xmlns:xlink="http://www.w3.org/1999/xlink" viewBox="0 0 1024 1024" version="1.1">
  <g id="surface1">
    <path fill="currentColor" d="M 619.519531 723.839844 L 587.519531 723.839844 C 722.207031 689.609375 816.53125 568.40625 816.640625 429.441406 C 816.640625 424.960938 816.640625 421.121094 816.640625 416.640625 L 960 183.039062 L 512 0 L 64 183.039062 L 208 417.28125 C 207.71875 421.328125 207.71875 425.390625 208 429.441406 C 208.105469 568.40625 302.433594 689.609375 437.121094 723.839844 L 402.558594 723.839844 C 259.925781 716.164062 137.597656 824.523438 128 967.039062 L 128 1024 L 896 1024 L 896 968.320312 C 887.082031 824.5 763.351562 715.085938 619.519531 723.839844 Z M 512 217.601562 C 533.207031 217.601562 550.398438 234.792969 550.398438 256 C 550.398438 277.207031 533.207031 294.398438 512 294.398438 C 490.792969 294.398438 473.601562 277.207031 473.601562 256 C 473.601562 234.792969 490.792969 217.601562 512 217.601562 Z M 454.398438 933.121094 L 222.078125 933.121094 C 250.15625 858.496094 322.894531 810.265625 402.558594 813.441406 L 454.398438 813.441406 Z M 296.320312 429.441406 C 296.007812 427.53125 296.007812 425.585938 296.320312 423.679688 L 725.761719 423.679688 C 725.761719 423.679688 725.761719 427.519531 725.761719 429.441406 C 730.109375 509.183594 690.039062 584.800781 621.613281 625.980469 C 553.1875 667.160156 467.609375 667.160156 399.1875 625.980469 C 330.761719 584.800781 290.691406 509.183594 295.039062 429.441406 Z M 569.601562 933.121094 L 569.601562 813.441406 L 619.519531 813.441406 C 699.1875 810.265625 771.921875 858.496094 800 933.121094 Z M 569.601562 933.121094 " />
  </g>
</svg>