<svg xmlns="http://www.w3.org/2000/svg" xmlns:xlink="http://www.w3.org/1999/xlink" viewBox="0 0 1024 1024" version="1.1">
  <g id="surface1">
    <path fill="currentColor" d="M 384 128 C 384 92.652344 412.652344 64 448 64 L 576 64 C 611.347656 64 640 92.652344 640 128 L 640 192 C 640 227.347656 611.347656 256 576 256 L 448 256 C 412.652344 256 384 227.347656 384 192 Z M 320 128 L 192 128 L 192 960 L 832 960 L 832 128 L 704 128 L 704 217.601562 L 742.398438 217.601562 L 742.398438 870.398438 L 281.601562 870.398438 L 281.601562 217.601562 L 320 217.601562 Z M 484.996094 705.355469 L 703.355469 487 L 639.996094 423.644531 L 484.996094 578.644531 L 407.496094 501.144531 L 344.140625 564.5 Z M 484.996094 705.355469 " />
  </g>
</svg>