<svg xmlns="http://www.w3.org/2000/svg" xmlns:xlink="http://www.w3.org/1999/xlink" viewBox="0 0 1024 1024" version="1.1">
  <g id="surface1">
    <path fill="currentColor" d="M 832 320 C 832 143.269531 688.730469 0 512 0 C 488.789062 0.15625 465.644531 2.515625 442.878906 7.039062 C 327.183594 33.023438 235.335938 120.855469 204.214844 235.28125 C 173.09375 349.703125 207.800781 471.957031 294.398438 552.960938 C 333.582031 589.183594 358.546875 638.207031 364.800781 691.199219 C 346.59375 691.199219 330.199219 702.210938 323.316406 719.0625 C 316.4375 735.917969 320.4375 755.257812 333.441406 768 C 324.839844 776.425781 319.992188 787.960938 319.992188 800 C 319.992188 812.039062 324.839844 823.574219 333.441406 832 C 320.4375 844.742188 316.4375 864.082031 323.316406 880.9375 C 330.199219 897.789062 346.59375 908.800781 364.800781 908.800781 L 384 908.800781 C 384 979.492188 441.308594 1036.800781 512 1036.800781 C 582.691406 1036.800781 640 979.492188 640 908.800781 L 660.480469 908.800781 C 678.683594 908.800781 695.082031 897.789062 701.960938 880.9375 C 708.84375 864.082031 704.84375 844.742188 691.839844 832 C 700.441406 823.574219 705.285156 812.039062 705.285156 800 C 705.285156 787.960938 700.441406 776.425781 691.839844 768 C 704.84375 755.257812 708.84375 735.917969 701.960938 719.0625 C 695.082031 702.210938 678.683594 691.199219 660.480469 691.199219 C 666.730469 638.207031 691.695312 589.183594 730.878906 552.960938 C 795.277344 492.578125 831.867188 408.277344 832 320 Z M 569.601562 691.199219 L 454.398438 691.199219 C 447.984375 613.148438 412.597656 540.320312 355.199219 487.039062 C 296.613281 433.683594 270.15625 353.59375 285.441406 275.839844 C 302.441406 185.84375 371.402344 114.617188 460.800781 94.71875 C 477.675781 91.464844 494.8125 89.75 512 89.601562 C 639.246094 89.601562 742.398438 192.753906 742.398438 320 C 742.613281 383.585938 715.871094 444.285156 668.800781 487.039062 C 611.402344 540.320312 576.015625 613.148438 569.601562 691.199219 Z M 512 160 L 512 224 C 565.019531 224 608 266.980469 608 320 L 672 320 C 672 231.632812 600.367188 160 512 160 Z M 512 160 " />
  </g>
</svg>