<svg xmlns="http://www.w3.org/2000/svg" xmlns:xlink="http://www.w3.org/1999/xlink" viewBox="0 0 1024 1024" version="1.1">
  <g id="surface1">
    <path fill="currentColor" d="M 885.121094 530.558594 L 725.761719 371.199219 C 713.742188 358.929688 700.441406 347.984375 686.078125 338.558594 C 616.746094 294.171875 530.296875 285.835938 453.761719 316.160156 C 391.570312 342.125 342.125 391.570312 316.160156 453.761719 L 389.761719 526.71875 C 398.390625 454.957031 454.957031 398.390625 526.71875 389.761719 C 533.957031 389.09375 541.242188 389.09375 548.480469 389.761719 C 573.179688 389.9375 597.5 395.851562 619.519531 407.039062 C 635.4375 414.527344 649.941406 424.703125 662.398438 437.121094 L 726.398438 501.121094 L 823.679688 598.398438 C 867.582031 638.414062 885.933594 699.324219 871.449219 756.929688 C 856.960938 814.539062 811.980469 859.519531 754.371094 874.007812 C 696.761719 888.496094 635.855469 870.140625 595.839844 826.238281 L 554.238281 784.640625 C 529.390625 791.269531 503.796875 794.707031 478.078125 794.878906 C 463.046875 794.6875 448.054688 793.191406 433.28125 790.398438 L 532.480469 889.601562 C 631.359375 981.488281 785.214844 978.671875 880.664062 883.222656 C 976.109375 787.777344 978.929688 633.917969 887.039062 535.039062 Z M 496.640625 722.558594 C 522.058594 721.054688 547.097656 715.660156 570.878906 706.558594 C 601.726562 693.773438 629.773438 675.074219 653.441406 651.519531 C 676.996094 627.851562 695.691406 599.804688 708.480469 568.960938 L 634.878906 497.28125 C 626.691406 569.613281 569.613281 626.691406 497.28125 634.878906 L 476.160156 634.878906 C 451.253906 634.710938 426.726562 628.796875 404.480469 617.601562 C 388.785156 610.332031 374.488281 600.367188 362.238281 588.160156 L 202.238281 428.160156 C 172.035156 397.980469 155.203125 356.9375 155.519531 314.238281 C 156.496094 255.351562 189.496094 201.675781 241.601562 174.222656 C 293.710938 146.769531 356.636719 149.90625 405.761719 182.398438 C 414.683594 187.941406 422.859375 194.609375 430.078125 202.238281 L 472.320312 244.480469 C 497.132812 237.59375 522.730469 233.9375 548.480469 233.601562 C 563.28125 234.140625 578.03125 235.636719 592.640625 238.078125 L 493.441406 138.878906 C 394.5625 46.992188 240.703125 49.808594 145.257812 145.257812 C 49.808594 240.703125 46.992188 394.5625 138.878906 493.441406 L 298.878906 653.441406 C 310.683594 665.5 323.777344 676.230469 337.921875 685.441406 C 351.597656 694.03125 365.933594 701.523438 380.800781 707.839844 C 410.953125 719.757812 443.097656 725.839844 475.519531 725.761719 C 483.199219 726.398438 489.601562 725.121094 496.640625 724.480469 Z M 496.640625 722.558594 " />
  </g>
</svg>