<svg xmlns="http://www.w3.org/2000/svg" xmlns:xlink="http://www.w3.org/1999/xlink" viewBox="0 0 1024 1024" version="1.1">
  <g id="surface1">
    <path fill="currentColor" d="M 768 384 L 768 239.359375 C 767.648438 107.3125 660.6875 0.351562 528.640625 0 L 495.359375 0 C 363.3125 0.351562 256.351562 107.3125 256 239.359375 L 256 384 L 128 384 L 128 960 L 896 960 L 896 384 Z M 556.800781 768 C 556.800781 792.742188 536.742188 812.800781 512 812.800781 C 487.257812 812.800781 467.199219 792.742188 467.199219 768 L 467.199219 512 L 556.800781 512 Z M 678.398438 384 L 345.601562 384 L 345.601562 239.359375 C 345.601562 156.648438 412.648438 89.601562 495.359375 89.601562 L 528.640625 89.601562 C 611.351562 89.601562 678.398438 156.648438 678.398438 239.359375 Z M 678.398438 384 " />
  </g>
</svg>