<svg xmlns="http://www.w3.org/2000/svg" xmlns:xlink="http://www.w3.org/1999/xlink" viewBox="0 0 1024 1024" version="1.1">
  <g id="surface1">
    <path fill="currentColor" d="M 801.28125 35.199219 L 481.28125 355.199219 L 35.199219 800.640625 L 227.199219 992.640625 L 995.199219 224.640625 Z M 545.28125 419.199219 L 801.28125 163.199219 L 865.28125 227.199219 L 609.28125 486.398438 Z M 177.28125 203.519531 C 255.371094 227.503906 316.496094 288.628906 340.480469 366.71875 C 364.464844 288.628906 425.589844 227.503906 503.679688 203.519531 C 425.5625 179.960938 364.34375 118.984375 340.480469 40.960938 C 316.613281 118.984375 255.398438 179.960938 177.28125 203.519531 Z M 544 163.199219 C 556.679688 124.390625 587.109375 93.960938 625.921875 81.28125 C 586.796875 69.492188 556.09375 39.027344 544 0 C 532.4375 39.121094 501.839844 69.71875 462.71875 81.28125 C 501.75 93.375 532.210938 124.078125 544 163.199219 Z M 136.960938 163.199219 C 148.75 124.078125 179.210938 93.375 218.238281 81.28125 C 179.121094 69.71875 148.523438 39.121094 136.960938 0 C 124.863281 39.027344 94.160156 69.492188 55.039062 81.28125 C 93.847656 93.960938 124.28125 124.390625 136.960938 163.199219 Z M 942.71875 398.078125 C 930.429688 436.988281 899.804688 467.375 860.800781 479.359375 C 899.804688 491.347656 930.429688 521.730469 942.71875 560.640625 C 954.488281 521.644531 985.003906 491.128906 1024 479.359375 C 985.003906 467.589844 954.488281 437.078125 942.71875 398.078125 Z M 942.71875 398.078125 " />
  </g>
</svg>