<svg xmlns="http://www.w3.org/2000/svg" xmlns:xlink="http://www.w3.org/1999/xlink" viewBox="0 0 1024 1024" version="1.1">
  <g id="surface1">
    <path fill="currentColor" d="M 317.441406 691.199219 C 317.441406 739.269531 278.472656 778.238281 230.398438 778.238281 C 182.328125 778.238281 143.359375 739.269531 143.359375 691.199219 L 51.199219 691.199219 C 51.199219 790.167969 131.429688 870.398438 230.398438 870.398438 C 329.371094 870.398438 409.601562 790.167969 409.601562 691.199219 L 409.601562 435.199219 L 317.441406 435.199219 Z M 343.039062 307.199219 C 362.832031 307.199219 378.878906 291.152344 378.878906 271.359375 C 378.878906 251.566406 362.832031 235.519531 343.039062 235.519531 C 323.246094 235.519531 307.199219 251.566406 307.199219 271.359375 C 307.199219 291.152344 323.246094 307.199219 343.039062 307.199219 Z M 512 870.398438 L 583.679688 870.398438 L 583.679688 716.800781 L 512 716.800781 Z M 865.792969 204.800781 L 712.191406 204.800781 C 686.578125 142.605469 625.851562 102.121094 558.59375 102.398438 L 358.398438 102.398438 C 268.789062 102.113281 195.683594 174.078125 194.558594 263.679688 L 194.558594 630.785156 C 194.558594 650.578125 210.605469 666.625 230.398438 666.625 C 250.195312 666.625 266.238281 650.578125 266.238281 630.785156 L 266.238281 263.679688 C 267.355469 213.667969 308.375 173.789062 358.398438 174.078125 L 555.007812 174.078125 C 579.578125 173.113281 603.507812 182.058594 621.414062 198.910156 C 639.324219 215.757812 649.710938 239.097656 650.238281 263.679688 C 648.84375 314.179688 607.054688 354.140625 556.542969 353.28125 C 536.75 353.28125 520.703125 369.324219 520.703125 389.121094 C 520.703125 408.914062 536.75 424.960938 556.542969 424.960938 C 641.449219 425.578125 712.667969 361.035156 720.382812 276.480469 L 865.792969 276.480469 C 885.304688 276.480469 901.121094 292.296875 901.121094 311.808594 L 901.121094 716.800781 L 798.71875 716.800781 L 798.71875 870.398438 L 972.800781 870.398438 L 972.800781 311.808594 C 972.519531 252.824219 924.773438 205.082031 865.792969 204.800781 Z M 865.792969 204.800781 " />
  </g>
</svg>