<svg xmlns="http://www.w3.org/2000/svg" xmlns:xlink="http://www.w3.org/1999/xlink" viewBox="0 0 1024 1024" version="1.1">
  <g id="surface1">
    <path fill="currentColor" d="M 861.183594 261.121094 L 614.398438 340.992188 L 572.414062 102.398438 C 532.300781 97.28125 491.699219 97.28125 451.585938 102.398438 L 409.601562 340.992188 L 162.816406 261.121094 C 138.097656 290.09375 117.746094 322.519531 102.398438 357.375 L 299.007812 512 L 102.398438 666.625 C 117.746094 701.480469 138.097656 733.90625 162.816406 762.878906 L 409.601562 683.007812 L 451.585938 921.601562 C 491.699219 926.71875 532.300781 926.71875 572.414062 921.601562 L 614.398438 683.007812 L 857.089844 762.878906 C 883.414062 734.300781 905.171875 701.835938 921.601562 666.625 L 724.992188 512 L 921.601562 357.375 C 906.253906 322.519531 885.902344 290.09375 861.183594 261.121094 Z M 861.183594 261.121094 " />
  </g>
</svg>