<svg xmlns="http://www.w3.org/2000/svg" xmlns:xlink="http://www.w3.org/1999/xlink" viewBox="0 0 1024 1024" version="1.1">
  <g id="surface1">
    <path fill="currentColor" d="M 512 416 C 458.980469 416 416 458.980469 416 512 C 416 565.019531 458.980469 608 512 608 C 565.019531 608 608 565.019531 608 512 C 608 458.980469 565.019531 416 512 416 Z M 832 416 C 793.007812 415.21875 757.417969 438.109375 741.949219 473.914062 C 726.484375 509.714844 734.21875 551.320312 761.515625 579.175781 C 788.8125 607.027344 830.25 615.601562 866.359375 600.859375 C 902.46875 586.121094 926.070312 551 926.078125 512 C 926.089844 459.722656 884.269531 417.046875 832 416 Z M 192 416 C 139.242188 417.054688 97.226562 460.492188 97.929688 513.253906 C 98.628906 566.015625 141.78125 608.324219 194.546875 607.980469 C 247.3125 607.632812 289.910156 564.765625 289.921875 512 C 289.925781 486.203125 279.546875 461.488281 261.125 443.429688 C 242.707031 425.371094 217.792969 415.484375 192 416 Z M 192 416 " />
  </g>
</svg>