<svg xmlns="http://www.w3.org/2000/svg" xmlns:xlink="http://www.w3.org/1999/xlink" viewBox="0 0 1024 1024" version="1.1">
  <g id="surface1">
    <path fill="currentColor" d="M 172.160156 542.078125 C 172.160156 371.359375 310.558594 232.960938 481.28125 232.960938 L 768 232.960938 L 768 384 L 960 192 L 768 0 L 768 143.359375 L 481.28125 143.359375 C 261.074219 143.359375 82.558594 321.871094 82.558594 542.078125 C 82.558594 762.285156 261.074219 940.800781 481.28125 940.800781 L 512 940.800781 L 512 851.199219 L 481.28125 851.199219 C 310.703125 850.847656 172.511719 712.65625 172.160156 542.078125 Z M 576 620.800781 L 960 620.800781 L 960 531.199219 L 576 531.199219 Z M 576 940.800781 L 960 940.800781 L 960 851.199219 L 576 851.199219 Z M 576 940.800781 " />
  </g>
</svg>