<svg xmlns="http://www.w3.org/2000/svg" xmlns:xlink="http://www.w3.org/1999/xlink" viewBox="0 0 1024 1024" version="1.1">
  <g id="surface1">
    <path fill="currentColor" d="M 128 480 L 128 672 C 128 723.199219 166.398438 768 217.601562 768 L 364.800781 768 L 569.601562 947.199219 C 576 953.601562 588.800781 960 595.199219 960 C 601.601562 960 608 960 614.398438 953.601562 C 627.199219 947.199219 640 928 640 908.800781 L 640 851.199219 L 179.199219 390.398438 C 147.199219 403.199219 128 441.601562 128 480 Z M 640 608 L 640 236.800781 C 640 217.601562 633.601562 204.800781 614.398438 192 C 608 192 601.601562 192 595.199219 192 C 588.800781 192 576 192 569.601562 204.800781 L 390.398438 364.800781 L 128 102.398438 L 64 166.398438 L 640 742.398438 L 870.398438 972.800781 L 934.398438 908.800781 Z M 640 608 " />
  </g>
</svg>