<svg xmlns="http://www.w3.org/2000/svg" xmlns:xlink="http://www.w3.org/1999/xlink" viewBox="0 0 1024 1024" version="1.1">
  <g id="surface1">
    <path fill="currentColor" d="M 512 64 C 264.578125 64 64 264.578125 64 512 C 64 759.421875 264.578125 960 512 960 C 759.421875 960 960 759.421875 960 512 C 960 264.578125 759.421875 64 512 64 Z M 870.398438 512 C 870.285156 587.148438 846.554688 660.355469 802.558594 721.28125 L 302.71875 221.441406 C 411.71875 142.457031 555.824219 131.339844 675.644531 192.671875 C 795.46875 254 870.722656 377.394531 870.398438 512 Z M 153.601562 512 C 153.714844 436.851562 177.445312 363.644531 221.441406 302.71875 L 721.28125 802.558594 C 612.28125 881.542969 468.175781 892.660156 348.355469 831.328125 C 228.53125 770 153.277344 646.605469 153.601562 512 Z M 153.601562 512 " />
  </g>
</svg>