<svg xmlns="http://www.w3.org/2000/svg" xmlns:xlink="http://www.w3.org/1999/xlink" viewBox="0 0 1024 1024" version="1.1">
  <g id="surface1">
    <path fill="currentColor" d="M 500.480469 516.480469 L 326.398438 343.039062 L 172.800781 283.519531 L 236.800781 256 L 172.800781 192 L 64 241.28125 L 64 349.441406 L 494.078125 515.199219 Z M 512 737.28125 C 517.933594 738.246094 523.984375 738.246094 529.921875 737.28125 L 665.601562 684.800781 L 587.519531 604.160156 L 512 632.960938 L 64 460.160156 L 64 567.679688 L 494.71875 734.078125 C 500.652344 735.046875 506.707031 735.046875 512.640625 734.078125 Z M 846.078125 612.480469 L 960 568.320312 L 960 460.160156 L 768 534.398438 L 688 454.398438 L 960 349.441406 L 960 241.28125 L 525.441406 64 C 516.761719 60.816406 507.238281 60.816406 498.558594 64 L 356.480469 120.960938 L 297.601562 64 L 165.761719 64 L 960 858.878906 L 960 726.398438 Z M 416.640625 183.679688 L 512 145.28125 L 852.480469 282.878906 L 609.921875 376.320312 Z M 512 855.679688 L 64 682.878906 L 64 790.398438 L 494.078125 960 C 505.601562 964.5 518.398438 964.5 529.921875 960 L 826.878906 845.441406 L 748.800781 764.160156 Z M 512 855.679688 " />
  </g>
</svg>