<svg xmlns="http://www.w3.org/2000/svg" xmlns:xlink="http://www.w3.org/1999/xlink" viewBox="0 0 1024 1024" version="1.1">
  <g id="surface1">
    <path fill="currentColor" d="M 832 195.199219 C 656.578125 21.5625 373.753906 22.527344 199.515625 197.355469 C 25.28125 372.1875 25.28125 655.011719 199.515625 829.84375 C 373.753906 1004.671875 656.578125 1005.636719 832 832 C 917.007812 747.855469 964.839844 633.210938 964.839844 513.601562 C 964.839844 393.988281 917.007812 279.34375 832 195.199219 Z M 768 768 C 700.589844 836.800781 608.320312 875.570312 512 875.570312 C 415.679688 875.570312 323.410156 836.800781 256 768 C 187.359375 700.503906 148.703125 608.265625 148.703125 512 C 148.703125 415.734375 187.359375 323.496094 256 256 C 323.410156 187.199219 415.679688 148.429688 512 148.429688 C 608.320312 148.429688 700.589844 187.199219 768 256 C 774.398438 262.398438 779.519531 270.078125 785.28125 277.121094 L 486.398438 576 L 320 396.160156 L 236.160156 473.601562 L 482.558594 743.039062 L 844.800781 380.160156 C 898.921875 513.179688 868.730469 665.644531 768 768 Z M 768 768 " />
  </g>
</svg>