<svg xmlns="http://www.w3.org/2000/svg" xmlns:xlink="http://www.w3.org/1999/xlink" viewBox="0 0 1024 1024" version="1.1">
  <g id="surface1">
    <path fill="currentColor" d="M 640 149.121094 L 640 11.519531 C 608.824219 4.914062 577.128906 1.058594 545.28125 0 L 538.878906 0 C 350.535156 3.996094 181.84375 117.515625 107.203125 290.484375 C 32.5625 463.449219 65.699219 664.066406 192 803.839844 C 303.066406 942.730469 490.320312 995.351562 657.472656 934.640625 C 824.628906 873.933594 934.46875 713.40625 930.515625 535.613281 C 926.558594 357.820312 809.6875 202.335938 640 149.121094 Z M 512 868.480469 C 332.003906 868.480469 186.121094 722.5 186.242188 542.507812 C 186.359375 362.511719 332.433594 216.722656 512.425781 216.960938 C 692.421875 217.195312 838.113281 363.363281 837.761719 543.359375 C 837.054688 722.875 691.515625 868.128906 512 868.480469 Z M 467.199219 557.441406 L 373.121094 651.519531 L 437.121094 715.519531 L 556.800781 594.558594 L 556.800781 304.640625 L 467.199219 304.640625 Z M 467.199219 557.441406 " />
  </g>
</svg>