<svg xmlns="http://www.w3.org/2000/svg" xmlns:xlink="http://www.w3.org/1999/xlink" viewBox="0 0 1024 1024" version="1.1">
  <g id="surface1">
    <path fill="currentColor" d="M 931.199219 294.398438 L 727.679688 90.238281 C 712.425781 75.902344 692.292969 67.894531 671.359375 67.839844 C 648.789062 67.855469 627.152344 76.832031 611.199219 92.800781 L 145.921875 558.078125 C 133.285156 570.5 124.984375 586.65625 122.238281 604.160156 L 64 960 L 421.121094 900.480469 C 438.621094 897.734375 454.777344 889.433594 467.199219 876.800781 L 931.839844 412.160156 C 963.871094 379.339844 963.585938 326.871094 931.199219 294.398438 Z M 652.800781 177.921875 L 844.800781 369.921875 L 444.160156 774.398438 L 252.160156 582.398438 Z M 186.878906 761.601562 L 203.519531 659.839844 L 363.519531 819.839844 L 263.039062 836.480469 Z M 186.878906 761.601562 " />
  </g>
</svg>