<svg xmlns="http://www.w3.org/2000/svg" xmlns:xlink="http://www.w3.org/1999/xlink" viewBox="0 0 1024 1024" version="1.1">
  <g id="surface1">
    <path fill="currentColor" d="M 923.519531 292.480469 L 987.519531 228.480469 L 817.921875 60.160156 L 753.921875 124.160156 L 698.238281 180.480469 L 634.238281 244.480469 L 501.761719 376.960938 C 365.578125 282.828125 180.078125 308.105469 74.050781 435.246094 C -31.980469 562.386719 -23.53125 749.40625 93.53125 866.46875 C 210.59375 983.53125 397.613281 991.980469 524.753906 885.949219 C 651.894531 779.921875 677.171875 594.421875 583.039062 458.238281 L 716.800781 324.480469 L 803.839844 412.160156 L 867.839844 348.160156 L 780.160156 261.121094 L 836.480469 205.441406 Z M 320 870.398438 C 192.753906 870.398438 89.601562 767.246094 89.601562 640 C 89.601562 512.753906 192.753906 409.601562 320 409.601562 C 447.246094 409.601562 550.398438 512.753906 550.398438 640 C 550.398438 767.246094 447.246094 870.398438 320 870.398438 Z M 320 870.398438 " />
  </g>
</svg>