<svg
  xmlns="http://www.w3.org/2000/svg"
  xmlns:xlink="http://www.w3.org/1999/xlink"
  viewBox="0 0 1024 1024"
  version="1.1"
>
<g id="surface1">
<path
      fill="currentColor"
      d="M 384 256 C 384.113281 191.167969 335.734375 136.488281 271.367188 128.703125 C 207.003906 120.917969 146.984375 162.488281 131.636719 225.480469 C 116.292969 288.46875 150.46875 352.988281 211.199219 375.679688 L 211.199219 712.320312 C 153.203125 733.988281 119.03125 794.0625 130.039062 854.988281 C 141.050781 915.914062 194.085938 960.222656 256 960.222656 C 317.914062 960.222656 370.949219 915.914062 381.960938 854.988281 C 392.96875 794.0625 358.796875 733.988281 300.800781 712.320312 L 300.800781 375.679688 C 350.757812 357.015625 383.90625 309.332031 384 256 Z M 256 870.398438 C 234.792969 870.398438 217.601562 853.207031 217.601562 832 C 217.601562 810.792969 234.792969 793.601562 256 793.601562 C 277.207031 793.601562 294.398438 810.792969 294.398438 832 C 294.398438 853.207031 277.207031 870.398438 256 870.398438 Z M 256 294.398438 C 234.792969 294.398438 217.601562 277.207031 217.601562 256 C 217.601562 234.792969 234.792969 217.601562 256 217.601562 C 277.207031 217.601562 294.398438 234.792969 294.398438 256 C 294.398438 277.207031 277.207031 294.398438 256 294.398438 Z M 896 384 L 960 324.480469 L 857.601562 224 L 960 123.519531 L 896 64 L 798.078125 164.480469 L 697.601562 64 L 640 123.519531 L 737.921875 224 L 640 324.480469 L 697.601562 384 L 753.28125 328.320312 L 753.28125 712.320312 C 695.285156 733.988281 661.109375 794.0625 672.121094 854.988281 C 683.128906 915.914062 736.167969 960.222656 798.078125 960.222656 C 859.992188 960.222656 913.03125 915.914062 924.039062 854.988281 C 935.050781 794.0625 900.875 733.988281 842.878906 712.320312 L 842.878906 328.320312 Z M 796.160156 870.398438 C 774.953125 870.398438 757.761719 853.207031 757.761719 832 C 757.761719 810.792969 774.953125 793.601562 796.160156 793.601562 C 817.367188 793.601562 834.558594 810.792969 834.558594 832 C 834.585938 852.480469 818.535156 869.375 798.078125 870.398438 Z M 796.160156 870.398438 "
    />
</g>
</svg>
