<svg
  xmlns="http://www.w3.org/2000/svg"
  xmlns:xlink="http://www.w3.org/1999/xlink"
  viewBox="0 0 1024 1024"
  version="1.1"
>
<g id="surface1">
<path
      fill="currentColor"
      d="M 840.960938 711.679688 C 822.722656 457.804688 629.144531 251.414062 376.960938 216.960938 C 360.09375 164.289062 311.304688 128.40625 256 128 C 194.320312 128.285156 141.613281 172.519531 130.636719 233.214844 C 119.65625 293.914062 153.527344 353.804688 211.199219 375.679688 L 211.199219 712.320312 C 153.203125 733.988281 119.03125 794.0625 130.039062 854.988281 C 141.050781 915.914062 194.085938 960.222656 256 960.222656 C 317.914062 960.222656 370.949219 915.914062 381.960938 854.988281 C 392.96875 794.0625 358.796875 733.988281 300.800781 712.320312 L 300.800781 375.679688 C 333.527344 363.550781 359.878906 338.582031 373.761719 306.558594 C 578.449219 338.433594 734.589844 506.484375 751.359375 712.960938 C 693.363281 734.628906 659.191406 794.703125 670.199219 855.625 C 681.210938 916.550781 734.246094 960.863281 796.160156 960.863281 C 858.070312 960.863281 911.109375 916.550781 922.121094 855.625 C 933.128906 794.703125 898.957031 734.628906 840.960938 712.960938 Z M 256 217.601562 C 277.207031 217.601562 294.398438 234.792969 294.398438 256 C 294.398438 277.207031 277.207031 294.398438 256 294.398438 C 234.792969 294.398438 217.601562 277.207031 217.601562 256 C 217.601562 234.792969 234.792969 217.601562 256 217.601562 Z M 256 870.398438 C 234.792969 870.398438 217.601562 853.207031 217.601562 832 C 217.601562 810.792969 234.792969 793.601562 256 793.601562 C 277.207031 793.601562 294.398438 810.792969 294.398438 832 C 294.398438 853.207031 277.207031 870.398438 256 870.398438 Z M 798.078125 870.398438 C 776.871094 870.398438 759.679688 853.207031 759.679688 832 C 759.679688 810.792969 776.871094 793.601562 798.078125 793.601562 C 819.289062 793.601562 836.480469 810.792969 836.480469 832 C 836.480469 853.207031 819.289062 870.398438 798.078125 870.398438 Z M 798.078125 870.398438 "
    />
</g>
</svg>
