<svg
  xmlns="http://www.w3.org/2000/svg"
  xmlns:xlink="http://www.w3.org/1999/xlink"
  viewBox="0 0 1024 1024"
  version="1.1"
>
<g id="surface1">
<path
      fill="currentColor"
      d="M 384 256 C 384.113281 191.167969 335.734375 136.488281 271.367188 128.703125 C 207.003906 120.917969 146.984375 162.488281 131.636719 225.480469 C 116.292969 288.46875 150.46875 352.988281 211.199219 375.679688 L 211.199219 712.320312 C 153.203125 733.988281 119.03125 794.0625 130.039062 854.988281 C 141.050781 915.914062 194.085938 960.222656 256 960.222656 C 317.914062 960.222656 370.949219 915.914062 381.960938 854.988281 C 392.96875 794.0625 358.796875 733.988281 300.800781 712.320312 L 300.800781 375.679688 C 350.757812 357.015625 383.90625 309.332031 384 256 Z M 256 870.398438 C 234.792969 870.398438 217.601562 853.207031 217.601562 832 C 217.601562 810.792969 234.792969 793.601562 256 793.601562 C 277.207031 793.601562 294.398438 810.792969 294.398438 832 C 294.398438 853.207031 277.207031 870.398438 256 870.398438 Z M 256 294.398438 C 234.792969 294.398438 217.601562 277.207031 217.601562 256 C 217.601562 234.792969 234.792969 217.601562 256 217.601562 C 277.207031 217.601562 294.398438 234.792969 294.398438 256 C 294.398438 277.207031 277.207031 294.398438 256 294.398438 Z M 842.878906 712.320312 L 842.878906 362.878906 C 842.878906 279.109375 774.96875 211.199219 691.199219 211.199219 L 640 211.199219 L 640 64 L 448 256 L 640 448 L 640 300.800781 L 691.199219 300.800781 C 726.546875 300.800781 755.199219 329.453125 755.199219 364.800781 L 755.199219 714.238281 C 697.203125 735.910156 663.03125 795.980469 674.039062 856.90625 C 685.050781 917.832031 738.085938 962.144531 800 962.144531 C 861.914062 962.144531 914.949219 917.832031 925.960938 856.90625 C 936.96875 795.980469 902.796875 735.910156 844.800781 714.238281 Z M 798.078125 870.398438 C 776.871094 870.398438 759.679688 853.207031 759.679688 832 C 759.679688 810.792969 776.871094 793.601562 798.078125 793.601562 C 819.289062 793.601562 836.480469 810.792969 836.480469 832 C 836.480469 853.207031 819.289062 870.398438 798.078125 870.398438 Z M 798.078125 870.398438 "
    />
</g>
</svg>
