<svg
  xmlns="http://www.w3.org/2000/svg"
  xmlns:xlink="http://www.w3.org/1999/xlink"
  viewBox="0 0 1024 1024"
  version="1.1"
>
<g id="surface1">
<path
      fill="currentColor"
      d="M 753.28125 362.878906 L 753.28125 448 L 842.878906 448 L 842.878906 362.878906 C 842.878906 279.109375 774.96875 211.199219 691.199219 211.199219 L 640 211.199219 L 640 300.800781 L 691.199219 300.800781 C 725.0625 301.800781 752.277344 329.019531 753.28125 362.878906 Z M 256 128 C 194.320312 128.285156 141.613281 172.519531 130.636719 233.214844 C 119.65625 293.914062 153.527344 353.804688 211.199219 375.679688 L 211.199219 712.320312 C 153.203125 733.988281 119.03125 794.0625 130.039062 854.988281 C 141.050781 915.914062 194.085938 960.222656 256 960.222656 C 317.914062 960.222656 370.949219 915.914062 381.960938 854.988281 C 392.96875 794.0625 358.796875 733.988281 300.800781 712.320312 L 300.800781 375.679688 C 335.398438 362.699219 362.699219 335.398438 375.679688 300.800781 L 512 300.800781 L 512 211.199219 L 375.679688 211.199219 C 357.015625 161.242188 309.332031 128.09375 256 128 Z M 256 870.398438 C 234.792969 870.398438 217.601562 853.207031 217.601562 832 C 217.601562 810.792969 234.792969 793.601562 256 793.601562 C 277.207031 793.601562 294.398438 810.792969 294.398438 832 C 294.398438 853.207031 277.207031 870.398438 256 870.398438 Z M 256 294.398438 C 234.792969 294.398438 217.601562 277.207031 217.601562 256 C 217.601562 234.792969 234.792969 217.601562 256 217.601562 C 277.207031 217.601562 294.398438 234.792969 294.398438 256 C 294.398438 277.207031 277.207031 294.398438 256 294.398438 Z M 842.878906 712.320312 L 842.878906 576 L 753.28125 576 L 753.28125 712.320312 C 695.285156 733.988281 661.109375 794.0625 672.121094 854.988281 C 683.128906 915.914062 736.167969 960.222656 798.078125 960.222656 C 859.992188 960.222656 913.03125 915.914062 924.039062 854.988281 C 935.050781 794.0625 900.875 733.988281 842.878906 712.320312 Z M 798.078125 870.398438 C 776.871094 870.398438 759.679688 853.207031 759.679688 832 C 759.679688 810.792969 776.871094 793.601562 798.078125 793.601562 C 819.289062 793.601562 836.480469 810.792969 836.480469 832 C 836.480469 853.207031 819.289062 870.398438 798.078125 870.398438 Z M 798.078125 870.398438 "
    />
</g>
</svg>
