<svg
  xmlns="http://www.w3.org/2000/svg"
  xmlns:xlink="http://www.w3.org/1999/xlink"
  viewBox="0 0 1024 1024"
  version="1.1"
>
<g id="surface1">
<path
      fill="currentColor"
      d="M 832 512 L 832 320 L 576 64 L 192 64 L 192 512 L 0 512 L 0 896 L 192 896 L 192 960 L 832 960 L 832 896 L 1024 896 L 1024 512 Z M 576 153.601562 L 576 320 L 742.398438 320 L 742.398438 576 L 281.601562 576 L 281.601562 153.601562 Z M 281.601562 870.398438 L 281.601562 768 L 742.398438 768 L 742.398438 870.398438 Z M 870.398438 678.398438 C 849.191406 678.398438 832 661.207031 832 640 C 832 618.792969 849.191406 601.601562 870.398438 601.601562 C 891.609375 601.601562 908.800781 618.792969 908.800781 640 C 908.800781 661.207031 891.609375 678.398438 870.398438 678.398438 Z M 870.398438 678.398438 "
    />
</g>
</svg>
