<svg
  xmlns="http://www.w3.org/2000/svg"
  xmlns:xlink="http://www.w3.org/1999/xlink"
  viewBox="0 0 1024 1024"
  version="1.1"
>
<g id="surface1">
<path
      fill="currentColor"
      d="M 512 73.144531 L 512 365.714844 L 804.570312 365.714844 L 804.570312 73.144531 Z M 731.429688 292.570312 L 585.144531 292.570312 L 585.144531 146.285156 L 731.429688 146.285156 Z M 512 512 L 512 804.570312 L 804.570312 804.570312 L 804.570312 512 Z M 731.429688 731.429688 L 585.144531 731.429688 L 585.144531 585.144531 L 731.429688 585.144531 Z M 73.144531 73.144531 L 73.144531 365.714844 L 365.714844 365.714844 L 365.714844 73.144531 Z M 292.570312 292.570312 L 146.285156 292.570312 L 146.285156 146.285156 L 292.570312 146.285156 Z M 73.144531 512 L 73.144531 804.570312 L 365.714844 804.570312 L 365.714844 512 Z M 292.570312 731.429688 L 146.285156 731.429688 L 146.285156 585.144531 L 292.570312 585.144531 Z M 292.570312 731.429688 "
    />
</g>
</svg>
