<svg
  xmlns="http://www.w3.org/2000/svg"
  xmlns:xlink="http://www.w3.org/1999/xlink"
  viewBox="0 0 1024 1024"
  version="1.1"
>
<g id="surface1">
<path
      fill="currentColor"
      d="M 551.679688 1002.238281 C 542.078125 1002.238281 531.839844 998.398438 524.800781 990.71875 L 346.878906 812.800781 C 339.839844 823.679688 336.640625 837.761719 332.160156 858.238281 C 326.398438 886.398438 319.359375 920.960938 290.558594 949.761719 C 234.238281 1006.078125 128 1006.078125 71.679688 949.761719 C 15.359375 893.441406 15.359375 787.199219 71.679688 730.878906 C 100.480469 702.078125 135.679688 695.039062 163.199219 689.28125 C 183.039062 685.441406 197.761719 682.238281 208.640625 674.558594 L 30.71875 496.640625 C 23.039062 489.601562 19.199219 480 19.199219 469.761719 C 19.199219 459.519531 23.039062 449.921875 30.71875 442.878906 L 195.839844 278.398438 C 210.558594 263.679688 234.878906 263.679688 250.238281 278.398438 L 270.71875 298.878906 C 299.519531 327.679688 306.558594 362.878906 312.320312 390.398438 C 316.800781 414.71875 320 430.71875 332.160156 442.238281 C 358.398438 468.480469 416.640625 468.480469 442.878906 442.238281 C 469.121094 416 469.121094 358.398438 442.878906 331.519531 C 430.71875 320 414.71875 316.800781 389.761719 311.679688 C 361.601562 305.921875 327.039062 298.878906 298.238281 270.078125 L 277.761719 249.601562 C 270.71875 242.558594 266.238281 232.320312 266.238281 222.078125 C 266.238281 211.839844 270.078125 202.238281 277.761719 195.199219 L 442.878906 30.71875 C 457.601562 16 481.921875 16 497.28125 30.71875 L 675.199219 208.640625 C 682.238281 197.761719 685.441406 183.679688 689.921875 163.199219 C 695.679688 135.039062 702.71875 100.480469 731.519531 71.679688 C 787.839844 15.359375 894.078125 15.359375 950.398438 71.679688 C 1006.71875 128 1006.71875 234.238281 950.398438 290.558594 C 921.601562 319.359375 886.398438 326.398438 858.878906 332.160156 C 839.039062 336 824.320312 339.199219 813.441406 346.878906 L 991.359375 524.800781 C 998.398438 531.839844 1002.878906 542.078125 1002.878906 551.679688 C 1002.878906 561.28125 999.039062 571.519531 991.359375 578.558594 L 826.238281 743.039062 C 811.519531 757.761719 787.199219 757.761719 771.839844 743.039062 L 751.359375 722.558594 C 722.558594 693.761719 715.519531 658.558594 709.761719 631.039062 C 704.640625 606.078125 701.441406 590.078125 689.28125 578.558594 C 663.039062 552.320312 604.800781 552.320312 578.558594 578.558594 C 552.320312 604.800781 552.320312 662.398438 578.558594 689.28125 C 590.078125 700.800781 606.078125 704.640625 631.039062 709.761719 C 659.199219 715.519531 693.761719 722.558594 722.558594 751.359375 L 743.039062 771.839844 C 750.078125 778.878906 754.558594 789.121094 754.558594 798.71875 C 754.558594 808.960938 750.71875 818.558594 743.039062 826.238281 L 577.921875 990.71875 C 571.519531 998.398438 561.921875 1002.238281 551.679688 1002.238281 Z M 112 469.761719 L 290.558594 648.320312 C 305.28125 663.039062 305.28125 687.359375 290.558594 702.71875 L 270.078125 723.199219 C 241.28125 752 206.078125 759.039062 178.558594 764.800781 C 153.601562 769.921875 137.601562 773.121094 126.078125 785.28125 C 113.921875 797.441406 106.238281 817.921875 106.238281 840.320312 C 106.238281 862.71875 113.28125 883.199219 126.078125 895.359375 C 152.320312 921.601562 210.558594 921.601562 236.800781 895.359375 C 248.320312 883.839844 252.160156 867.839844 257.28125 842.878906 C 263.039062 814.71875 270.078125 780.160156 298.878906 751.359375 L 319.359375 730.878906 C 334.078125 716.160156 358.398438 716.160156 373.761719 730.878906 L 552.320312 909.441406 L 662.398438 799.359375 C 651.519531 792.320312 637.441406 789.121094 616.960938 784.640625 C 588.800781 778.878906 554.238281 771.839844 525.441406 743.039062 C 498.558594 716.160156 483.199219 676.480469 483.199219 633.601562 C 483.199219 590.71875 498.558594 551.039062 525.441406 524.160156 C 581.761719 467.839844 688 467.839844 744.320312 524.160156 C 773.121094 552.960938 780.160156 588.160156 785.921875 615.679688 C 789.761719 635.519531 792.960938 650.238281 800.640625 661.121094 L 910.71875 551.039062 L 732.160156 372.480469 C 717.441406 357.761719 717.441406 333.441406 732.160156 318.078125 L 752.640625 297.601562 C 781.441406 268.800781 816.640625 261.761719 844.160156 256 C 869.121094 250.878906 885.121094 247.679688 896.640625 235.519531 C 908.800781 223.359375 916.480469 202.238281 916.480469 180.480469 C 916.480469 158.71875 909.441406 137.601562 896.640625 125.441406 C 872.320312 100.480469 810.878906 100.480469 785.921875 125.441406 C 774.398438 136.960938 770.558594 152.960938 765.441406 177.921875 C 759.679688 206.078125 752.640625 240.640625 723.839844 269.441406 L 703.359375 289.921875 C 688.640625 304.640625 664.320312 304.640625 648.960938 289.921875 L 469.761719 112 L 359.679688 221.441406 C 370.558594 228.480469 384.640625 231.679688 405.121094 236.160156 C 433.28125 241.921875 467.839844 248.960938 496.640625 277.761719 C 523.519531 304.640625 538.878906 344.320312 538.878906 387.199219 C 538.878906 430.078125 523.519531 469.761719 496.640625 496.640625 C 442.878906 550.398438 330.878906 550.398438 277.761719 496.640625 C 248.960938 467.839844 241.921875 432.640625 236.160156 405.121094 C 232.320312 384.640625 229.121094 370.558594 222.078125 359.679688 Z M 112 469.761719 "
    />
</g>
</svg>
