<svg
  xmlns="http://www.w3.org/2000/svg"
  xmlns:xlink="http://www.w3.org/1999/xlink"
  viewBox="0 0 1024 1024"
  version="1.1"
>
<g id="surface1">
<path
      fill="currentColor"
      d="M 675.199219 412.160156 C 659.414062 385.921875 637.4375 363.949219 611.199219 348.160156 C 550.175781 309.777344 472.546875 309.777344 411.519531 348.160156 C 385.28125 363.949219 363.308594 385.921875 347.519531 412.160156 C 329.375 442.292969 319.855469 476.828125 320 512 C 319.371094 520.308594 319.371094 528.652344 320 536.960938 C 335.296875 629.683594 415.460938 697.710938 509.441406 697.710938 C 603.417969 697.710938 683.585938 629.683594 698.878906 536.960938 C 701.226562 528.785156 702.9375 520.441406 704 512 C 703.757812 476.707031 693.792969 442.160156 675.199219 412.160156 Z M 366.078125 302.71875 L 187.519531 124.160156 C 190.304688 115.023438 191.8125 105.546875 192 96 C 192 42.980469 149.019531 0 96 0 C 42.980469 0 0 42.980469 0 96 C 0 149.019531 42.980469 192 96 192 C 105.546875 191.8125 115.023438 190.304688 124.160156 187.519531 L 302.71875 366.078125 C 319.476562 341.007812 341.007812 319.476562 366.078125 302.71875 Z M 158.71875 599.679688 C 141.429688 584.351562 119.105469 575.921875 96 576 C 44.570312 576.371094 2.566406 617.210938 0.753906 668.609375 C -1.0625 720.011719 37.957031 763.710938 89.234375 767.707031 C 140.507812 771.703125 185.828125 734.582031 192 683.519531 L 295.039062 643.839844 C 279.367188 618.234375 268.316406 590.074219 262.398438 560.640625 Z M 864 256 C 917.019531 256 960 213.019531 960 160 C 960 106.980469 917.019531 64 864 64 C 810.980469 64 768 106.980469 768 160 C 768.1875 169.546875 769.695312 179.023438 772.480469 188.160156 L 657.921875 302.71875 C 683.285156 319.597656 705.042969 341.355469 721.921875 366.71875 L 836.480469 252.160156 C 845.441406 254.667969 854.695312 255.960938 864 256 Z M 556.800781 843.519531 L 556.800781 763.519531 C 542.023438 766.308594 527.035156 767.808594 512 768 C 496.964844 767.808594 481.976562 766.308594 467.199219 763.519531 L 467.199219 843.519531 C 428.167969 864.113281 408.207031 908.664062 418.816406 951.503906 C 429.421875 994.339844 467.871094 1024.425781 512 1024.425781 C 556.128906 1024.425781 594.578125 994.339844 605.183594 951.503906 C 615.792969 908.664062 595.832031 864.113281 556.800781 843.519531 Z M 928 576 C 904.453125 575.605469 881.617188 584.054688 864 599.679688 L 761.601562 560.640625 C 755.839844 590.117188 744.78125 618.308594 728.960938 643.839844 L 832 683.519531 C 838.171875 734.582031 883.492188 771.703125 934.765625 767.707031 C 986.042969 763.710938 1025.0625 720.011719 1023.246094 668.609375 C 1021.433594 617.210938 979.429688 576.371094 928 576 Z M 928 576 "
    />
</g>
</svg>
