<svg
  xmlns="http://www.w3.org/2000/svg"
  xmlns:xlink="http://www.w3.org/1999/xlink"
  viewBox="0 0 1024 1024"
  version="1.1"
>
<g id="surface1">
<path
      fill="currentColor"
      d="M 384 704 L 704 512 L 384 320 Z M 512 934.398438 C 281.601562 934.398438 89.601562 742.398438 89.601562 512 C 89.601562 281.601562 281.601562 89.601562 512 89.601562 C 742.398438 89.601562 934.398438 281.601562 934.398438 512 C 934.398438 742.398438 742.398438 934.398438 512 934.398438 Z M 512 0 C 230.398438 0 0 230.398438 0 512 C 0 793.601562 230.398438 1024 512 1024 C 793.601562 1024 1024 793.601562 1024 512 C 1024 230.398438 793.601562 0 512 0 Z M 512 0 "
    />
</g>
</svg>
