<svg
  xmlns="http://www.w3.org/2000/svg"
  xmlns:xlink="http://www.w3.org/1999/xlink"
  viewBox="0 0 1024 1024"
  version="1.1"
>
<g id="surface1">
<path
      fill="currentColor"
      d="M 672 384 C 737.175781 271.113281 870.046875 216.078125 995.957031 249.8125 C 1121.863281 283.550781 1209.414062 397.648438 1209.414062 528 C 1209.414062 658.351562 1121.863281 772.449219 995.957031 806.1875 C 870.046875 839.921875 737.175781 784.886719 672 672 Z M 0 384 C 15.539062 218.648438 135.617188 82.03125 297.601562 45.390625 C 459.589844 8.753906 626.773438 80.402344 711.957031 222.972656 C 797.140625 365.539062 781.019531 546.710938 672 672 L 966.398438 967.507812 L 1034.324219 899.585938 L 743.339844 608.597656 C 910.484375 493.761719 1138.117188 528.695312 1263.136719 688.367188 C 1388.15625 848.039062 1367.460938 1077.402344 1215.878906 1212.121094 C 1064.300781 1346.839844 834.09375 1340.464844 690.199219 1197.566406 C 546.308594 1054.667969 538.335938 824.511719 672 672 Z M 0 384 "
    />
</g>
</svg>
