<svg
  xmlns="http://www.w3.org/2000/svg"
  xmlns:xlink="http://www.w3.org/1999/xlink"
  viewBox="0 0 1024 1024"
  version="1.1"
>
<g id="surface1">
<path
      fill="currentColor"
      d="M 410.238281 540.160156 L 481.28125 540.160156 L 512.640625 284.160156 L 384 284.160156 Z M 411.519531 668.160156 L 478.71875 668.160156 L 478.71875 597.761719 L 411.519531 597.761719 Z M 752.640625 708.480469 C 802.558594 643.839844 832 563.199219 832 475.519531 C 832 263.679688 659.839844 91.519531 448 91.519531 C 236.160156 91.519531 64 263.679688 64 475.519531 C 64 687.359375 236.160156 859.519531 448 859.519531 C 535.679688 859.519531 615.679688 830.078125 680.320312 780.800781 L 859.519531 960 L 931.839844 887.679688 Z M 441.601562 756.480469 C 282.878906 756.480469 154.238281 627.199219 154.238281 468.480469 C 154.238281 309.761719 282.878906 181.121094 441.601562 181.121094 C 600.320312 181.121094 729.601562 310.398438 729.601562 468.480469 C 729.601562 626.558594 599.679688 756.480469 441.601562 756.480469 Z M 441.601562 756.480469 "
    />
</g>
</svg>
