<svg
  xmlns="http://www.w3.org/2000/svg"
  xmlns:xlink="http://www.w3.org/1999/xlink"
  viewBox="0 0 1024 1024"
  version="1.1"
>
<g id="surface1">
<path
      fill="currentColor"
      d="M 576 284.800781 L 448 412.800781 L 320 284.800781 L 256 348.800781 L 384 476.800781 L 256 604.800781 L 320 668.800781 L 448 540.800781 L 576 668.800781 L 640 604.800781 L 512 476.800781 L 640 348.800781 Z M 753.28125 709.121094 C 802.558594 644.480469 832 563.839844 832 476.800781 C 832 264.960938 659.839844 92.800781 448 92.800781 C 236.160156 92.800781 64 264.960938 64 476.800781 C 64 688.640625 236.160156 860.800781 448 860.800781 C 535.679688 860.800781 616.320312 831.359375 680.960938 781.441406 L 859.519531 960 L 931.839844 887.679688 Z M 441.601562 757.761719 C 282.878906 757.761719 154.238281 628.480469 154.238281 469.761719 C 154.238281 311.039062 283.519531 181.761719 441.601562 181.761719 C 599.679688 181.761719 729.601562 311.039062 729.601562 469.761719 C 729.601562 628.480469 599.679688 757.761719 441.601562 757.761719 Z M 441.601562 757.761719 "
    />
</g>
</svg>
