<svg
  xmlns="http://www.w3.org/2000/svg"
  xmlns:xlink="http://www.w3.org/1999/xlink"
  viewBox="0 0 1024 1024"
  version="1.1"
>
<g id="surface1">
<path
      fill="currentColor"
      d="M 51.199219 972.800781 L 256 972.800781 L 256 768 L 51.199219 768 Z M 409.601562 972.800781 L 614.398438 972.800781 L 614.398438 768 L 409.601562 768 Z M 768 972.800781 L 972.800781 972.800781 L 972.800781 768 L 768 768 Z M 51.199219 614.398438 L 256 614.398438 L 256 409.601562 L 51.199219 409.601562 Z M 409.601562 614.398438 L 614.398438 614.398438 L 614.398438 409.601562 L 409.601562 409.601562 Z M 768 614.398438 L 972.800781 614.398438 L 972.800781 409.601562 L 768 409.601562 Z M 51.199219 256 L 256 256 L 256 51.199219 L 51.199219 51.199219 Z M 409.601562 256 L 614.398438 256 L 614.398438 51.199219 L 409.601562 51.199219 Z M 768 51.199219 L 768 256 L 972.800781 256 L 972.800781 51.199219 Z M 768 51.199219 "
    />
</g>
</svg>
