<svg
  xmlns="http://www.w3.org/2000/svg"
  xmlns:xlink="http://www.w3.org/1999/xlink"
  viewBox="0 0 1024 1024"
  version="1.1"
>
<g id="surface1">
<path
      fill="currentColor"
      d="M 512 839.039062 C 661.761719 748.800781 742.398438 680.320312 742.398438 576 L 742.398438 243.199219 C 682.878906 229.761719 603.519531 217.601562 512 217.601562 Z M 512 64 C 292.480469 64 128 128 128 128 C 128 128 128 536.320312 128 576 C 128 850.558594 437.761719 954.878906 512 1024 C 586.238281 956.160156 896 847.359375 896 576 C 896 536.320312 896 128 896 128 C 896 128 737.921875 64 512 64 Z M 806.398438 576 C 806.398438 723.839844 682.878906 810.878906 545.28125 894.078125 C 533.761719 901.121094 522.238281 907.519531 512 913.921875 C 500.480469 906.878906 488.960938 899.839844 475.519531 891.519531 C 366.71875 826.238281 217.601562 736.640625 217.601562 576 L 217.601562 193.28125 C 279.039062 176.640625 385.28125 153.601562 512 153.601562 C 640.640625 153.601562 745.601562 176 806.398438 193.28125 Z M 806.398438 576 "
    />
</g>
</svg>
