<svg
  xmlns="http://www.w3.org/2000/svg"
  xmlns:xlink="http://www.w3.org/1999/xlink"
  viewBox="0 0 1024 1024"
  version="1.1"
>
<g id="surface1">
<path
      fill="currentColor"
      d="M 195.839844 616.960938 C 106.433594 545.035156 65.976562 428.351562 91.667969 316.519531 C 117.359375 204.6875 204.6875 117.359375 316.519531 91.667969 C 428.351562 65.976562 545.035156 106.433594 616.960938 195.839844 L 640 192 C 667.683594 192.273438 695.300781 194.84375 722.558594 199.679688 C 644.597656 55.257812 483.46875 -23.648438 321.578125 3.308594 C 159.6875 30.265625 32.824219 157.128906 5.867188 319.019531 C -21.089844 480.910156 57.820312 642.039062 202.238281 720 C 196.683594 693.652344 193.257812 666.898438 192 640 C 192 632.320312 195.199219 624.640625 195.839844 616.960938 Z M 751.359375 272.640625 C 720.242188 262.855469 687.957031 257.257812 655.359375 256 L 640 256 C 427.921875 256 256 427.921875 256 640 C 256 645.121094 256 650.238281 256 655.359375 C 257.050781 687.929688 262.433594 720.210938 272 751.359375 C 325.054688 926.789062 494.691406 1040.273438 677.089844 1022.359375 C 859.488281 1004.445312 1003.804688 860.128906 1021.71875 677.730469 C 1039.632812 495.332031 926.148438 325.695312 750.71875 272.640625 Z M 640 940.800781 C 523.757812 940.472656 418.105469 873.195312 368.640625 768 L 384 768 C 596.078125 768 768 596.078125 768 384 C 768 378.878906 768 373.761719 768 368.640625 C 895.707031 428.234375 964.757812 568.644531 933.992188 706.171875 C 903.222656 843.699219 780.925781 941.304688 640 940.800781 Z M 640 940.800781 "
    />
</g>
</svg>
