<svg
  xmlns="http://www.w3.org/2000/svg"
  xmlns:xlink="http://www.w3.org/1999/xlink"
  viewBox="0 0 1024 1024"
  version="1.1"
>
<g id="surface1">
<path
      fill="currentColor"
      d="M 152.960938 520.320312 C 152.96875 490.296875 156.839844 460.398438 164.480469 431.359375 L 174.71875 389.121094 L 90.878906 367.359375 L 80 409.601562 C 60.078125 488.171875 61.847656 570.675781 85.121094 648.320312 L 97.28125 689.921875 L 180.480469 664.960938 L 168.320312 623.359375 C 158.082031 589.972656 152.902344 555.242188 152.960938 520.320312 Z M 292.480469 801.28125 L 256 775.679688 L 202.878906 844.160156 L 238.078125 871.039062 C 302.953125 919.484375 380.117188 948.753906 460.800781 955.519531 L 503.679688 960 L 512 872.960938 L 469.121094 869.121094 C 405.195312 862.863281 344.160156 839.421875 292.480469 801.28125 Z M 921.601562 343.679688 C 824.359375 114.320312 559.636719 7.171875 330.238281 104.320312 C 272.359375 128.304688 220.222656 164.296875 177.28125 209.921875 L 256 286.71875 C 350.65625 185.894531 496.890625 152.339844 626.035156 201.8125 C 755.175781 251.285156 841.5625 373.957031 844.628906 512.214844 C 847.691406 650.476562 766.824219 776.855469 640 832 L 683.519531 934.398438 C 911.753906 836.402344 1018.09375 572.554688 921.601562 343.679688 Z M 921.601562 343.679688 "
    />
</g>
</svg>
