<svg
  xmlns="http://www.w3.org/2000/svg"
  xmlns:xlink="http://www.w3.org/1999/xlink"
  viewBox="0 0 1024 1024"
  version="1.1"
>
<g id="surface1">
<path
      fill="currentColor"
      d="M 931.839844 960 L 92.160156 960 C 72.960938 960 55.679688 947.199219 49.28125 928.640625 C 23.679688 848.640625 12.800781 789.121094 23.039062 737.28125 C 25.601562 725.761719 32.640625 714.878906 42.238281 708.480469 C 52.480469 702.078125 64.640625 699.519531 76.160156 702.078125 L 88.320312 704.640625 C 220.800781 733.441406 298.878906 745.601562 368 648.960938 C 382.71875 628.480469 387.199219 569.601562 378.878906 504.960938 C 375.679688 484.480469 364.800781 461.441406 353.28125 437.761719 C 339.839844 408.320312 323.839844 375.679688 319.359375 337.921875 C 313.601562 284.160156 328.320312 235.519531 362.238281 197.121094 C 398.078125 155.519531 451.199219 130.558594 508.800781 128 L 515.839844 128 C 573.441406 130.558594 626.558594 155.519531 662.398438 197.121094 C 695.679688 236.160156 710.398438 284.800781 704.640625 337.921875 C 700.800781 375.679688 684.800781 408.960938 670.71875 437.761719 C 659.199219 461.441406 648.320312 484.480469 645.761719 505.601562 C 637.441406 569.601562 641.921875 629.121094 656.640625 649.601562 C 725.121094 746.238281 803.839844 734.078125 936.320312 705.28125 L 948.480469 702.71875 C 960 700.160156 972.800781 702.71875 982.398438 709.121094 C 992.640625 715.519531 999.679688 725.761719 1001.601562 737.921875 C 1011.839844 789.121094 1000.960938 849.28125 975.359375 929.28125 C 968.960938 947.199219 951.679688 960 931.839844 960 Z M 124.800781 870.398438 L 898.558594 870.398438 C 905.601562 846.078125 910.078125 817.921875 912.640625 801.921875 C 799.359375 824.960938 677.121094 834.558594 582.398438 701.441406 C 543.359375 646.398438 549.121094 547.839844 556.160156 494.078125 C 561.28125 458.238281 576 426.878906 589.441406 398.71875 C 601.601562 373.761719 612.480469 350.71875 615.039062 327.679688 C 618.238281 299.519531 611.199219 275.199219 593.921875 255.359375 C 574.71875 232.960938 544 218.878906 512 217.601562 C 480 218.878906 449.28125 232.960938 430.078125 255.359375 C 412.800781 275.199219 405.761719 299.519531 408.960938 328.320312 C 411.519531 350.71875 422.398438 374.398438 434.558594 399.359375 C 448 426.878906 462.71875 458.238281 467.839844 494.078125 C 474.878906 547.839844 480.640625 646.398438 441.601562 701.441406 C 346.878906 834.558594 224.640625 824.320312 111.359375 801.921875 C 113.28125 817.921875 117.761719 846.078125 124.800781 870.398438 Z M 124.800781 870.398438 "
    />
</g>
</svg>
