<svg
  xmlns="http://www.w3.org/2000/svg"
  xmlns:xlink="http://www.w3.org/1999/xlink"
  viewBox="0 0 1024 1024"
  version="1.1"
>
<g id="surface1">
<path
      fill="currentColor"
      d="M 512 275.839844 L 560 389.121094 L 579.839844 435.199219 L 630.398438 439.039062 L 750.71875 448 L 660.480469 524.160156 L 620.800781 557.441406 L 632.960938 607.359375 L 661.121094 723.199219 L 554.238281 659.199219 L 512 634.238281 L 469.761719 659.839844 L 362.878906 723.839844 L 391.039062 608 L 403.199219 558.078125 L 363.519531 524.800781 L 273.28125 448 L 393.601562 438.398438 L 444.160156 434.558594 L 464 388.480469 L 512 275.839844 M 512 64 L 387.199219 356.480469 L 64 384 L 310.398438 588.160156 L 234.878906 896 L 512 731.519531 L 789.121094 896 L 713.601562 588.160156 L 960 384 L 640 356.480469 Z M 512 64 "
    />
</g>
</svg>
