<svg
  xmlns="http://www.w3.org/2000/svg"
  xmlns:xlink="http://www.w3.org/1999/xlink"
  viewBox="0 0 1024 1024"
  version="1.1"
>
<g id="surface1">
<path
      fill="currentColor"
      d="M 0 128 L 0 960 L 1024 960 L 1024 128 Z M 384 704 L 384 576 L 640 576 L 640 704 Z M 640 768 L 640 870.398438 L 384 870.398438 L 384 768 Z M 320 576 L 320 704 L 89.601562 704 L 89.601562 576 Z M 89.601562 512 L 89.601562 384 L 320 384 L 320 512 Z M 384 512 L 384 384 L 640 384 L 640 512 Z M 384 320 L 384 217.601562 L 640 217.601562 L 640 320 Z M 320 217.601562 L 320 320 L 89.601562 320 L 89.601562 217.601562 Z M 89.601562 768 L 320 768 L 320 870.398438 L 89.601562 870.398438 Z M 934.398438 870.398438 L 704 870.398438 L 704 768 L 934.398438 768 Z M 934.398438 704 L 704 704 L 704 576 L 934.398438 576 Z M 934.398438 512 L 704 512 L 704 384 L 934.398438 384 Z M 704 320 L 704 217.601562 L 934.398438 217.601562 L 934.398438 320 Z M 704 320 "
    />
</g>
</svg>
