<svg
  xmlns="http://www.w3.org/2000/svg"
  xmlns:xlink="http://www.w3.org/1999/xlink"
  viewBox="0 0 1024 1024"
  version="1.1"
>
<g id="surface1">
<path
      fill="currentColor"
      d="M 622.078125 78.078125 L 622.078125 170.878906 C 754.097656 213.949219 849.355469 329.40625 866.558594 467.199219 L 768 467.199219 L 768 556.800781 L 867.199219 556.800781 C 846.613281 718.9375 718.9375 846.613281 556.800781 867.199219 L 556.800781 768 L 467.199219 768 L 467.199219 867.199219 C 305.0625 846.613281 177.386719 718.9375 156.800781 556.800781 L 256 556.800781 L 256 467.199219 L 156.800781 467.199219 C 177.515625 304.648438 305.84375 176.847656 468.480469 156.800781 L 468.480469 512 L 558.078125 512 L 558.078125 0 L 64 0 L 64 89.601562 L 363.519531 89.601562 C 153.46875 162.726562 28.875 378.886719 70.878906 597.300781 C 112.882812 815.710938 308.769531 970.238281 530.957031 960.238281 C 753.148438 950.242188 934.359375 778.746094 956.578125 557.441406 C 978.792969 336.140625 835.289062 132.046875 619.519531 78.078125 Z M 622.078125 78.078125 "
    />
</g>
</svg>
