<svg
  xmlns="http://www.w3.org/2000/svg"
  xmlns:xlink="http://www.w3.org/1999/xlink"
  viewBox="0 0 1024 1024"
  version="1.1"
>
<g id="surface1">
<path
      fill="currentColor"
      d="M 192 320 L 448 64 L 448 320 Z M 192 320 "
    />
<path
      fill="currentColor"
      d="M 448 64 L 192 320 L 448 320 Z M 512 64 L 512 384 L 455.679688 384 L 455.679688 556.800781 C 455.679688 587.90625 480.894531 613.121094 512 613.121094 C 544.316406 609.214844 568.554688 581.671875 568.320312 549.121094 L 568.320312 384 L 656.640625 384 L 656.640625 716.800781 C 625.066406 710.640625 597.480469 691.628906 580.480469 664.320312 C 543.160156 688.613281 495.894531 691.765625 455.679688 672.640625 L 455.679688 832 L 366.71875 832 L 366.71875 384 L 192 384 L 192 960 L 832 960 L 832 64 Z M 512 64 "
    />
</g>
</svg>
