<svg
  xmlns="http://www.w3.org/2000/svg"
  xmlns:xlink="http://www.w3.org/1999/xlink"
  viewBox="0 0 1024 1024"
  version="1.1"
>
<g id="surface1">
<path
      fill="currentColor"
      d="M 695.039062 849.28125 C 692.886719 861.410156 682.398438 870.28125 670.078125 870.398438 L 353.921875 870.398438 C 342.363281 870.554688 332.136719 862.953125 328.960938 851.839844 L 247.679688 320 L 157.441406 320 L 240.640625 865.921875 C 250.8125 920.46875 298.429688 960.015625 353.921875 960 L 670.078125 960 C 725.570312 960.015625 773.1875 920.46875 783.359375 865.921875 L 866.558594 320 L 776.320312 320 Z M 838.398438 140.800781 L 704 140.800781 C 697.886719 96.46875 659.789062 63.582031 615.039062 64 L 408.960938 64 C 364.210938 63.582031 326.113281 96.46875 320 140.800781 L 185.601562 140.800781 C 153.789062 140.800781 128 166.589844 128 198.398438 L 128 256 L 896 256 L 896 198.398438 C 896 166.589844 870.210938 140.800781 838.398438 140.800781 Z M 838.398438 140.800781 "
    />
</g>
</svg>
