<svg
  xmlns="http://www.w3.org/2000/svg"
  xmlns:xlink="http://www.w3.org/1999/xlink"
  viewBox="0 0 1024 1024"
  version="1.1"
>
<g id="surface1">
<path
      fill="currentColor"
      d="M 64 256 L 64 960 L 960 960 L 960 256 Z M 870.398438 870.398438 L 153.601562 870.398438 L 153.601562 345.601562 L 870.398438 345.601562 Z M 896 83.199219 L 128 83.199219 L 128 172.800781 L 896 172.800781 Z M 588.160156 714.238281 L 640 768 L 776.960938 631.039062 C 791.671875 615.890625 791.671875 591.789062 776.960938 576.640625 L 640 440.960938 L 585.601562 494.71875 L 697.601562 604.800781 Z M 384 768 L 438.398438 713.601562 L 326.398438 604.800781 L 435.839844 494.71875 L 384 440.960938 L 244.480469 576 C 229.765625 591.148438 229.765625 615.25 244.480469 630.398438 Z M 384 768 "
    />
</g>
</svg>
