<svg
  xmlns="http://www.w3.org/2000/svg"
  xmlns:xlink="http://www.w3.org/1999/xlink"
  viewBox="0 0 1024 1024"
  version="1.1"
>
<g id="surface1">
<path
      fill="currentColor"
      d="M 640 512 L 896 256 L 822.398438 183.679688 C 674.613281 37.320312 440.511719 25.203125 278.398438 155.519531 L 192 69.121094 L 128 133.121094 L 215.679688 219.519531 C 88.601562 381.542969 102.042969 612.832031 247.039062 759.039062 L 320 832 L 576 576 L 773.121094 773.121094 C 783.523438 783.6875 789.285156 797.96875 789.121094 812.800781 C 789.078125 827.589844 783.351562 841.796875 773.121094 852.480469 C 751.160156 874.28125 715.722656 874.28125 693.761719 852.480469 L 629.761719 916.480469 C 688.0625 957.496094 767.460938 950.382812 817.546875 899.664062 C 867.632812 848.945312 873.746094 769.460938 832 711.679688 Z M 328.320312 264.960938 C 439.332031 155.53125 616.402344 151.601562 732.160156 256 L 320 668.800781 C 214.121094 553.703125 217.789062 375.601562 328.320312 264.960938 Z M 328.320312 264.960938 "
    />
</g>
</svg>
