<svg
  xmlns="http://www.w3.org/2000/svg"
  xmlns:xlink="http://www.w3.org/1999/xlink"
  viewBox="0 0 1024 1024"
  version="1.1"
>
<g id="surface1">
<path
      fill="currentColor"
      d="M 642.558594 765.441406 C 627.839844 765.441406 568.960938 731.519531 547.839844 714.878906 C 540.800781 709.761719 524.160156 689.28125 515.839844 686.71875 C 509.441406 685.441406 496 702.078125 489.601562 702.078125 C 483.839844 702.078125 456.960938 684.800781 450.558594 686.71875 C 442.238281 689.28125 340.480469 767.359375 325.761719 767.359375 C 258.558594 767.359375 192.640625 686.078125 192.640625 686.078125 C 188.800781 869.761719 359.039062 974.71875 388.480469 997.121094 C 412.800781 1015.039062 565.761719 1015.039062 590.078125 997.121094 C 620.160156 974.71875 760.960938 814.71875 770.558594 681.601562 C 743.679688 739.839844 709.121094 765.441406 642.558594 765.441406 Z M 421.121094 450.558594 C 609.28125 449.28125 783.359375 419.199219 785.28125 327.039062 C 787.199219 253.441406 744.320312 167.039062 705.921875 108.800781 C 680.320312 69.121094 645.121094 26.878906 597.761719 37.761719 C 552.960938 48 521.601562 93.441406 475.519531 101.121094 C 435.839844 108.800781 419.199219 78.71875 387.199219 62.078125 C 359.039062 48 330.238281 51.839844 307.839844 76.160156 C 274.558594 110.71875 254.71875 159.359375 239.359375 206.71875 C 225.28125 248.960938 196.480469 304.640625 201.601562 351.359375 C 208.640625 411.519531 355.839844 451.199219 421.121094 450.558594 Z M 826.878906 297.601562 C 930.558594 488.320312 580.480469 529.28125 421.121094 526.078125 C 305.921875 523.519531 78.71875 415.359375 156.160156 361.601562 C 92.800781 358.398438 40.960938 379.519531 30.71875 433.921875 C 17.28125 505.601562 56.320312 547.839844 134.398438 583.679688 C 231.039062 629.761719 351.359375 628.480469 461.441406 631.679688 C 596.480469 636.160156 739.199219 628.480469 857.601562 573.441406 C 924.800781 542.71875 990.71875 490.238281 988.160156 424.320312 C 985.601562 359.679688 906.878906 297.601562 826.878906 297.601562 Z M 826.878906 297.601562 "
    />
</g>
</svg>
