<svg
  xmlns="http://www.w3.org/2000/svg"
  xmlns:xlink="http://www.w3.org/1999/xlink"
  viewBox="0 0 1024 1024"
  version="1.1"
>
<g id="surface1">
<path
      fill="currentColor"
      d="M 470.398438 627.199219 L 552.320312 627.199219 L 552.320312 547.839844 L 470.398438 547.839844 Z M 614.398438 223.359375 C 581.925781 201.570312 543.402344 190.59375 504.320312 192 C 474.578125 191.054688 445.207031 198.839844 419.839844 214.398438 C 381.542969 241.09375 359.570312 285.523438 361.601562 332.160156 L 448 332.160156 C 448.144531 315.5625 453.027344 299.351562 462.078125 285.441406 C 472.949219 269.960938 491.234375 261.429688 510.078125 263.039062 C 527.855469 260.855469 545.566406 267.554688 557.441406 280.960938 C 566.027344 292.867188 570.519531 307.242188 570.238281 321.921875 C 570.332031 334.59375 566.289062 346.953125 558.71875 357.121094 C 554.015625 363.636719 548.414062 369.453125 542.078125 374.398438 L 520.320312 391.039062 C 503.976562 402.175781 490.582031 417.109375 481.28125 434.558594 C 474.765625 456.566406 471.742188 479.457031 472.320312 502.398438 L 549.761719 502.398438 C 549.132812 490.746094 550.429688 479.070312 553.601562 467.839844 C 557.507812 455.425781 565.375 444.636719 576 437.121094 L 596.480469 421.121094 C 612.609375 410.785156 627.25 398.296875 640 384 C 653.289062 365.371094 660.039062 342.867188 659.199219 320 C 662.527344 282.109375 645.464844 245.308594 614.398438 223.359375 Z M 960 768 L 960 64 L 64 64 L 64 768 L 467.199219 768 L 467.199219 838.398438 L 256 838.398438 L 256 953.601562 L 768 953.601562 L 768 838.398438 L 556.800781 838.398438 L 556.800781 768 Z M 153.601562 678.398438 L 153.601562 153.601562 L 870.398438 153.601562 L 870.398438 678.398438 Z M 153.601562 678.398438 "
    />
</g>
</svg>
