<svg
  xmlns="http://www.w3.org/2000/svg"
  xmlns:xlink="http://www.w3.org/1999/xlink"
  viewBox="0 0 1024 1024"
  version="1.1"
>
<g id="surface1">
<path
      fill="currentColor"
      d="M 960 384 L 960 112.640625 L 851.199219 221.441406 C 713.742188 61.335938 483.191406 18.863281 297.703125 119.46875 C 112.214844 220.070312 22.074219 436.476562 81.300781 639.011719 C 140.523438 841.546875 333.054688 975.292969 543.523438 960.113281 C 753.992188 944.933594 925.335938 784.9375 954.878906 576 L 864.640625 576 C 835.453125 742.765625 694.101562 866.71875 524.953125 873.875 C 355.800781 881.035156 204.484375 769.46875 161.308594 605.765625 C 118.132812 442.0625 194.75 270.382812 345.429688 193.191406 C 496.109375 116 680.203125 154.121094 787.839844 284.800781 L 688.640625 384 Z M 960 384 "
    />
</g>
</svg>
