<svg
  xmlns="http://www.w3.org/2000/svg"
  xmlns:xlink="http://www.w3.org/1999/xlink"
  viewBox="0 0 1024 1024"
  version="1.1"
>
<g id="surface1">
<path
      fill="currentColor"
      d="M 1016.320312 945.921875 L 709.121094 428.800781 C 701.546875 415.828125 687.660156 407.855469 672.640625 407.855469 C 657.621094 407.855469 643.730469 415.828125 636.160156 428.800781 L 327.039062 949.121094 C 310.398438 977.28125 323.839844 1024 356.480469 1024 L 988.800781 1024 C 1024 1024 1032.960938 974.078125 1016.320312 945.921875 Z M 709.121094 961.921875 L 634.238281 961.921875 L 634.238281 887.039062 L 709.121094 887.039062 Z M 709.121094 805.761719 L 634.878906 805.761719 L 628.480469 540.160156 L 714.878906 540.160156 Z M 709.121094 805.761719 "
    />
<path
      fill="currentColor"
      d="M 288 583.679688 C 129.234375 584.382812 0.699219 712.914062 0 871.679688 C -0.660156 879.773438 -0.660156 887.90625 0 896 L 284.160156 896 L 469.761719 583.679688 Z M 448 504.320312 C 474.136719 503.789062 500.035156 499.253906 524.800781 490.878906 L 581.121094 396.160156 C 600.144531 363.738281 635.050781 343.964844 672.640625 344.320312 L 681.601562 344.320312 C 718.410156 250.203125 695.316406 143.195312 622.96875 72.636719 C 550.621094 2.078125 443.066406 -18.324219 349.902344 20.832031 C 256.738281 59.988281 196.058594 151.101562 195.839844 252.160156 C 197.902344 390.5625 309.597656 502.257812 448 504.320312 Z M 448 504.320312 "
    />
</g>
</svg>
