<svg
  xmlns="http://www.w3.org/2000/svg"
  xmlns:xlink="http://www.w3.org/1999/xlink"
  viewBox="0 0 1024 1024"
  version="1.1"
>
<g id="surface1">
<path
      fill="currentColor"
      d="M 448 0 C 322.535156 1.242188 217.171875 94.765625 201.054688 219.199219 C 184.9375 343.628906 262.992188 460.910156 384 494.078125 C 451.679688 390.160156 565.378906 325.328125 689.28125 320 C 696.160156 297.808594 699.824219 274.75 700.160156 251.519531 C 700.160156 184.703125 673.574219 120.628906 626.265625 73.441406 C 578.957031 26.253906 514.816406 -0.171875 448 0 Z M 339.199219 583.679688 L 288 583.679688 C 129.234375 584.382812 0.699219 712.914062 0 871.679688 C -0.660156 879.773438 -0.660156 887.90625 0 896 L 371.839844 896 C 338 837.664062 320.121094 771.441406 320 704 C 320.136719 663.140625 326.613281 622.550781 339.199219 583.679688 Z M 339.199219 583.679688 "
    />
<path
      fill="currentColor"
      d="M 934.398438 704 C 934.734375 830.824219 832.507812 934.074219 705.6875 935 C 578.863281 935.929688 475.136719 834.1875 473.617188 707.371094 C 472.097656 580.554688 573.351562 476.355469 700.160156 474.238281 L 700.160156 384 C 523.945312 386.113281 382.605469 530.304688 384.011719 706.53125 C 385.414062 882.753906 529.039062 1024.671875 705.265625 1023.972656 C 881.492188 1023.277344 1023.988281 880.226562 1024 704 Z M 934.398438 704 "
    />
</g>
</svg>
