<svg
  xmlns="http://www.w3.org/2000/svg"
  xmlns:xlink="http://www.w3.org/1999/xlink"
  viewBox="0 0 1024 1024"
  version="1.1"
>
<g id="surface1">
<path
      fill="currentColor"
      d="M 567.679688 583.679688 L 288 583.679688 C 129.234375 584.382812 0.699219 712.914062 0 871.679688 C -0.660156 879.773438 -0.660156 887.90625 0 896 L 553.601562 896 C 556.679688 821.503906 591.082031 751.777344 648.320312 704 C 610.960938 672.003906 583.074219 630.394531 567.679688 583.679688 Z M 448 504.320312 C 483.789062 503.972656 519.109375 496.125 551.679688 481.28125 L 551.679688 320 L 689.921875 320 C 696.273438 297.929688 699.714844 275.121094 700.160156 252.160156 C 700.160156 112.894531 587.265625 0 448 0 C 308.734375 0 195.839844 112.894531 195.839844 252.160156 C 195.839844 391.425781 308.734375 504.320312 448 504.320312 Z M 448 504.320312 "
    />
<path
      fill="currentColor"
      d="M 819.839844 704 C 707.128906 704.703125 616.027344 796.085938 615.679688 908.800781 L 615.679688 1024 L 1024 1024 L 1024 908.800781 C 1024 795.941406 932.699219 704.351562 819.839844 704 Z M 960 960 L 679.679688 960 L 679.679688 908.800781 C 679.679688 831.390625 742.433594 768.640625 819.839844 768.640625 C 897.25 768.640625 960 831.390625 960 908.800781 Z M 615.679688 384 L 615.679688 499.199219 C 615.679688 503.039062 615.679688 506.878906 615.679688 510.71875 C 617.886719 549.503906 631.21875 586.832031 654.078125 618.238281 C 661.085938 628.140625 669.015625 637.355469 677.761719 645.761719 L 682.238281 649.601562 C 689.996094 656.699219 698.347656 663.125 707.199219 668.800781 L 718.71875 675.199219 C 725.765625 679.417969 733.027344 683.265625 740.480469 686.71875 L 760.960938 693.121094 L 777.601562 698.238281 C 790.890625 700.785156 804.390625 702.070312 817.921875 702.078125 C 831.453125 702.132812 844.960938 700.84375 858.238281 698.238281 L 874.878906 693.121094 L 895.359375 686.71875 C 903.019531 683.265625 910.496094 679.421875 917.761719 675.199219 C 921.589844 673.429688 925.234375 671.285156 928.640625 668.800781 C 937.492188 663.125 945.84375 656.699219 953.601562 649.601562 L 958.078125 645.761719 C 967.027344 637.363281 975.167969 628.148438 982.398438 618.238281 C 1006.175781 587.554688 1020.617188 550.671875 1024 512 C 1024 508.160156 1024 504.320312 1024 500.480469 L 1024 384 Z M 960 500.480469 C 960.316406 504.3125 960.316406 508.167969 960 512 L 680.960938 512 C 680.960938 508.160156 680.960938 504.320312 680.960938 500.480469 L 680.960938 448 L 960 448 Z M 960 500.480469 "
    />
</g>
</svg>
