<svg
  xmlns="http://www.w3.org/2000/svg"
  xmlns:xlink="http://www.w3.org/1999/xlink"
  viewBox="0 0 1024 1024"
  version="1.1"
>
<g id="surface1">
<path
      fill="currentColor"
      d="M 339.199219 583.679688 L 288 583.679688 C 129.234375 584.382812 0.699219 712.914062 0 871.679688 C -0.660156 879.773438 -0.660156 887.90625 0 896 L 371.839844 896 C 338 837.664062 320.121094 771.441406 320 704 C 320.136719 663.140625 326.613281 622.550781 339.199219 583.679688 Z M 448 0 C 322.535156 1.242188 217.171875 94.765625 201.054688 219.199219 C 184.9375 343.628906 262.992188 460.910156 384 494.078125 C 451.679688 390.160156 565.378906 325.328125 689.28125 320 C 696.160156 297.808594 699.824219 274.75 700.160156 251.519531 C 700.160156 184.703125 673.574219 120.628906 626.265625 73.441406 C 578.957031 26.253906 514.816406 -0.171875 448 0 Z M 448 0 "
    />
<path
      fill="currentColor"
      d="M 999.679688 826.238281 C 1003.765625 815.582031 1007.183594 804.679688 1009.921875 793.601562 C 1009.921875 784.640625 1015.679688 776.320312 1017.601562 766.71875 C 1022.070312 745.683594 1024.214844 724.222656 1024 702.71875 C 1024.214844 681.214844 1022.070312 659.753906 1017.601562 638.71875 C 1017.601562 629.121094 1012.480469 620.800781 1009.921875 611.839844 C 1007.183594 600.757812 1003.765625 589.859375 999.679688 579.199219 C 995.117188 568.78125 989.769531 558.726562 983.679688 549.121094 C 979.199219 540.800781 975.359375 531.839844 970.238281 524.160156 C 958.796875 506.570312 945.492188 490.261719 930.558594 475.519531 C 915.6875 460.730469 899.394531 447.441406 881.921875 435.839844 C 874.238281 430.71875 865.28125 426.878906 856.960938 422.398438 C 847.355469 416.3125 837.296875 410.960938 826.878906 406.398438 C 816.222656 402.316406 805.320312 398.894531 794.238281 396.160156 C 785.28125 396.160156 776.960938 390.398438 767.359375 388.480469 C 725.15625 379.585938 681.5625 379.585938 639.359375 388.480469 C 629.761719 388.480469 621.441406 393.601562 612.480469 396.160156 C 601.398438 398.894531 590.5 402.316406 579.839844 406.398438 C 569.421875 410.960938 559.367188 416.3125 549.761719 422.398438 C 541.441406 426.878906 532.480469 430.71875 524.800781 435.839844 C 507.324219 447.441406 491.035156 460.730469 476.160156 475.519531 C 461.226562 490.261719 447.921875 506.570312 436.480469 524.160156 C 431.359375 531.839844 427.519531 540.800781 423.039062 549.121094 C 417.195312 558.867188 411.855469 568.90625 407.039062 579.199219 C 402.878906 589.554688 399.664062 600.265625 397.441406 611.199219 C 394.464844 620.636719 392.113281 630.253906 390.398438 640 C 385.929688 661.035156 383.785156 682.496094 384 704 C 383.785156 725.503906 385.929688 746.964844 390.398438 768 C 392.585938 777.339844 395.363281 786.53125 398.71875 795.519531 C 401.242188 806.378906 404.449219 817.066406 408.320312 827.519531 C 412.800781 838.398438 419.199219 848 424.320312 858.238281 C 429.441406 868.480469 432.640625 874.878906 437.761719 882.558594 C 461.375 917.691406 491.589844 947.902344 526.71875 971.519531 C 534.398438 976.640625 543.359375 980.480469 551.039062 984.960938 C 558.71875 989.441406 570.878906 996.480469 581.761719 1000.960938 C 592.214844 1004.832031 602.902344 1008.039062 613.761719 1010.558594 C 622.746094 1013.917969 631.9375 1016.695312 641.28125 1018.878906 C 683.484375 1027.773438 727.078125 1027.773438 769.28125 1018.878906 C 778.621094 1016.695312 787.8125 1013.917969 796.800781 1010.558594 C 807.660156 1008.039062 818.347656 1004.832031 828.800781 1000.960938 C 839.679688 996.480469 849.28125 990.078125 859.519531 984.960938 C 869.761719 979.839844 876.160156 976.640625 883.839844 971.519531 C 918.972656 947.902344 949.183594 917.691406 972.800781 882.558594 C 977.921875 874.878906 981.761719 865.921875 986.238281 857.601562 C 991.253906 847.382812 995.738281 836.917969 999.679688 826.238281 Z M 955.519531 750.71875 C 955.300781 754.984375 955.300781 759.257812 955.519531 763.519531 C 952.863281 775.117188 949.222656 786.464844 944.640625 797.441406 C 943.238281 802.125 941.308594 806.636719 938.878906 810.878906 C 934.433594 821.148438 929.078125 831.003906 922.878906 840.320312 L 917.121094 849.921875 C 890.382812 888.304688 853.640625 918.628906 810.878906 937.601562 L 806.398438 937.601562 C 793.636719 942.414062 780.601562 946.476562 767.359375 949.761719 L 758.398438 949.761719 C 740.691406 955.128906 722.449219 958.5625 704 960 C 687.234375 959.933594 670.511719 958.21875 654.078125 954.878906 L 645.121094 954.878906 C 631.878906 951.59375 618.84375 947.535156 606.078125 942.71875 L 601.601562 942.71875 C 566.363281 924.996094 535.699219 899.371094 512 867.839844 C 506.238281 860.800781 499.839844 853.761719 494.71875 846.078125 C 489.601562 838.398438 486.398438 830.71875 481.921875 823.039062 C 477.792969 816.269531 474.15625 809.210938 471.039062 801.921875 C 471.039062 794.238281 465.921875 786.558594 463.359375 778.878906 C 460.425781 770.738281 458.070312 762.398438 456.320312 753.921875 C 456.320312 744.320312 456.320312 734.71875 456.320312 725.761719 C 456.320312 716.800781 456.320312 696.960938 456.320312 682.878906 C 456.320312 668.800781 456.320312 663.679688 456.320312 654.078125 C 458.070312 645.601562 460.425781 637.261719 463.359375 629.121094 C 463.359375 621.441406 467.839844 613.761719 471.039062 606.078125 C 474.15625 598.789062 477.792969 591.730469 481.921875 584.960938 C 485.554688 576.945312 489.835938 569.238281 494.71875 561.921875 C 499.972656 554.480469 505.746094 547.421875 512 540.800781 C 536.128906 510.667969 566.757812 486.382812 601.601562 469.761719 C 614.511719 464.746094 627.773438 460.679688 641.28125 457.601562 L 649.601562 457.601562 C 683.386719 450.703125 718.214844 450.703125 752 457.601562 L 760.320312 457.601562 C 773.824219 460.679688 787.085938 464.746094 800 469.761719 C 836.894531 484.804688 869.765625 508.253906 896 538.238281 L 684.160156 750.078125 L 593.28125 647.679688 L 533.761719 704 L 682.878906 869.761719 L 938.878906 610.558594 C 943.96875 622.730469 947.828125 635.378906 950.398438 648.320312 C 950.398438 654.078125 950.398438 659.839844 950.398438 665.601562 C 951.03125 674.976562 951.03125 684.382812 950.398438 693.761719 C 950.71875 699.941406 950.71875 706.136719 950.398438 712.320312 C 952.75 725.027344 954.460938 737.84375 955.519531 750.71875 Z M 955.519531 750.71875 "
    />
</g>
</svg>
