<svg
  xmlns="http://www.w3.org/2000/svg"
  xmlns:xlink="http://www.w3.org/1999/xlink"
  viewBox="0 0 1024 1024"
  version="1.1"
>
<g id="surface1">
<path
      fill="currentColor"
      d="M 448 0 C 322.535156 1.242188 217.171875 94.765625 201.054688 219.199219 C 184.9375 343.628906 262.992188 460.910156 384 494.078125 C 451.679688 390.160156 565.378906 325.328125 689.28125 320 C 696.160156 297.808594 699.824219 274.75 700.160156 251.519531 C 700.160156 184.703125 673.574219 120.628906 626.265625 73.441406 C 578.957031 26.253906 514.816406 -0.171875 448 0 Z M 339.199219 583.679688 L 288 583.679688 C 129.234375 584.382812 0.699219 712.914062 0 871.679688 C -0.660156 879.773438 -0.660156 887.90625 0 896 L 371.839844 896 C 338 837.664062 320.121094 771.441406 320 704 C 320.136719 663.140625 326.613281 622.550781 339.199219 583.679688 Z M 339.199219 583.679688 "
    />
<path
      fill="currentColor"
      d="M 930.558594 477.441406 C 805.507812 352.703125 603.042969 352.875 478.203125 477.820312 C 353.363281 602.765625 353.363281 805.234375 478.203125 930.179688 C 603.042969 1055.125 805.507812 1055.296875 930.558594 930.558594 C 990.746094 870.523438 1024.570312 789.007812 1024.570312 704 C 1024.570312 618.992188 990.746094 537.476562 930.558594 477.441406 Z M 885.121094 885.121094 C 785.117188 985.011719 623.078125 984.953125 523.148438 884.984375 C 423.21875 785.019531 423.21875 622.980469 523.148438 523.015625 C 623.078125 423.046875 785.117188 422.988281 885.121094 522.878906 C 933.191406 570.898438 960.203125 636.054688 960.203125 704 C 960.203125 771.945312 933.191406 837.101562 885.121094 885.121094 Z M 824.960938 524.800781 L 704 645.761719 L 583.039062 524.800781 L 524.800781 583.039062 L 645.761719 704 L 524.800781 824.960938 L 583.039062 883.199219 L 704 762.238281 L 824.960938 883.199219 L 883.199219 824.960938 L 762.238281 704 L 883.199219 583.039062 Z M 824.960938 524.800781 "
    />
</g>
</svg>
