<svg
  xmlns="http://www.w3.org/2000/svg"
  xmlns:xlink="http://www.w3.org/1999/xlink"
  viewBox="0 0 1024 1024"
  version="1.1"
>
<g id="surface1">
<path
      fill="currentColor"
      d="M 448 504.320312 C 587.519531 504.320312 700.160156 391.679688 700.160156 252.160156 C 700.160156 112.640625 587.519531 0 448 0 C 309.121094 0 195.839844 112.640625 195.839844 252.160156 C 195.839844 391.039062 309.121094 504.320312 448 504.320312 Z M 517.761719 711.679688 C 501.121094 678.398438 506.878906 636.800781 534.398438 609.28125 L 552.320312 592 C 555.519531 588.800781 560 586.878906 563.839844 584.320312 L 288 584.320312 C 129.28125 584.960938 0 713.601562 0 872.320312 C 0 880 0.640625 888.320312 1.921875 896.640625 L 510.71875 896.640625 C 482.558594 881.921875 463.359375 853.121094 463.359375 819.199219 L 463.359375 793.601562 C 463.359375 757.121094 485.761719 725.121094 517.761719 711.679688 Z M 950.398438 756.480469 L 887.679688 756.480469 C 883.839844 744.320312 878.71875 733.441406 872.320312 722.558594 L 913.921875 680.960938 C 923.519531 671.359375 923.519531 655.359375 913.921875 645.761719 L 896.640625 628.480469 C 887.039062 618.878906 871.039062 618.878906 861.441406 628.480469 L 819.199219 670.71875 C 807.679688 664.320312 795.519531 659.199219 782.078125 656 L 782.078125 600.960938 C 782.078125 587.519531 771.199219 576 757.121094 576 L 732.160156 576 C 718.71875 576 707.199219 586.878906 707.199219 600.960938 L 707.199219 655.359375 C 693.121094 659.199219 679.679688 664.960938 666.878906 672 L 632.320312 637.441406 C 622.71875 627.839844 606.71875 627.839844 597.121094 637.441406 L 579.199219 654.71875 C 569.601562 664.320312 569.601562 680.320312 579.199219 689.921875 L 615.039062 725.761719 C 607.359375 739.199219 601.601562 753.28125 598.398438 768.640625 L 552.320312 768.640625 C 538.238281 768.640625 527.359375 779.519531 527.359375 793.601562 L 527.359375 818.558594 C 527.359375 832 538.238281 843.519531 552.320312 843.519531 L 602.238281 843.519531 C 606.71875 858.238281 613.761719 872.320312 622.078125 885.121094 L 588.160156 919.039062 C 578.558594 928.640625 578.558594 944.640625 588.160156 954.238281 L 605.441406 971.519531 C 615.039062 981.121094 631.039062 981.121094 640.640625 971.519531 L 678.398438 933.761719 C 691.199219 940.160156 704.640625 944.640625 719.359375 947.199219 L 719.359375 999.039062 C 719.359375 1012.480469 730.238281 1024 744.320312 1024 L 769.28125 1024 C 782.71875 1024 794.238281 1013.121094 794.238281 999.039062 L 794.238281 940.800781 C 807.039062 936.320312 818.558594 930.558594 829.441406 922.878906 L 869.761719 963.199219 C 879.359375 972.800781 895.359375 972.800781 904.960938 963.199219 L 922.238281 945.921875 C 931.839844 936.320312 931.839844 920.320312 922.238281 910.71875 L 878.078125 866.558594 C 883.199219 855.679688 887.679688 844.160156 890.238281 831.359375 L 949.761719 831.359375 C 963.839844 831.359375 974.71875 820.480469 974.71875 806.398438 L 974.71875 781.441406 C 975.359375 767.359375 963.839844 756.480469 950.398438 756.480469 Z M 744.960938 862.078125 C 710.398438 862.078125 682.878906 834.558594 682.878906 800 C 682.878906 765.441406 711.039062 737.921875 744.960938 737.921875 C 779.519531 737.921875 807.039062 765.441406 807.039062 800 C 807.039062 834.558594 779.519531 862.078125 744.960938 862.078125 Z M 744.960938 862.078125 "
    />
</g>
</svg>
