<svg
  xmlns="http://www.w3.org/2000/svg"
  xmlns:xlink="http://www.w3.org/1999/xlink"
  viewBox="0 0 1024 1024"
  version="1.1"
>
<g id="surface1">
<path
      fill="currentColor"
      d="M 448 0 C 322.535156 1.242188 217.171875 94.765625 201.054688 219.199219 C 184.9375 343.628906 262.992188 460.910156 384 494.078125 C 451.679688 390.160156 565.378906 325.328125 689.28125 320 C 696.160156 297.808594 699.824219 274.75 700.160156 251.519531 C 700.160156 184.703125 673.574219 120.628906 626.265625 73.441406 C 578.957031 26.253906 514.816406 -0.171875 448 0 Z M 339.199219 583.679688 L 288 583.679688 C 129.234375 584.382812 0.699219 712.914062 0 871.679688 C -0.660156 879.773438 -0.660156 887.90625 0 896 L 371.839844 896 C 338 837.664062 320.121094 771.441406 320 704 C 320.136719 663.140625 326.613281 622.550781 339.199219 583.679688 Z M 339.199219 583.679688 "
    />
<path
      fill="currentColor"
      d="M 704 384 C 527.269531 384 384 527.269531 384 704 C 384 880.730469 527.269531 1024 704 1024 C 880.730469 1024 1024 880.730469 1024 704 C 1024 527.269531 880.730469 384 704 384 Z M 741.761719 915.199219 L 666.238281 915.199219 L 666.238281 840.320312 L 741.761719 840.320312 Z M 741.761719 758.398438 L 667.519531 758.398438 L 661.121094 492.800781 L 746.878906 492.800781 Z M 741.761719 758.398438 "
    />
</g>
</svg>
