<svg
  xmlns="http://www.w3.org/2000/svg"
  xmlns:xlink="http://www.w3.org/1999/xlink"
  viewBox="0 0 1024 1024"
  version="1.1"
>
<g id="surface1">
<path
      fill="currentColor"
      d="M 64 960 L 179.199219 960 L 179.199219 384 L 64 384 Z M 870.398438 359.679688 L 640 359.679688 L 680.960938 256 C 695.597656 220.375 700.242188 181.429688 694.398438 143.359375 C 689.308594 110.847656 675.105469 80.449219 653.441406 55.679688 C 641.132812 41.542969 626.660156 29.445312 610.558594 19.839844 C 595.195312 5.535156 574.527344 -1.664062 553.601562 0 C 533.65625 6.421875 518.117188 22.199219 512 42.238281 C 504.960938 60.800781 497.921875 80 490.238281 98.558594 L 453.761719 188.160156 L 256 384 L 256 960 L 711.039062 960 C 754.660156 959.644531 794.425781 934.945312 814.078125 896 L 938.238281 660.480469 C 952.464844 633.207031 959.925781 602.917969 960 572.160156 L 960 452.480469 C 961.070312 402.285156 921.238281 360.730469 871.039062 359.679688 Z M 870.398438 572.160156 C 870.375 588.433594 866.421875 604.460938 858.878906 618.878906 L 735.359375 854.398438 C 730.640625 863.648438 721.402344 869.726562 711.039062 870.398438 L 345.601562 870.398438 L 345.601562 422.398438 L 516.480469 251.519531 C 524.730469 243.292969 531.257812 233.5 535.679688 222.71875 C 544 204.160156 563.839844 158.71875 581.761719 110.078125 C 610.34375 138.886719 617.066406 182.847656 598.398438 218.878906 L 512 448 L 870.398438 451.199219 Z M 870.398438 572.160156 "
    />
</g>
</svg>
