<svg
  xmlns="http://www.w3.org/2000/svg"
  xmlns:xlink="http://www.w3.org/1999/xlink"
  viewBox="0 0 1024 1024"
  version="1.1"
>
<g id="surface1">
<path
      fill="currentColor"
      d="M 128 128 L 128 256 L 896 256 L 896 128 Z M 128 896 L 256 896 L 256 768 L 128 768 Z M 672 448 L 128 448 L 128 576 L 672 576 C 725.019531 576 768 618.980469 768 672 C 768 725.019531 725.019531 768 672 768 L 512 768 L 512 662.398438 L 320 832 L 512 1003.519531 L 512 896 L 672 896 C 795.710938 896 896 795.710938 896 672 C 896 548.289062 795.710938 448 672 448 Z M 672 448 "
    />
</g>
</svg>
